{"glyphs":{"0":{"ha":1389,"x_min":140,"x_max":1249,"o":"m 395 19 l 994 19 q 1054 39 1032 19 q 1076 87 1076 60 q 1054 134 1076 114 q 994 155 1032 155 l 395 155 q 335 134 357 155 q 313 87 313 114 q 335 39 313 60 q 395 19 357 19 m 221 193 l 473 193 q 533 213 511 193 q 555 260 555 233 q 533 308 555 288 q 473 328 511 328 l 221 328 q 161 308 183 328 q 140 260 140 288 q 161 213 140 233 q 221 193 183 193 m 916 193 l 1168 193 q 1227 213 1206 193 q 1249 260 1249 233 q 1227 308 1249 288 q 1168 328 1206 328 l 916 328 q 856 308 878 328 q 834 260 834 288 q 856 213 834 233 q 916 193 878 193 m 221 366 l 473 366 q 533 387 511 366 q 555 434 555 407 q 533 481 555 461 q 473 502 511 502 l 221 502 q 161 481 183 502 q 140 434 140 461 q 161 387 140 407 q 221 366 183 366 m 916 366 l 1168 366 q 1227 387 1206 366 q 1249 434 1249 407 q 1227 481 1249 461 q 1168 502 1206 502 l 916 502 q 856 481 878 502 q 834 434 834 461 q 856 387 834 407 q 916 366 878 366 m 221 540 l 647 540 q 707 560 685 540 q 728 608 728 581 q 707 655 728 635 q 647 675 685 675 l 221 675 q 161 655 183 675 q 140 608 140 635 q 161 560 140 581 q 221 540 183 540 m 916 540 l 1168 540 q 1227 560 1206 540 q 1249 608 1249 581 q 1227 655 1249 635 q 1168 675 1206 675 l 916 675 q 856 655 878 675 q 834 608 834 635 q 856 560 834 581 q 916 540 878 540 m 221 713 l 473 713 q 533 734 511 713 q 555 781 555 754 q 533 829 555 808 q 473 849 511 849 l 221 849 q 161 829 183 849 q 140 781 140 808 q 161 734 140 754 q 221 713 183 713 m 742 713 l 1168 713 q 1227 734 1206 713 q 1249 781 1249 754 q 1227 829 1249 808 q 1168 849 1206 849 l 742 849 q 682 829 704 849 q 661 781 661 808 q 682 734 661 754 q 742 713 704 713 m 221 887 l 473 887 q 533 907 511 887 q 555 955 555 928 q 533 1002 555 982 q 473 1023 511 1023 l 221 1023 q 161 1002 183 1023 q 140 955 140 982 q 161 907 140 928 q 221 887 183 887 m 916 887 l 1168 887 q 1227 907 1206 887 q 1249 955 1249 928 q 1227 1002 1249 982 q 1168 1023 1206 1023 l 916 1023 q 856 1002 878 1023 q 834 955 834 982 q 856 907 834 928 q 916 887 878 887 m 395 1061 l 994 1061 q 1054 1081 1032 1061 q 1076 1128 1076 1101 q 1054 1176 1076 1156 q 994 1196 1032 1196 l 395 1196 q 335 1176 357 1196 q 313 1128 313 1156 q 335 1081 313 1101 q 395 1061 357 1061 z "},"1":{"ha":1389,"x_min":140,"x_max":1249,"o":"m 221 19 l 1168 19 q 1227 39 1206 19 q 1249 87 1249 60 q 1227 134 1249 114 q 1168 155 1206 155 l 221 155 q 161 134 183 155 q 140 87 140 114 q 161 39 140 60 q 221 19 183 19 m 568 193 l 821 193 q 880 213 859 193 q 902 260 902 233 q 880 308 902 288 q 821 328 859 328 l 568 328 q 509 308 530 328 q 487 260 487 288 q 509 213 487 233 q 568 193 530 193 m 568 366 l 821 366 q 880 387 859 366 q 902 434 902 407 q 880 481 902 461 q 821 502 859 502 l 568 502 q 509 481 530 502 q 487 434 487 461 q 509 387 487 407 q 568 366 530 366 m 568 540 l 821 540 q 880 560 859 540 q 902 608 902 581 q 880 655 902 635 q 821 675 859 675 l 568 675 q 509 655 530 675 q 487 608 487 635 q 509 560 487 581 q 568 540 530 540 m 395 713 l 821 713 q 880 734 859 713 q 902 781 902 754 q 880 829 902 808 q 821 849 859 849 l 395 849 q 335 829 357 849 q 313 781 313 808 q 335 734 313 754 q 395 713 357 713 m 568 887 l 821 887 q 880 907 859 887 q 902 955 902 928 q 880 1002 902 982 q 821 1023 859 1023 l 568 1023 q 509 1002 530 1023 q 487 955 487 982 q 509 907 487 928 q 568 887 530 887 m 568 1061 l 821 1061 q 880 1081 859 1061 q 902 1128 902 1101 q 880 1176 902 1156 q 821 1196 859 1196 l 568 1196 q 509 1176 530 1196 q 487 1128 487 1156 q 509 1081 487 1101 q 568 1061 530 1061 z "},"2":{"ha":1389,"x_min":140,"x_max":1249,"o":"m 221 19 l 1168 19 q 1227 39 1206 19 q 1249 87 1249 60 q 1227 134 1249 114 q 1168 155 1206 155 l 221 155 q 161 134 183 155 q 140 87 140 114 q 161 39 140 60 q 221 19 183 19 m 221 193 l 473 193 q 533 213 511 193 q 555 260 555 233 q 533 308 555 288 q 473 328 511 328 l 221 328 q 161 308 183 328 q 140 260 140 288 q 161 213 140 233 q 221 193 183 193 m 395 366 l 647 366 q 707 387 685 366 q 728 434 728 407 q 707 481 728 461 q 647 502 685 502 l 395 502 q 335 481 357 502 q 313 434 313 461 q 335 387 313 407 q 395 366 357 366 m 742 540 l 994 540 q 1054 560 1032 540 q 1076 608 1076 581 q 1054 655 1076 635 q 994 675 1032 675 l 742 675 q 682 655 704 675 q 661 608 661 635 q 682 560 661 581 q 742 540 704 540 m 916 713 l 1168 713 q 1227 734 1206 713 q 1249 781 1249 754 q 1227 829 1249 808 q 1168 849 1206 849 l 916 849 q 856 829 878 849 q 834 781 834 808 q 856 734 834 754 q 916 713 878 713 m 221 887 l 473 887 q 533 907 511 887 q 555 955 555 928 q 533 1002 555 982 q 473 1023 511 1023 l 221 1023 q 161 1002 183 1023 q 140 955 140 982 q 161 907 140 928 q 221 887 183 887 m 916 887 l 1168 887 q 1227 907 1206 887 q 1249 955 1249 928 q 1227 1002 1249 982 q 1168 1023 1206 1023 l 916 1023 q 856 1002 878 1023 q 834 955 834 982 q 856 907 834 928 q 916 887 878 887 m 395 1061 l 994 1061 q 1054 1081 1032 1061 q 1076 1128 1076 1101 q 1054 1176 1076 1156 q 994 1196 1032 1196 l 395 1196 q 335 1176 357 1196 q 313 1128 313 1156 q 335 1081 313 1101 q 395 1061 357 1061 z "},"3":{"ha":1389,"x_min":140,"x_max":1249,"o":"m 395 19 l 994 19 q 1054 39 1032 19 q 1076 87 1076 60 q 1054 134 1076 114 q 994 155 1032 155 l 395 155 q 335 134 357 155 q 313 87 313 114 q 335 39 313 60 q 395 19 357 19 m 221 193 l 473 193 q 533 213 511 193 q 555 260 555 233 q 533 308 555 288 q 473 328 511 328 l 221 328 q 161 308 183 328 q 140 260 140 288 q 161 213 140 233 q 221 193 183 193 m 916 193 l 1168 193 q 1227 213 1206 193 q 1249 260 1249 233 q 1227 308 1249 288 q 1168 328 1206 328 l 916 328 q 856 308 878 328 q 834 260 834 288 q 856 213 834 233 q 916 193 878 193 m 916 366 l 1168 366 q 1227 387 1206 366 q 1249 434 1249 407 q 1227 481 1249 461 q 1168 502 1206 502 l 916 502 q 856 481 878 502 q 834 434 834 461 q 856 387 834 407 q 916 366 878 366 m 568 540 l 994 540 q 1054 560 1032 540 q 1076 608 1076 581 q 1054 655 1076 635 q 994 675 1032 675 l 568 675 q 509 655 530 675 q 487 608 487 635 q 509 560 487 581 q 568 540 530 540 m 916 713 l 1168 713 q 1227 734 1206 713 q 1249 781 1249 754 q 1227 829 1249 808 q 1168 849 1206 849 l 916 849 q 856 829 878 849 q 834 781 834 808 q 856 734 834 754 q 916 713 878 713 m 221 887 l 473 887 q 533 907 511 887 q 555 955 555 928 q 533 1002 555 982 q 473 1023 511 1023 l 221 1023 q 161 1002 183 1023 q 140 955 140 982 q 161 907 140 928 q 221 887 183 887 m 916 887 l 1168 887 q 1227 907 1206 887 q 1249 955 1249 928 q 1227 1002 1249 982 q 1168 1023 1206 1023 l 916 1023 q 856 1002 878 1023 q 834 955 834 982 q 856 907 834 928 q 916 887 878 887 m 395 1061 l 994 1061 q 1054 1081 1032 1061 q 1076 1128 1076 1101 q 1054 1176 1076 1156 q 994 1196 1032 1196 l 395 1196 q 335 1176 357 1196 q 313 1128 313 1156 q 335 1081 313 1101 q 395 1061 357 1061 z "},"4":{"ha":1389,"x_min":140,"x_max":1423,"o":"m 916 19 l 1168 19 q 1227 39 1206 19 q 1249 87 1249 60 q 1227 134 1249 114 q 1168 155 1206 155 l 916 155 q 856 134 878 155 q 834 87 834 114 q 856 39 834 60 q 916 19 878 19 m 916 193 l 1168 193 q 1227 213 1206 193 q 1249 260 1249 233 q 1227 308 1249 288 q 1168 328 1206 328 l 916 328 q 856 308 878 328 q 834 260 834 288 q 856 213 834 233 q 916 193 878 193 m 221 366 l 1341 366 q 1401 387 1379 366 q 1423 434 1423 407 q 1401 481 1423 461 q 1341 502 1379 502 l 221 502 q 161 481 183 502 q 140 434 140 461 q 161 387 140 407 q 221 366 183 366 m 221 540 l 473 540 q 533 560 511 540 q 555 608 555 581 q 533 655 555 635 q 473 675 511 675 l 221 675 q 161 655 183 675 q 140 608 140 635 q 161 560 140 581 q 221 540 183 540 m 916 540 l 1168 540 q 1227 560 1206 540 q 1249 608 1249 581 q 1227 655 1249 635 q 1168 675 1206 675 l 916 675 q 856 655 878 675 q 834 608 834 635 q 856 560 834 581 q 916 540 878 540 m 568 713 l 1168 713 q 1227 734 1206 713 q 1249 781 1249 754 q 1227 829 1249 808 q 1168 849 1206 849 l 568 849 q 509 829 530 849 q 487 781 487 808 q 509 734 487 754 q 568 713 530 713 m 742 887 l 1168 887 q 1227 907 1206 887 q 1249 955 1249 928 q 1227 1002 1249 982 q 1168 1023 1206 1023 l 742 1023 q 682 1002 704 1023 q 661 955 661 982 q 682 907 661 928 q 742 887 704 887 m 916 1061 l 1168 1061 q 1227 1081 1206 1061 q 1249 1128 1249 1101 q 1227 1176 1249 1156 q 1168 1196 1206 1196 l 916 1196 q 856 1176 878 1196 q 834 1128 834 1156 q 856 1081 834 1101 q 916 1061 878 1061 z "},"5":{"ha":1389,"x_min":140,"x_max":1249,"o":"m 395 19 l 994 19 q 1054 39 1032 19 q 1076 87 1076 60 q 1054 134 1076 114 q 994 155 1032 155 l 395 155 q 335 134 357 155 q 313 87 313 114 q 335 39 313 60 q 395 19 357 19 m 221 193 l 473 193 q 533 213 511 193 q 555 260 555 233 q 533 308 555 288 q 473 328 511 328 l 221 328 q 161 308 183 328 q 140 260 140 288 q 161 213 140 233 q 221 193 183 193 m 916 193 l 1168 193 q 1227 213 1206 193 q 1249 260 1249 233 q 1227 308 1249 288 q 1168 328 1206 328 l 916 328 q 856 308 878 328 q 834 260 834 288 q 856 213 834 233 q 916 193 878 193 m 916 366 l 1168 366 q 1227 387 1206 366 q 1249 434 1249 407 q 1227 481 1249 461 q 1168 502 1206 502 l 916 502 q 856 481 878 502 q 834 434 834 461 q 856 387 834 407 q 916 366 878 366 m 916 540 l 1168 540 q 1227 560 1206 540 q 1249 608 1249 581 q 1227 655 1249 635 q 1168 675 1206 675 l 916 675 q 856 655 878 675 q 834 608 834 635 q 856 560 834 581 q 916 540 878 540 m 221 713 l 994 713 q 1054 734 1032 713 q 1076 781 1076 754 q 1054 829 1076 808 q 994 849 1032 849 l 221 849 q 161 829 183 849 q 140 781 140 808 q 161 734 140 754 q 221 713 183 713 m 221 887 l 473 887 q 533 907 511 887 q 555 955 555 928 q 533 1002 555 982 q 473 1023 511 1023 l 221 1023 q 161 1002 183 1023 q 140 955 140 982 q 161 907 140 928 q 221 887 183 887 m 221 1061 l 1168 1061 q 1227 1081 1206 1061 q 1249 1128 1249 1101 q 1227 1176 1249 1156 q 1168 1196 1206 1196 l 221 1196 q 161 1176 183 1196 q 140 1128 140 1156 q 161 1081 140 1101 q 221 1061 183 1061 z "},"6":{"ha":1389,"x_min":140,"x_max":1249,"o":"m 395 19 l 994 19 q 1054 39 1032 19 q 1076 87 1076 60 q 1054 134 1076 114 q 994 155 1032 155 l 395 155 q 335 134 357 155 q 313 87 313 114 q 335 39 313 60 q 395 19 357 19 m 221 193 l 473 193 q 533 213 511 193 q 555 260 555 233 q 533 308 555 288 q 473 328 511 328 l 221 328 q 161 308 183 328 q 140 260 140 288 q 161 213 140 233 q 221 193 183 193 m 916 193 l 1168 193 q 1227 213 1206 193 q 1249 260 1249 233 q 1227 308 1249 288 q 1168 328 1206 328 l 916 328 q 856 308 878 328 q 834 260 834 288 q 856 213 834 233 q 916 193 878 193 m 221 366 l 473 366 q 533 387 511 366 q 555 434 555 407 q 533 481 555 461 q 473 502 511 502 l 221 502 q 161 481 183 502 q 140 434 140 461 q 161 387 140 407 q 221 366 183 366 m 916 366 l 1168 366 q 1227 387 1206 366 q 1249 434 1249 407 q 1227 481 1249 461 q 1168 502 1206 502 l 916 502 q 856 481 878 502 q 834 434 834 461 q 856 387 834 407 q 916 366 878 366 m 221 540 l 994 540 q 1054 560 1032 540 q 1076 608 1076 581 q 1054 655 1076 635 q 994 675 1032 675 l 221 675 q 161 655 183 675 q 140 608 140 635 q 161 560 140 581 q 221 540 183 540 m 221 713 l 473 713 q 533 734 511 713 q 555 781 555 754 q 533 829 555 808 q 473 849 511 849 l 221 849 q 161 829 183 849 q 140 781 140 808 q 161 734 140 754 q 221 713 183 713 m 221 887 l 473 887 q 533 907 511 887 q 555 955 555 928 q 533 1002 555 982 q 473 1023 511 1023 l 221 1023 q 161 1002 183 1023 q 140 955 140 982 q 161 907 140 928 q 221 887 183 887 m 916 887 l 1168 887 q 1227 907 1206 887 q 1249 955 1249 928 q 1227 1002 1249 982 q 1168 1023 1206 1023 l 916 1023 q 856 1002 878 1023 q 834 955 834 982 q 856 907 834 928 q 916 887 878 887 m 395 1061 l 994 1061 q 1054 1081 1032 1061 q 1076 1128 1076 1101 q 1054 1176 1076 1156 q 994 1196 1032 1196 l 395 1196 q 335 1176 357 1196 q 313 1128 313 1156 q 335 1081 313 1101 q 395 1061 357 1061 z "},"7":{"ha":1389,"x_min":140,"x_max":1249,"o":"m 568 19 l 821 19 q 880 39 859 19 q 902 87 902 60 q 880 134 902 114 q 821 155 859 155 l 568 155 q 509 134 530 155 q 487 87 487 114 q 509 39 487 60 q 568 19 530 19 m 568 193 l 821 193 q 880 213 859 193 q 902 260 902 233 q 880 308 902 288 q 821 328 859 328 l 568 328 q 509 308 530 328 q 487 260 487 288 q 509 213 487 233 q 568 193 530 193 m 568 366 l 821 366 q 880 387 859 366 q 902 434 902 407 q 880 481 902 461 q 821 502 859 502 l 568 502 q 509 481 530 502 q 487 434 487 461 q 509 387 487 407 q 568 366 530 366 m 568 540 l 821 540 q 880 560 859 540 q 902 608 902 581 q 880 655 902 635 q 821 675 859 675 l 568 675 q 509 655 530 675 q 487 608 487 635 q 509 560 487 581 q 568 540 530 540 m 742 713 l 994 713 q 1054 734 1032 713 q 1076 781 1076 754 q 1054 829 1076 808 q 994 849 1032 849 l 742 849 q 682 829 704 849 q 661 781 661 808 q 682 734 661 754 q 742 713 704 713 m 221 887 l 473 887 q 533 907 511 887 q 555 955 555 928 q 533 1002 555 982 q 473 1023 511 1023 l 221 1023 q 161 1002 183 1023 q 140 955 140 982 q 161 907 140 928 q 221 887 183 887 m 916 887 l 1168 887 q 1227 907 1206 887 q 1249 955 1249 928 q 1227 1002 1249 982 q 1168 1023 1206 1023 l 916 1023 q 856 1002 878 1023 q 834 955 834 982 q 856 907 834 928 q 916 887 878 887 m 221 1061 l 1168 1061 q 1227 1081 1206 1061 q 1249 1128 1249 1101 q 1227 1176 1249 1156 q 1168 1196 1206 1196 l 221 1196 q 161 1176 183 1196 q 140 1128 140 1156 q 161 1081 140 1101 q 221 1061 183 1061 z "},"8":{"ha":1389,"x_min":140,"x_max":1249,"o":"m 395 19 l 994 19 q 1054 39 1032 19 q 1076 87 1076 60 q 1054 134 1076 114 q 994 155 1032 155 l 395 155 q 335 134 357 155 q 313 87 313 114 q 335 39 313 60 q 395 19 357 19 m 221 193 l 473 193 q 533 213 511 193 q 555 260 555 233 q 533 308 555 288 q 473 328 511 328 l 221 328 q 161 308 183 328 q 140 260 140 288 q 161 213 140 233 q 221 193 183 193 m 916 193 l 1168 193 q 1227 213 1206 193 q 1249 260 1249 233 q 1227 308 1249 288 q 1168 328 1206 328 l 916 328 q 856 308 878 328 q 834 260 834 288 q 856 213 834 233 q 916 193 878 193 m 221 366 l 473 366 q 533 387 511 366 q 555 434 555 407 q 533 481 555 461 q 473 502 511 502 l 221 502 q 161 481 183 502 q 140 434 140 461 q 161 387 140 407 q 221 366 183 366 m 916 366 l 1168 366 q 1227 387 1206 366 q 1249 434 1249 407 q 1227 481 1249 461 q 1168 502 1206 502 l 916 502 q 856 481 878 502 q 834 434 834 461 q 856 387 834 407 q 916 366 878 366 m 395 540 l 994 540 q 1054 560 1032 540 q 1076 608 1076 581 q 1054 655 1076 635 q 994 675 1032 675 l 395 675 q 335 655 357 675 q 313 608 313 635 q 335 560 313 581 q 395 540 357 540 m 221 713 l 473 713 q 533 734 511 713 q 555 781 555 754 q 533 829 555 808 q 473 849 511 849 l 221 849 q 161 829 183 849 q 140 781 140 808 q 161 734 140 754 q 221 713 183 713 m 916 713 l 1168 713 q 1227 734 1206 713 q 1249 781 1249 754 q 1227 829 1249 808 q 1168 849 1206 849 l 916 849 q 856 829 878 849 q 834 781 834 808 q 856 734 834 754 q 916 713 878 713 m 221 887 l 473 887 q 533 907 511 887 q 555 955 555 928 q 533 1002 555 982 q 473 1023 511 1023 l 221 1023 q 161 1002 183 1023 q 140 955 140 982 q 161 907 140 928 q 221 887 183 887 m 916 887 l 1168 887 q 1227 907 1206 887 q 1249 955 1249 928 q 1227 1002 1249 982 q 1168 1023 1206 1023 l 916 1023 q 856 1002 878 1023 q 834 955 834 982 q 856 907 834 928 q 916 887 878 887 m 395 1061 l 994 1061 q 1054 1081 1032 1061 q 1076 1128 1076 1101 q 1054 1176 1076 1156 q 994 1196 1032 1196 l 395 1196 q 335 1176 357 1196 q 313 1128 313 1156 q 335 1081 313 1101 q 395 1061 357 1061 z "},"9":{"ha":1389,"x_min":140,"x_max":1249,"o":"m 395 19 l 994 19 q 1054 39 1032 19 q 1076 87 1076 60 q 1054 134 1076 114 q 994 155 1032 155 l 395 155 q 335 134 357 155 q 313 87 313 114 q 335 39 313 60 q 395 19 357 19 m 221 193 l 473 193 q 533 213 511 193 q 555 260 555 233 q 533 308 555 288 q 473 328 511 328 l 221 328 q 161 308 183 328 q 140 260 140 288 q 161 213 140 233 q 221 193 183 193 m 916 193 l 1168 193 q 1227 213 1206 193 q 1249 260 1249 233 q 1227 308 1249 288 q 1168 328 1206 328 l 916 328 q 856 308 878 328 q 834 260 834 288 q 856 213 834 233 q 916 193 878 193 m 916 366 l 1168 366 q 1227 387 1206 366 q 1249 434 1249 407 q 1227 481 1249 461 q 1168 502 1206 502 l 916 502 q 856 481 878 502 q 834 434 834 461 q 856 387 834 407 q 916 366 878 366 m 395 540 l 1168 540 q 1227 560 1206 540 q 1249 608 1249 581 q 1227 655 1249 635 q 1168 675 1206 675 l 395 675 q 335 655 357 675 q 313 608 313 635 q 335 560 313 581 q 395 540 357 540 m 221 713 l 473 713 q 533 734 511 713 q 555 781 555 754 q 533 829 555 808 q 473 849 511 849 l 221 849 q 161 829 183 849 q 140 781 140 808 q 161 734 140 754 q 221 713 183 713 m 916 713 l 1168 713 q 1227 734 1206 713 q 1249 781 1249 754 q 1227 829 1249 808 q 1168 849 1206 849 l 916 849 q 856 829 878 849 q 834 781 834 808 q 856 734 834 754 q 916 713 878 713 m 221 887 l 473 887 q 533 907 511 887 q 555 955 555 928 q 533 1002 555 982 q 473 1023 511 1023 l 221 1023 q 161 1002 183 1023 q 140 955 140 982 q 161 907 140 928 q 221 887 183 887 m 916 887 l 1168 887 q 1227 907 1206 887 q 1249 955 1249 928 q 1227 1002 1249 982 q 1168 1023 1206 1023 l 916 1023 q 856 1002 878 1023 q 834 955 834 982 q 856 907 834 928 q 916 887 878 887 m 395 1061 l 994 1061 q 1054 1081 1032 1061 q 1076 1128 1076 1101 q 1054 1176 1076 1156 q 994 1196 1032 1196 l 395 1196 q 335 1176 357 1196 q 313 1128 313 1156 q 335 1081 313 1101 q 395 1061 357 1061 z "},"\u0000":{"ha":0,"x_min":0,"x_max":0,"o":""}," ":{"ha":1389,"x_min":0,"x_max":0,"o":""},"A":{"ha":1389,"x_min":140,"x_max":1249,"o":"m 221 19 l 473 19 q 533 39 511 19 q 555 87 555 60 q 533 134 555 114 q 473 155 511 155 l 221 155 q 161 134 183 155 q 140 87 140 114 q 161 39 140 60 q 221 19 183 19 m 916 19 l 1168 19 q 1227 39 1206 19 q 1249 87 1249 60 q 1227 134 1249 114 q 1168 155 1206 155 l 916 155 q 856 134 878 155 q 834 87 834 114 q 856 39 834 60 q 916 19 878 19 m 221 193 l 473 193 q 533 213 511 193 q 555 260 555 233 q 533 308 555 288 q 473 328 511 328 l 221 328 q 161 308 183 328 q 140 260 140 288 q 161 213 140 233 q 221 193 183 193 m 916 193 l 1168 193 q 1227 213 1206 193 q 1249 260 1249 233 q 1227 308 1249 288 q 1168 328 1206 328 l 916 328 q 856 308 878 328 q 834 260 834 288 q 856 213 834 233 q 916 193 878 193 m 221 366 l 473 366 q 533 387 511 366 q 555 434 555 407 q 533 481 555 461 q 473 502 511 502 l 221 502 q 161 481 183 502 q 140 434 140 461 q 161 387 140 407 q 221 366 183 366 m 916 366 l 1168 366 q 1227 387 1206 366 q 1249 434 1249 407 q 1227 481 1249 461 q 1168 502 1206 502 l 916 502 q 856 481 878 502 q 834 434 834 461 q 856 387 834 407 q 916 366 878 366 m 221 540 l 1168 540 q 1227 560 1206 540 q 1249 608 1249 581 q 1227 655 1249 635 q 1168 675 1206 675 l 221 675 q 161 655 183 675 q 140 608 140 635 q 161 560 140 581 q 221 540 183 540 m 221 713 l 473 713 q 533 734 511 713 q 555 781 555 754 q 533 829 555 808 q 473 849 511 849 l 221 849 q 161 829 183 849 q 140 781 140 808 q 161 734 140 754 q 221 713 183 713 m 916 713 l 1168 713 q 1227 734 1206 713 q 1249 781 1249 754 q 1227 829 1249 808 q 1168 849 1206 849 l 916 849 q 856 829 878 849 q 834 781 834 808 q 856 734 834 754 q 916 713 878 713 m 395 887 l 994 887 q 1054 907 1032 887 q 1076 955 1076 928 q 1054 1002 1076 982 q 994 1023 1032 1023 l 395 1023 q 335 1002 357 1023 q 313 955 313 982 q 335 907 313 928 q 395 887 357 887 m 568 1061 l 821 1061 q 880 1081 859 1061 q 902 1128 902 1101 q 880 1176 902 1156 q 821 1196 859 1196 l 568 1196 q 509 1176 530 1196 q 487 1128 487 1156 q 509 1081 487 1101 q 568 1061 530 1061 z "},"Á":{"ha":1389,"x_min":140,"x_max":1249,"o":"m 221 19 l 473 19 q 533 39 511 19 q 555 87 555 60 q 533 134 555 114 q 473 155 511 155 l 221 155 q 161 134 183 155 q 140 87 140 114 q 161 39 140 60 q 221 19 183 19 m 916 19 l 1168 19 q 1227 39 1206 19 q 1249 87 1249 60 q 1227 134 1249 114 q 1168 155 1206 155 l 916 155 q 856 134 878 155 q 834 87 834 114 q 856 39 834 60 q 916 19 878 19 m 221 193 l 1168 193 q 1227 213 1206 193 q 1249 260 1249 233 q 1227 308 1249 288 q 1168 328 1206 328 l 221 328 q 161 308 183 328 q 140 260 140 288 q 161 213 140 233 q 221 193 183 193 m 221 366 l 473 366 q 533 387 511 366 q 555 434 555 407 q 533 481 555 461 q 473 502 511 502 l 221 502 q 161 481 183 502 q 140 434 140 461 q 161 387 140 407 q 221 366 183 366 m 916 366 l 1168 366 q 1227 387 1206 366 q 1249 434 1249 407 q 1227 481 1249 461 q 1168 502 1206 502 l 916 502 q 856 481 878 502 q 834 434 834 461 q 856 387 834 407 q 916 366 878 366 m 395 540 l 994 540 q 1054 560 1032 540 q 1076 608 1076 581 q 1054 655 1076 635 q 994 675 1032 675 l 395 675 q 335 655 357 675 q 313 608 313 635 q 335 560 313 581 q 395 540 357 540 m 568 713 l 821 713 q 880 734 859 713 q 902 781 902 754 q 880 829 902 808 q 821 849 859 849 l 568 849 q 509 829 530 849 q 487 781 487 808 q 509 734 487 754 q 568 713 530 713 m 568 887 l 821 887 q 880 907 859 887 q 902 955 902 928 q 880 1002 902 982 q 821 1023 859 1023 l 568 1023 q 509 1002 530 1023 q 487 955 487 982 q 509 907 487 928 q 568 887 530 887 m 742 1061 l 994 1061 q 1054 1081 1032 1061 q 1076 1128 1076 1101 q 1054 1176 1076 1156 q 994 1196 1032 1196 l 742 1196 q 682 1176 704 1196 q 661 1128 661 1156 q 682 1081 661 1101 q 742 1061 704 1061 z "},"Â":{"ha":1389,"x_min":140,"x_max":1249,"o":"m 221 19 l 473 19 q 533 39 511 19 q 555 87 555 60 q 533 134 555 114 q 473 155 511 155 l 221 155 q 161 134 183 155 q 140 87 140 114 q 161 39 140 60 q 221 19 183 19 m 916 19 l 1168 19 q 1227 39 1206 19 q 1249 87 1249 60 q 1227 134 1249 114 q 1168 155 1206 155 l 916 155 q 856 134 878 155 q 834 87 834 114 q 856 39 834 60 q 916 19 878 19 m 221 193 l 1168 193 q 1227 213 1206 193 q 1249 260 1249 233 q 1227 308 1249 288 q 1168 328 1206 328 l 221 328 q 161 308 183 328 q 140 260 140 288 q 161 213 140 233 q 221 193 183 193 m 221 366 l 473 366 q 533 387 511 366 q 555 434 555 407 q 533 481 555 461 q 473 502 511 502 l 221 502 q 161 481 183 502 q 140 434 140 461 q 161 387 140 407 q 221 366 183 366 m 916 366 l 1168 366 q 1227 387 1206 366 q 1249 434 1249 407 q 1227 481 1249 461 q 1168 502 1206 502 l 916 502 q 856 481 878 502 q 834 434 834 461 q 856 387 834 407 q 916 366 878 366 m 395 540 l 994 540 q 1054 560 1032 540 q 1076 608 1076 581 q 1054 655 1076 635 q 994 675 1032 675 l 395 675 q 335 655 357 675 q 313 608 313 635 q 335 560 313 581 q 395 540 357 540 m 568 713 l 821 713 q 880 734 859 713 q 902 781 902 754 q 880 829 902 808 q 821 849 859 849 l 568 849 q 509 829 530 849 q 487 781 487 808 q 509 734 487 754 q 568 713 530 713 m 221 887 l 473 887 q 533 907 511 887 q 555 955 555 928 q 533 1002 555 982 q 473 1023 511 1023 l 221 1023 q 161 1002 183 1023 q 140 955 140 982 q 161 907 140 928 q 221 887 183 887 m 916 887 l 1168 887 q 1227 907 1206 887 q 1249 955 1249 928 q 1227 1002 1249 982 q 1168 1023 1206 1023 l 916 1023 q 856 1002 878 1023 q 834 955 834 982 q 856 907 834 928 q 916 887 878 887 m 395 1061 l 994 1061 q 1054 1081 1032 1061 q 1076 1128 1076 1101 q 1054 1176 1076 1156 q 994 1196 1032 1196 l 395 1196 q 335 1176 357 1196 q 313 1128 313 1156 q 335 1081 313 1101 q 395 1061 357 1061 z "},"Ä":{"ha":1389,"x_min":140,"x_max":1249,"o":"m 221 19 l 473 19 q 533 39 511 19 q 555 87 555 60 q 533 134 555 114 q 473 155 511 155 l 221 155 q 161 134 183 155 q 140 87 140 114 q 161 39 140 60 q 221 19 183 19 m 916 19 l 1168 19 q 1227 39 1206 19 q 1249 87 1249 60 q 1227 134 1249 114 q 1168 155 1206 155 l 916 155 q 856 134 878 155 q 834 87 834 114 q 856 39 834 60 q 916 19 878 19 m 221 193 l 473 193 q 533 213 511 193 q 555 260 555 233 q 533 308 555 288 q 473 328 511 328 l 221 328 q 161 308 183 328 q 140 260 140 288 q 161 213 140 233 q 221 193 183 193 m 916 193 l 1168 193 q 1227 213 1206 193 q 1249 260 1249 233 q 1227 308 1249 288 q 1168 328 1206 328 l 916 328 q 856 308 878 328 q 834 260 834 288 q 856 213 834 233 q 916 193 878 193 m 221 366 l 1168 366 q 1227 387 1206 366 q 1249 434 1249 407 q 1227 481 1249 461 q 1168 502 1206 502 l 221 502 q 161 481 183 502 q 140 434 140 461 q 161 387 140 407 q 221 366 183 366 m 221 540 l 473 540 q 533 560 511 540 q 555 608 555 581 q 533 655 555 635 q 473 675 511 675 l 221 675 q 161 655 183 675 q 140 608 140 635 q 161 560 140 581 q 221 540 183 540 m 916 540 l 1168 540 q 1227 560 1206 540 q 1249 608 1249 581 q 1227 655 1249 635 q 1168 675 1206 675 l 916 675 q 856 655 878 675 q 834 608 834 635 q 856 560 834 581 q 916 540 878 540 m 395 713 l 994 713 q 1054 734 1032 713 q 1076 781 1076 754 q 1054 829 1076 808 q 994 849 1032 849 l 395 849 q 335 829 357 849 q 313 781 313 808 q 335 734 313 754 q 395 713 357 713 m 568 887 l 821 887 q 880 907 859 887 q 902 955 902 928 q 880 1002 902 982 q 821 1023 859 1023 l 568 1023 q 509 1002 530 1023 q 487 955 487 982 q 509 907 487 928 q 568 887 530 887 m 221 1061 l 473 1061 q 533 1081 511 1061 q 555 1128 555 1101 q 533 1176 555 1156 q 473 1196 511 1196 l 221 1196 q 161 1176 183 1196 q 140 1128 140 1156 q 161 1081 140 1101 q 221 1061 183 1061 m 916 1061 l 1168 1061 q 1227 1081 1206 1061 q 1249 1128 1249 1101 q 1227 1176 1249 1156 q 1168 1196 1206 1196 l 916 1196 q 856 1176 878 1196 q 834 1128 834 1156 q 856 1081 834 1101 q 916 1061 878 1061 z "},"À":{"ha":1389,"x_min":140,"x_max":1249,"o":"m 221 19 l 473 19 q 533 39 511 19 q 555 87 555 60 q 533 134 555 114 q 473 155 511 155 l 221 155 q 161 134 183 155 q 140 87 140 114 q 161 39 140 60 q 221 19 183 19 m 916 19 l 1168 19 q 1227 39 1206 19 q 1249 87 1249 60 q 1227 134 1249 114 q 1168 155 1206 155 l 916 155 q 856 134 878 155 q 834 87 834 114 q 856 39 834 60 q 916 19 878 19 m 221 193 l 1168 193 q 1227 213 1206 193 q 1249 260 1249 233 q 1227 308 1249 288 q 1168 328 1206 328 l 221 328 q 161 308 183 328 q 140 260 140 288 q 161 213 140 233 q 221 193 183 193 m 221 366 l 473 366 q 533 387 511 366 q 555 434 555 407 q 533 481 555 461 q 473 502 511 502 l 221 502 q 161 481 183 502 q 140 434 140 461 q 161 387 140 407 q 221 366 183 366 m 916 366 l 1168 366 q 1227 387 1206 366 q 1249 434 1249 407 q 1227 481 1249 461 q 1168 502 1206 502 l 916 502 q 856 481 878 502 q 834 434 834 461 q 856 387 834 407 q 916 366 878 366 m 395 540 l 994 540 q 1054 560 1032 540 q 1076 608 1076 581 q 1054 655 1076 635 q 994 675 1032 675 l 395 675 q 335 655 357 675 q 313 608 313 635 q 335 560 313 581 q 395 540 357 540 m 568 713 l 821 713 q 880 734 859 713 q 902 781 902 754 q 880 829 902 808 q 821 849 859 849 l 568 849 q 509 829 530 849 q 487 781 487 808 q 509 734 487 754 q 568 713 530 713 m 568 887 l 821 887 q 880 907 859 887 q 902 955 902 928 q 880 1002 902 982 q 821 1023 859 1023 l 568 1023 q 509 1002 530 1023 q 487 955 487 982 q 509 907 487 928 q 568 887 530 887 m 395 1061 l 647 1061 q 707 1081 685 1061 q 728 1128 728 1101 q 707 1176 728 1156 q 647 1196 685 1196 l 395 1196 q 335 1176 357 1196 q 313 1128 313 1156 q 335 1081 313 1101 q 395 1061 357 1061 z "},"Å":{"ha":1389,"x_min":140,"x_max":1249,"o":"m 221 19 l 473 19 q 533 39 511 19 q 555 87 555 60 q 533 134 555 114 q 473 155 511 155 l 221 155 q 161 134 183 155 q 140 87 140 114 q 161 39 140 60 q 221 19 183 19 m 916 19 l 1168 19 q 1227 39 1206 19 q 1249 87 1249 60 q 1227 134 1249 114 q 1168 155 1206 155 l 916 155 q 856 134 878 155 q 834 87 834 114 q 856 39 834 60 q 916 19 878 19 m 221 193 l 1168 193 q 1227 213 1206 193 q 1249 260 1249 233 q 1227 308 1249 288 q 1168 328 1206 328 l 221 328 q 161 308 183 328 q 140 260 140 288 q 161 213 140 233 q 221 193 183 193 m 221 366 l 473 366 q 533 387 511 366 q 555 434 555 407 q 533 481 555 461 q 473 502 511 502 l 221 502 q 161 481 183 502 q 140 434 140 461 q 161 387 140 407 q 221 366 183 366 m 916 366 l 1168 366 q 1227 387 1206 366 q 1249 434 1249 407 q 1227 481 1249 461 q 1168 502 1206 502 l 916 502 q 856 481 878 502 q 834 434 834 461 q 856 387 834 407 q 916 366 878 366 m 395 540 l 994 540 q 1054 560 1032 540 q 1076 608 1076 581 q 1054 655 1076 635 q 994 675 1032 675 l 395 675 q 335 655 357 675 q 313 608 313 635 q 335 560 313 581 q 395 540 357 540 m 568 713 l 821 713 q 880 734 859 713 q 902 781 902 754 q 880 829 902 808 q 821 849 859 849 l 568 849 q 509 829 530 849 q 487 781 487 808 q 509 734 487 754 q 568 713 530 713 m 395 713 l 994 713 q 1054 734 1032 713 q 1076 781 1076 754 q 1054 829 1076 808 q 994 849 1032 849 l 395 849 q 335 829 357 849 q 313 781 313 808 q 335 734 313 754 q 395 713 357 713 m 221 887 l 473 887 q 533 907 511 887 q 555 955 555 928 q 533 1002 555 982 q 473 1023 511 1023 l 221 1023 q 161 1002 183 1023 q 140 955 140 982 q 161 907 140 928 q 221 887 183 887 m 916 887 l 1168 887 q 1227 907 1206 887 q 1249 955 1249 928 q 1227 1002 1249 982 q 1168 1023 1206 1023 l 916 1023 q 856 1002 878 1023 q 834 955 834 982 q 856 907 834 928 q 916 887 878 887 m 395 1061 l 994 1061 q 1054 1081 1032 1061 q 1076 1128 1076 1101 q 1054 1176 1076 1156 q 994 1196 1032 1196 l 395 1196 q 335 1176 357 1196 q 313 1128 313 1156 q 335 1081 313 1101 q 395 1061 357 1061 z "},"Ã":{"ha":1389,"x_min":140,"x_max":1423,"o":"m 221 19 l 473 19 q 533 39 511 19 q 555 87 555 60 q 533 134 555 114 q 473 155 511 155 l 221 155 q 161 134 183 155 q 140 87 140 114 q 161 39 140 60 q 221 19 183 19 m 916 19 l 1168 19 q 1227 39 1206 19 q 1249 87 1249 60 q 1227 134 1249 114 q 1168 155 1206 155 l 916 155 q 856 134 878 155 q 834 87 834 114 q 856 39 834 60 q 916 19 878 19 m 221 193 l 1168 193 q 1227 213 1206 193 q 1249 260 1249 233 q 1227 308 1249 288 q 1168 328 1206 328 l 221 328 q 161 308 183 328 q 140 260 140 288 q 161 213 140 233 q 221 193 183 193 m 221 366 l 473 366 q 533 387 511 366 q 555 434 555 407 q 533 481 555 461 q 473 502 511 502 l 221 502 q 161 481 183 502 q 140 434 140 461 q 161 387 140 407 q 221 366 183 366 m 916 366 l 1168 366 q 1227 387 1206 366 q 1249 434 1249 407 q 1227 481 1249 461 q 1168 502 1206 502 l 916 502 q 856 481 878 502 q 834 434 834 461 q 856 387 834 407 q 916 366 878 366 m 395 540 l 994 540 q 1054 560 1032 540 q 1076 608 1076 581 q 1054 655 1076 635 q 994 675 1032 675 l 395 675 q 335 655 357 675 q 313 608 313 635 q 335 560 313 581 q 395 540 357 540 m 568 713 l 821 713 q 880 734 859 713 q 902 781 902 754 q 880 829 902 808 q 821 849 859 849 l 568 849 q 509 829 530 849 q 487 781 487 808 q 509 734 487 754 q 568 713 530 713 m 221 887 l 473 887 q 533 907 511 887 q 555 955 555 928 q 533 1002 555 982 q 473 1023 511 1023 l 221 1023 q 161 1002 183 1023 q 140 955 140 982 q 161 907 140 928 q 221 887 183 887 m 742 887 l 1168 887 q 1227 907 1206 887 q 1249 955 1249 928 q 1227 1002 1249 982 q 1168 1023 1206 1023 l 742 1023 q 682 1002 704 1023 q 661 955 661 982 q 682 907 661 928 q 742 887 704 887 m 395 1061 l 821 1061 q 880 1081 859 1061 q 902 1128 902 1101 q 880 1176 902 1156 q 821 1196 859 1196 l 395 1196 q 335 1176 357 1196 q 313 1128 313 1156 q 335 1081 313 1101 q 395 1061 357 1061 m 1089 1061 l 1341 1061 q 1401 1081 1379 1061 q 1423 1128 1423 1101 q 1401 1176 1423 1156 q 1341 1196 1379 1196 l 1089 1196 q 1029 1176 1051 1196 q 1008 1128 1008 1156 q 1029 1081 1008 1101 q 1089 1061 1051 1061 z "},"Æ":{"ha":1389,"x_min":140,"x_max":1423,"o":"m 221 19 l 473 19 q 533 39 511 19 q 555 87 555 60 q 533 134 555 114 q 473 155 511 155 l 221 155 q 161 134 183 155 q 140 87 140 114 q 161 39 140 60 q 221 19 183 19 m 742 19 l 1341 19 q 1401 39 1379 19 q 1423 87 1423 60 q 1401 134 1423 114 q 1341 155 1379 155 l 742 155 q 682 134 704 155 q 661 87 661 114 q 682 39 661 60 q 742 19 704 19 m 221 193 l 473 193 q 533 213 511 193 q 555 260 555 233 q 533 308 555 288 q 473 328 511 328 l 221 328 q 161 308 183 328 q 140 260 140 288 q 161 213 140 233 q 221 193 183 193 m 742 193 l 994 193 q 1054 213 1032 193 q 1076 260 1076 233 q 1054 308 1076 288 q 994 328 1032 328 l 742 328 q 682 308 704 328 q 661 260 661 288 q 682 213 661 233 q 742 193 704 193 m 221 366 l 473 366 q 533 387 511 366 q 555 434 555 407 q 533 481 555 461 q 473 502 511 502 l 221 502 q 161 481 183 502 q 140 434 140 461 q 161 387 140 407 q 221 366 183 366 m 742 366 l 994 366 q 1054 387 1032 366 q 1076 434 1076 407 q 1054 481 1076 461 q 994 502 1032 502 l 742 502 q 682 481 704 502 q 661 434 661 461 q 682 387 661 407 q 742 366 704 366 m 221 540 l 1168 540 q 1227 560 1206 540 q 1249 608 1249 581 q 1227 655 1249 635 q 1168 675 1206 675 l 221 675 q 161 655 183 675 q 140 608 140 635 q 161 560 140 581 q 221 540 183 540 m 221 713 l 473 713 q 533 734 511 713 q 555 781 555 754 q 533 829 555 808 q 473 849 511 849 l 221 849 q 161 829 183 849 q 140 781 140 808 q 161 734 140 754 q 221 713 183 713 m 742 713 l 994 713 q 1054 734 1032 713 q 1076 781 1076 754 q 1054 829 1076 808 q 994 849 1032 849 l 742 849 q 682 829 704 849 q 661 781 661 808 q 682 734 661 754 q 742 713 704 713 m 395 887 l 994 887 q 1054 907 1032 887 q 1076 955 1076 928 q 1054 1002 1076 982 q 994 1023 1032 1023 l 395 1023 q 335 1002 357 1023 q 313 955 313 982 q 335 907 313 928 q 395 887 357 887 m 568 1061 l 1341 1061 q 1401 1081 1379 1061 q 1423 1128 1423 1101 q 1401 1176 1423 1156 q 1341 1196 1379 1196 l 568 1196 q 509 1176 530 1196 q 487 1128 487 1156 q 509 1081 487 1101 q 568 1061 530 1061 z "},"B":{"ha":1389,"x_min":140,"x_max":1249,"o":"m 221 19 l 994 19 q 1054 39 1032 19 q 1076 87 1076 60 q 1054 134 1076 114 q 994 155 1032 155 l 221 155 q 161 134 183 155 q 140 87 140 114 q 161 39 140 60 q 221 19 183 19 m 221 193 l 473 193 q 533 213 511 193 q 555 260 555 233 q 533 308 555 288 q 473 328 511 328 l 221 328 q 161 308 183 328 q 140 260 140 288 q 161 213 140 233 q 221 193 183 193 m 916 193 l 1168 193 q 1227 213 1206 193 q 1249 260 1249 233 q 1227 308 1249 288 q 1168 328 1206 328 l 916 328 q 856 308 878 328 q 834 260 834 288 q 856 213 834 233 q 916 193 878 193 m 221 366 l 473 366 q 533 387 511 366 q 555 434 555 407 q 533 481 555 461 q 473 502 511 502 l 221 502 q 161 481 183 502 q 140 434 140 461 q 161 387 140 407 q 221 366 183 366 m 916 366 l 1168 366 q 1227 387 1206 366 q 1249 434 1249 407 q 1227 481 1249 461 q 1168 502 1206 502 l 916 502 q 856 481 878 502 q 834 434 834 461 q 856 387 834 407 q 916 366 878 366 m 221 540 l 994 540 q 1054 560 1032 540 q 1076 608 1076 581 q 1054 655 1076 635 q 994 675 1032 675 l 221 675 q 161 655 183 675 q 140 608 140 635 q 161 560 140 581 q 221 540 183 540 m 221 713 l 473 713 q 533 734 511 713 q 555 781 555 754 q 533 829 555 808 q 473 849 511 849 l 221 849 q 161 829 183 849 q 140 781 140 808 q 161 734 140 754 q 221 713 183 713 m 916 713 l 1168 713 q 1227 734 1206 713 q 1249 781 1249 754 q 1227 829 1249 808 q 1168 849 1206 849 l 916 849 q 856 829 878 849 q 834 781 834 808 q 856 734 834 754 q 916 713 878 713 m 221 887 l 473 887 q 533 907 511 887 q 555 955 555 928 q 533 1002 555 982 q 473 1023 511 1023 l 221 1023 q 161 1002 183 1023 q 140 955 140 982 q 161 907 140 928 q 221 887 183 887 m 916 887 l 1168 887 q 1227 907 1206 887 q 1249 955 1249 928 q 1227 1002 1249 982 q 1168 1023 1206 1023 l 916 1023 q 856 1002 878 1023 q 834 955 834 982 q 856 907 834 928 q 916 887 878 887 m 221 1061 l 994 1061 q 1054 1081 1032 1061 q 1076 1128 1076 1101 q 1054 1176 1076 1156 q 994 1196 1032 1196 l 221 1196 q 161 1176 183 1196 q 140 1128 140 1156 q 161 1081 140 1101 q 221 1061 183 1061 z "},"C":{"ha":1389,"x_min":140,"x_max":1249,"o":"m 395 19 l 994 19 q 1054 39 1032 19 q 1076 87 1076 60 q 1054 134 1076 114 q 994 155 1032 155 l 395 155 q 335 134 357 155 q 313 87 313 114 q 335 39 313 60 q 395 19 357 19 m 221 193 l 473 193 q 533 213 511 193 q 555 260 555 233 q 533 308 555 288 q 473 328 511 328 l 221 328 q 161 308 183 328 q 140 260 140 288 q 161 213 140 233 q 221 193 183 193 m 916 193 l 1168 193 q 1227 213 1206 193 q 1249 260 1249 233 q 1227 308 1249 288 q 1168 328 1206 328 l 916 328 q 856 308 878 328 q 834 260 834 288 q 856 213 834 233 q 916 193 878 193 m 221 366 l 473 366 q 533 387 511 366 q 555 434 555 407 q 533 481 555 461 q 473 502 511 502 l 221 502 q 161 481 183 502 q 140 434 140 461 q 161 387 140 407 q 221 366 183 366 m 221 540 l 473 540 q 533 560 511 540 q 555 608 555 581 q 533 655 555 635 q 473 675 511 675 l 221 675 q 161 655 183 675 q 140 608 140 635 q 161 560 140 581 q 221 540 183 540 m 221 713 l 473 713 q 533 734 511 713 q 555 781 555 754 q 533 829 555 808 q 473 849 511 849 l 221 849 q 161 829 183 849 q 140 781 140 808 q 161 734 140 754 q 221 713 183 713 m 221 887 l 473 887 q 533 907 511 887 q 555 955 555 928 q 533 1002 555 982 q 473 1023 511 1023 l 221 1023 q 161 1002 183 1023 q 140 955 140 982 q 161 907 140 928 q 221 887 183 887 m 916 887 l 1168 887 q 1227 907 1206 887 q 1249 955 1249 928 q 1227 1002 1249 982 q 1168 1023 1206 1023 l 916 1023 q 856 1002 878 1023 q 834 955 834 982 q 856 907 834 928 q 916 887 878 887 m 395 1061 l 994 1061 q 1054 1081 1032 1061 q 1076 1128 1076 1101 q 1054 1176 1076 1156 q 994 1196 1032 1196 l 395 1196 q 335 1176 357 1196 q 313 1128 313 1156 q 335 1081 313 1101 q 395 1061 357 1061 z "},"Ç":{"ha":1389,"x_min":140,"x_max":1249,"o":"m 395 -155 l 647 -155 q 707 -134 685 -155 q 728 -87 728 -114 q 707 -39 728 -60 q 647 -19 685 -19 l 395 -19 q 335 -39 357 -19 q 313 -87 313 -60 q 335 -134 313 -114 q 395 -155 357 -155 m 568 19 l 821 19 q 880 39 859 19 q 902 87 902 60 q 880 134 902 114 q 821 155 859 155 l 568 155 q 509 134 530 155 q 487 87 487 114 q 509 39 487 60 q 568 19 530 19 m 395 193 l 994 193 q 1054 213 1032 193 q 1076 260 1076 233 q 1054 308 1076 288 q 994 328 1032 328 l 395 328 q 335 308 357 328 q 313 260 313 288 q 335 213 313 233 q 395 193 357 193 m 221 366 l 473 366 q 533 387 511 366 q 555 434 555 407 q 533 481 555 461 q 473 502 511 502 l 221 502 q 161 481 183 502 q 140 434 140 461 q 161 387 140 407 q 221 366 183 366 m 916 366 l 1168 366 q 1227 387 1206 366 q 1249 434 1249 407 q 1227 481 1249 461 q 1168 502 1206 502 l 916 502 q 856 481 878 502 q 834 434 834 461 q 856 387 834 407 q 916 366 878 366 m 221 540 l 473 540 q 533 560 511 540 q 555 608 555 581 q 533 655 555 635 q 473 675 511 675 l 221 675 q 161 655 183 675 q 140 608 140 635 q 161 560 140 581 q 221 540 183 540 m 221 713 l 473 713 q 533 734 511 713 q 555 781 555 754 q 533 829 555 808 q 473 849 511 849 l 221 849 q 161 829 183 849 q 140 781 140 808 q 161 734 140 754 q 221 713 183 713 m 221 887 l 473 887 q 533 907 511 887 q 555 955 555 928 q 533 1002 555 982 q 473 1023 511 1023 l 221 1023 q 161 1002 183 1023 q 140 955 140 982 q 161 907 140 928 q 221 887 183 887 m 916 887 l 1168 887 q 1227 907 1206 887 q 1249 955 1249 928 q 1227 1002 1249 982 q 1168 1023 1206 1023 l 916 1023 q 856 1002 878 1023 q 834 955 834 982 q 856 907 834 928 q 916 887 878 887 m 395 1061 l 994 1061 q 1054 1081 1032 1061 q 1076 1128 1076 1101 q 1054 1176 1076 1156 q 994 1196 1032 1196 l 395 1196 q 335 1176 357 1196 q 313 1128 313 1156 q 335 1081 313 1101 q 395 1061 357 1061 z "},"D":{"ha":1389,"x_min":140,"x_max":1249,"o":"m 221 19 l 821 19 q 880 39 859 19 q 902 87 902 60 q 880 134 902 114 q 821 155 859 155 l 221 155 q 161 134 183 155 q 140 87 140 114 q 161 39 140 60 q 221 19 183 19 m 221 193 l 473 193 q 533 213 511 193 q 555 260 555 233 q 533 308 555 288 q 473 328 511 328 l 221 328 q 161 308 183 328 q 140 260 140 288 q 161 213 140 233 q 221 193 183 193 m 742 193 l 994 193 q 1054 213 1032 193 q 1076 260 1076 233 q 1054 308 1076 288 q 994 328 1032 328 l 742 328 q 682 308 704 328 q 661 260 661 288 q 682 213 661 233 q 742 193 704 193 m 221 366 l 473 366 q 533 387 511 366 q 555 434 555 407 q 533 481 555 461 q 473 502 511 502 l 221 502 q 161 481 183 502 q 140 434 140 461 q 161 387 140 407 q 221 366 183 366 m 916 366 l 1168 366 q 1227 387 1206 366 q 1249 434 1249 407 q 1227 481 1249 461 q 1168 502 1206 502 l 916 502 q 856 481 878 502 q 834 434 834 461 q 856 387 834 407 q 916 366 878 366 m 221 540 l 473 540 q 533 560 511 540 q 555 608 555 581 q 533 655 555 635 q 473 675 511 675 l 221 675 q 161 655 183 675 q 140 608 140 635 q 161 560 140 581 q 221 540 183 540 m 916 540 l 1168 540 q 1227 560 1206 540 q 1249 608 1249 581 q 1227 655 1249 635 q 1168 675 1206 675 l 916 675 q 856 655 878 675 q 834 608 834 635 q 856 560 834 581 q 916 540 878 540 m 221 713 l 473 713 q 533 734 511 713 q 555 781 555 754 q 533 829 555 808 q 473 849 511 849 l 221 849 q 161 829 183 849 q 140 781 140 808 q 161 734 140 754 q 221 713 183 713 m 916 713 l 1168 713 q 1227 734 1206 713 q 1249 781 1249 754 q 1227 829 1249 808 q 1168 849 1206 849 l 916 849 q 856 829 878 849 q 834 781 834 808 q 856 734 834 754 q 916 713 878 713 m 221 887 l 473 887 q 533 907 511 887 q 555 955 555 928 q 533 1002 555 982 q 473 1023 511 1023 l 221 1023 q 161 1002 183 1023 q 140 955 140 982 q 161 907 140 928 q 221 887 183 887 m 742 887 l 994 887 q 1054 907 1032 887 q 1076 955 1076 928 q 1054 1002 1076 982 q 994 1023 1032 1023 l 742 1023 q 682 1002 704 1023 q 661 955 661 982 q 682 907 661 928 q 742 887 704 887 m 221 1061 l 821 1061 q 880 1081 859 1061 q 902 1128 902 1101 q 880 1176 902 1156 q 821 1196 859 1196 l 221 1196 q 161 1176 183 1196 q 140 1128 140 1156 q 161 1081 140 1101 q 221 1061 183 1061 z "},"Ð":{"ha":1389,"x_min":-34,"x_max":1249,"o":"m 221 19 l 821 19 q 880 39 859 19 q 902 87 902 60 q 880 134 902 114 q 821 155 859 155 l 221 155 q 161 134 183 155 q 140 87 140 114 q 161 39 140 60 q 221 19 183 19 m 221 193 l 473 193 q 533 213 511 193 q 555 260 555 233 q 533 308 555 288 q 473 328 511 328 l 221 328 q 161 308 183 328 q 140 260 140 288 q 161 213 140 233 q 221 193 183 193 m 742 193 l 994 193 q 1054 213 1032 193 q 1076 260 1076 233 q 1054 308 1076 288 q 994 328 1032 328 l 742 328 q 682 308 704 328 q 661 260 661 288 q 682 213 661 233 q 742 193 704 193 m 221 366 l 473 366 q 533 387 511 366 q 555 434 555 407 q 533 481 555 461 q 473 502 511 502 l 221 502 q 161 481 183 502 q 140 434 140 461 q 161 387 140 407 q 221 366 183 366 m 916 366 l 1168 366 q 1227 387 1206 366 q 1249 434 1249 407 q 1227 481 1249 461 q 1168 502 1206 502 l 916 502 q 856 481 878 502 q 834 434 834 461 q 856 387 834 407 q 916 366 878 366 m 47 540 l 647 540 q 707 560 685 540 q 728 608 728 581 q 707 655 728 635 q 647 675 685 675 l 47 675 q -12 655 9 675 q -34 608 -34 635 q -12 560 -34 581 q 47 540 9 540 m 916 540 l 1168 540 q 1227 560 1206 540 q 1249 608 1249 581 q 1227 655 1249 635 q 1168 675 1206 675 l 916 675 q 856 655 878 675 q 834 608 834 635 q 856 560 834 581 q 916 540 878 540 m 221 713 l 473 713 q 533 734 511 713 q 555 781 555 754 q 533 829 555 808 q 473 849 511 849 l 221 849 q 161 829 183 849 q 140 781 140 808 q 161 734 140 754 q 221 713 183 713 m 916 713 l 1168 713 q 1227 734 1206 713 q 1249 781 1249 754 q 1227 829 1249 808 q 1168 849 1206 849 l 916 849 q 856 829 878 849 q 834 781 834 808 q 856 734 834 754 q 916 713 878 713 m 221 887 l 473 887 q 533 907 511 887 q 555 955 555 928 q 533 1002 555 982 q 473 1023 511 1023 l 221 1023 q 161 1002 183 1023 q 140 955 140 982 q 161 907 140 928 q 221 887 183 887 m 742 887 l 994 887 q 1054 907 1032 887 q 1076 955 1076 928 q 1054 1002 1076 982 q 994 1023 1032 1023 l 742 1023 q 682 1002 704 1023 q 661 955 661 982 q 682 907 661 928 q 742 887 704 887 m 221 1061 l 821 1061 q 880 1081 859 1061 q 902 1128 902 1101 q 880 1176 902 1156 q 821 1196 859 1196 l 221 1196 q 161 1176 183 1196 q 140 1128 140 1156 q 161 1081 140 1101 q 221 1061 183 1061 z "},"E":{"ha":1389,"x_min":140,"x_max":1249,"o":"m 221 19 l 1168 19 q 1227 39 1206 19 q 1249 87 1249 60 q 1227 134 1249 114 q 1168 155 1206 155 l 221 155 q 161 134 183 155 q 140 87 140 114 q 161 39 140 60 q 221 19 183 19 m 221 193 l 473 193 q 533 213 511 193 q 555 260 555 233 q 533 308 555 288 q 473 328 511 328 l 221 328 q 161 308 183 328 q 140 260 140 288 q 161 213 140 233 q 221 193 183 193 m 221 366 l 473 366 q 533 387 511 366 q 555 434 555 407 q 533 481 555 461 q 473 502 511 502 l 221 502 q 161 481 183 502 q 140 434 140 461 q 161 387 140 407 q 221 366 183 366 m 221 540 l 821 540 q 880 560 859 540 q 902 608 902 581 q 880 655 902 635 q 821 675 859 675 l 221 675 q 161 655 183 675 q 140 608 140 635 q 161 560 140 581 q 221 540 183 540 m 221 713 l 473 713 q 533 734 511 713 q 555 781 555 754 q 533 829 555 808 q 473 849 511 849 l 221 849 q 161 829 183 849 q 140 781 140 808 q 161 734 140 754 q 221 713 183 713 m 221 887 l 473 887 q 533 907 511 887 q 555 955 555 928 q 533 1002 555 982 q 473 1023 511 1023 l 221 1023 q 161 1002 183 1023 q 140 955 140 982 q 161 907 140 928 q 221 887 183 887 m 221 1061 l 1168 1061 q 1227 1081 1206 1061 q 1249 1128 1249 1101 q 1227 1176 1249 1156 q 1168 1196 1206 1196 l 221 1196 q 161 1176 183 1196 q 140 1128 140 1156 q 161 1081 140 1101 q 221 1061 183 1061 z "},"É":{"ha":1389,"x_min":140,"x_max":1249,"o":"m 221 19 l 1168 19 q 1227 39 1206 19 q 1249 87 1249 60 q 1227 134 1249 114 q 1168 155 1206 155 l 221 155 q 161 134 183 155 q 140 87 140 114 q 161 39 140 60 q 221 19 183 19 m 221 193 l 473 193 q 533 213 511 193 q 555 260 555 233 q 533 308 555 288 q 473 328 511 328 l 221 328 q 161 308 183 328 q 140 260 140 288 q 161 213 140 233 q 221 193 183 193 m 221 366 l 821 366 q 880 387 859 366 q 902 434 902 407 q 880 481 902 461 q 821 502 859 502 l 221 502 q 161 481 183 502 q 140 434 140 461 q 161 387 140 407 q 221 366 183 366 m 221 540 l 473 540 q 533 560 511 540 q 555 608 555 581 q 533 655 555 635 q 473 675 511 675 l 221 675 q 161 655 183 675 q 140 608 140 635 q 161 560 140 581 q 221 540 183 540 m 221 713 l 1168 713 q 1227 734 1206 713 q 1249 781 1249 754 q 1227 829 1249 808 q 1168 849 1206 849 l 221 849 q 161 829 183 849 q 140 781 140 808 q 161 734 140 754 q 221 713 183 713 m 568 887 l 821 887 q 880 907 859 887 q 902 955 902 928 q 880 1002 902 982 q 821 1023 859 1023 l 568 1023 q 509 1002 530 1023 q 487 955 487 982 q 509 907 487 928 q 568 887 530 887 m 742 1061 l 994 1061 q 1054 1081 1032 1061 q 1076 1128 1076 1101 q 1054 1176 1076 1156 q 994 1196 1032 1196 l 742 1196 q 682 1176 704 1196 q 661 1128 661 1156 q 682 1081 661 1101 q 742 1061 704 1061 z "},"Ê":{"ha":1389,"x_min":140,"x_max":1249,"o":"m 221 19 l 1168 19 q 1227 39 1206 19 q 1249 87 1249 60 q 1227 134 1249 114 q 1168 155 1206 155 l 221 155 q 161 134 183 155 q 140 87 140 114 q 161 39 140 60 q 221 19 183 19 m 221 193 l 473 193 q 533 213 511 193 q 555 260 555 233 q 533 308 555 288 q 473 328 511 328 l 221 328 q 161 308 183 328 q 140 260 140 288 q 161 213 140 233 q 221 193 183 193 m 221 366 l 821 366 q 880 387 859 366 q 902 434 902 407 q 880 481 902 461 q 821 502 859 502 l 221 502 q 161 481 183 502 q 140 434 140 461 q 161 387 140 407 q 221 366 183 366 m 221 540 l 473 540 q 533 560 511 540 q 555 608 555 581 q 533 655 555 635 q 473 675 511 675 l 221 675 q 161 655 183 675 q 140 608 140 635 q 161 560 140 581 q 221 540 183 540 m 221 713 l 1168 713 q 1227 734 1206 713 q 1249 781 1249 754 q 1227 829 1249 808 q 1168 849 1206 849 l 221 849 q 161 829 183 849 q 140 781 140 808 q 161 734 140 754 q 221 713 183 713 m 221 887 l 473 887 q 533 907 511 887 q 555 955 555 928 q 533 1002 555 982 q 473 1023 511 1023 l 221 1023 q 161 1002 183 1023 q 140 955 140 982 q 161 907 140 928 q 221 887 183 887 m 916 887 l 1168 887 q 1227 907 1206 887 q 1249 955 1249 928 q 1227 1002 1249 982 q 1168 1023 1206 1023 l 916 1023 q 856 1002 878 1023 q 834 955 834 982 q 856 907 834 928 q 916 887 878 887 m 395 1061 l 994 1061 q 1054 1081 1032 1061 q 1076 1128 1076 1101 q 1054 1176 1076 1156 q 994 1196 1032 1196 l 395 1196 q 335 1176 357 1196 q 313 1128 313 1156 q 335 1081 313 1101 q 395 1061 357 1061 z "},"Ë":{"ha":1389,"x_min":140,"x_max":1249,"o":"m 221 19 l 1168 19 q 1227 39 1206 19 q 1249 87 1249 60 q 1227 134 1249 114 q 1168 155 1206 155 l 221 155 q 161 134 183 155 q 140 87 140 114 q 161 39 140 60 q 221 19 183 19 m 221 193 l 473 193 q 533 213 511 193 q 555 260 555 233 q 533 308 555 288 q 473 328 511 328 l 221 328 q 161 308 183 328 q 140 260 140 288 q 161 213 140 233 q 221 193 183 193 m 221 366 l 821 366 q 880 387 859 366 q 902 434 902 407 q 880 481 902 461 q 821 502 859 502 l 221 502 q 161 481 183 502 q 140 434 140 461 q 161 387 140 407 q 221 366 183 366 m 221 540 l 473 540 q 533 560 511 540 q 555 608 555 581 q 533 655 555 635 q 473 675 511 675 l 221 675 q 161 655 183 675 q 140 608 140 635 q 161 560 140 581 q 221 540 183 540 m 221 713 l 1168 713 q 1227 734 1206 713 q 1249 781 1249 754 q 1227 829 1249 808 q 1168 849 1206 849 l 221 849 q 161 829 183 849 q 140 781 140 808 q 161 734 140 754 q 221 713 183 713 m 221 1061 l 473 1061 q 533 1081 511 1061 q 555 1128 555 1101 q 533 1176 555 1156 q 473 1196 511 1196 l 221 1196 q 161 1176 183 1196 q 140 1128 140 1156 q 161 1081 140 1101 q 221 1061 183 1061 m 916 1061 l 1168 1061 q 1227 1081 1206 1061 q 1249 1128 1249 1101 q 1227 1176 1249 1156 q 1168 1196 1206 1196 l 916 1196 q 856 1176 878 1196 q 834 1128 834 1156 q 856 1081 834 1101 q 916 1061 878 1061 z "},"È":{"ha":1389,"x_min":140,"x_max":1249,"o":"m 221 19 l 1168 19 q 1227 39 1206 19 q 1249 87 1249 60 q 1227 134 1249 114 q 1168 155 1206 155 l 221 155 q 161 134 183 155 q 140 87 140 114 q 161 39 140 60 q 221 19 183 19 m 221 193 l 473 193 q 533 213 511 193 q 555 260 555 233 q 533 308 555 288 q 473 328 511 328 l 221 328 q 161 308 183 328 q 140 260 140 288 q 161 213 140 233 q 221 193 183 193 m 221 366 l 821 366 q 880 387 859 366 q 902 434 902 407 q 880 481 902 461 q 821 502 859 502 l 221 502 q 161 481 183 502 q 140 434 140 461 q 161 387 140 407 q 221 366 183 366 m 221 540 l 473 540 q 533 560 511 540 q 555 608 555 581 q 533 655 555 635 q 473 675 511 675 l 221 675 q 161 655 183 675 q 140 608 140 635 q 161 560 140 581 q 221 540 183 540 m 221 713 l 1168 713 q 1227 734 1206 713 q 1249 781 1249 754 q 1227 829 1249 808 q 1168 849 1206 849 l 221 849 q 161 829 183 849 q 140 781 140 808 q 161 734 140 754 q 221 713 183 713 m 568 887 l 821 887 q 880 907 859 887 q 902 955 902 928 q 880 1002 902 982 q 821 1023 859 1023 l 568 1023 q 509 1002 530 1023 q 487 955 487 982 q 509 907 487 928 q 568 887 530 887 m 395 1061 l 647 1061 q 707 1081 685 1061 q 728 1128 728 1101 q 707 1176 728 1156 q 647 1196 685 1196 l 395 1196 q 335 1176 357 1196 q 313 1128 313 1156 q 335 1081 313 1101 q 395 1061 357 1061 z "},"F":{"ha":1389,"x_min":140,"x_max":1249,"o":"m 221 19 l 473 19 q 533 39 511 19 q 555 87 555 60 q 533 134 555 114 q 473 155 511 155 l 221 155 q 161 134 183 155 q 140 87 140 114 q 161 39 140 60 q 221 19 183 19 m 221 193 l 473 193 q 533 213 511 193 q 555 260 555 233 q 533 308 555 288 q 473 328 511 328 l 221 328 q 161 308 183 328 q 140 260 140 288 q 161 213 140 233 q 221 193 183 193 m 221 366 l 473 366 q 533 387 511 366 q 555 434 555 407 q 533 481 555 461 q 473 502 511 502 l 221 502 q 161 481 183 502 q 140 434 140 461 q 161 387 140 407 q 221 366 183 366 m 221 540 l 821 540 q 880 560 859 540 q 902 608 902 581 q 880 655 902 635 q 821 675 859 675 l 221 675 q 161 655 183 675 q 140 608 140 635 q 161 560 140 581 q 221 540 183 540 m 221 713 l 473 713 q 533 734 511 713 q 555 781 555 754 q 533 829 555 808 q 473 849 511 849 l 221 849 q 161 829 183 849 q 140 781 140 808 q 161 734 140 754 q 221 713 183 713 m 221 887 l 473 887 q 533 907 511 887 q 555 955 555 928 q 533 1002 555 982 q 473 1023 511 1023 l 221 1023 q 161 1002 183 1023 q 140 955 140 982 q 161 907 140 928 q 221 887 183 887 m 221 1061 l 1168 1061 q 1227 1081 1206 1061 q 1249 1128 1249 1101 q 1227 1176 1249 1156 q 1168 1196 1206 1196 l 221 1196 q 161 1176 183 1196 q 140 1128 140 1156 q 161 1081 140 1101 q 221 1061 183 1061 z "},"G":{"ha":1389,"x_min":140,"x_max":1249,"o":"m 395 19 l 994 19 q 1054 39 1032 19 q 1076 87 1076 60 q 1054 134 1076 114 q 994 155 1032 155 l 395 155 q 335 134 357 155 q 313 87 313 114 q 335 39 313 60 q 395 19 357 19 m 221 193 l 473 193 q 533 213 511 193 q 555 260 555 233 q 533 308 555 288 q 473 328 511 328 l 221 328 q 161 308 183 328 q 140 260 140 288 q 161 213 140 233 q 221 193 183 193 m 916 193 l 1168 193 q 1227 213 1206 193 q 1249 260 1249 233 q 1227 308 1249 288 q 1168 328 1206 328 l 916 328 q 856 308 878 328 q 834 260 834 288 q 856 213 834 233 q 916 193 878 193 m 221 366 l 473 366 q 533 387 511 366 q 555 434 555 407 q 533 481 555 461 q 473 502 511 502 l 221 502 q 161 481 183 502 q 140 434 140 461 q 161 387 140 407 q 221 366 183 366 m 916 366 l 1168 366 q 1227 387 1206 366 q 1249 434 1249 407 q 1227 481 1249 461 q 1168 502 1206 502 l 916 502 q 856 481 878 502 q 834 434 834 461 q 856 387 834 407 q 916 366 878 366 m 221 540 l 473 540 q 533 560 511 540 q 555 608 555 581 q 533 655 555 635 q 473 675 511 675 l 221 675 q 161 655 183 675 q 140 608 140 635 q 161 560 140 581 q 221 540 183 540 m 742 540 l 1168 540 q 1227 560 1206 540 q 1249 608 1249 581 q 1227 655 1249 635 q 1168 675 1206 675 l 742 675 q 682 655 704 675 q 661 608 661 635 q 682 560 661 581 q 742 540 704 540 m 221 713 l 473 713 q 533 734 511 713 q 555 781 555 754 q 533 829 555 808 q 473 849 511 849 l 221 849 q 161 829 183 849 q 140 781 140 808 q 161 734 140 754 q 221 713 183 713 m 221 887 l 473 887 q 533 907 511 887 q 555 955 555 928 q 533 1002 555 982 q 473 1023 511 1023 l 221 1023 q 161 1002 183 1023 q 140 955 140 982 q 161 907 140 928 q 221 887 183 887 m 916 887 l 1168 887 q 1227 907 1206 887 q 1249 955 1249 928 q 1227 1002 1249 982 q 1168 1023 1206 1023 l 916 1023 q 856 1002 878 1023 q 834 955 834 982 q 856 907 834 928 q 916 887 878 887 m 395 1061 l 994 1061 q 1054 1081 1032 1061 q 1076 1128 1076 1101 q 1054 1176 1076 1156 q 994 1196 1032 1196 l 395 1196 q 335 1176 357 1196 q 313 1128 313 1156 q 335 1081 313 1101 q 395 1061 357 1061 z "},"H":{"ha":1389,"x_min":140,"x_max":1249,"o":"m 221 19 l 473 19 q 533 39 511 19 q 555 87 555 60 q 533 134 555 114 q 473 155 511 155 l 221 155 q 161 134 183 155 q 140 87 140 114 q 161 39 140 60 q 221 19 183 19 m 916 19 l 1168 19 q 1227 39 1206 19 q 1249 87 1249 60 q 1227 134 1249 114 q 1168 155 1206 155 l 916 155 q 856 134 878 155 q 834 87 834 114 q 856 39 834 60 q 916 19 878 19 m 221 193 l 473 193 q 533 213 511 193 q 555 260 555 233 q 533 308 555 288 q 473 328 511 328 l 221 328 q 161 308 183 328 q 140 260 140 288 q 161 213 140 233 q 221 193 183 193 m 916 193 l 1168 193 q 1227 213 1206 193 q 1249 260 1249 233 q 1227 308 1249 288 q 1168 328 1206 328 l 916 328 q 856 308 878 328 q 834 260 834 288 q 856 213 834 233 q 916 193 878 193 m 221 366 l 473 366 q 533 387 511 366 q 555 434 555 407 q 533 481 555 461 q 473 502 511 502 l 221 502 q 161 481 183 502 q 140 434 140 461 q 161 387 140 407 q 221 366 183 366 m 916 366 l 1168 366 q 1227 387 1206 366 q 1249 434 1249 407 q 1227 481 1249 461 q 1168 502 1206 502 l 916 502 q 856 481 878 502 q 834 434 834 461 q 856 387 834 407 q 916 366 878 366 m 221 540 l 1168 540 q 1227 560 1206 540 q 1249 608 1249 581 q 1227 655 1249 635 q 1168 675 1206 675 l 221 675 q 161 655 183 675 q 140 608 140 635 q 161 560 140 581 q 221 540 183 540 m 221 713 l 473 713 q 533 734 511 713 q 555 781 555 754 q 533 829 555 808 q 473 849 511 849 l 221 849 q 161 829 183 849 q 140 781 140 808 q 161 734 140 754 q 221 713 183 713 m 916 713 l 1168 713 q 1227 734 1206 713 q 1249 781 1249 754 q 1227 829 1249 808 q 1168 849 1206 849 l 916 849 q 856 829 878 849 q 834 781 834 808 q 856 734 834 754 q 916 713 878 713 m 221 887 l 473 887 q 533 907 511 887 q 555 955 555 928 q 533 1002 555 982 q 473 1023 511 1023 l 221 1023 q 161 1002 183 1023 q 140 955 140 982 q 161 907 140 928 q 221 887 183 887 m 916 887 l 1168 887 q 1227 907 1206 887 q 1249 955 1249 928 q 1227 1002 1249 982 q 1168 1023 1206 1023 l 916 1023 q 856 1002 878 1023 q 834 955 834 982 q 856 907 834 928 q 916 887 878 887 m 221 1061 l 473 1061 q 533 1081 511 1061 q 555 1128 555 1101 q 533 1176 555 1156 q 473 1196 511 1196 l 221 1196 q 161 1176 183 1196 q 140 1128 140 1156 q 161 1081 140 1101 q 221 1061 183 1061 m 916 1061 l 1168 1061 q 1227 1081 1206 1061 q 1249 1128 1249 1101 q 1227 1176 1249 1156 q 1168 1196 1206 1196 l 916 1196 q 856 1176 878 1196 q 834 1128 834 1156 q 856 1081 834 1101 q 916 1061 878 1061 z "},"I":{"ha":1389,"x_min":313,"x_max":1076,"o":"m 395 19 l 994 19 q 1054 39 1032 19 q 1076 87 1076 60 q 1054 134 1076 114 q 994 155 1032 155 l 395 155 q 335 134 357 155 q 313 87 313 114 q 335 39 313 60 q 395 19 357 19 m 568 193 l 821 193 q 880 213 859 193 q 902 260 902 233 q 880 308 902 288 q 821 328 859 328 l 568 328 q 509 308 530 328 q 487 260 487 288 q 509 213 487 233 q 568 193 530 193 m 568 366 l 821 366 q 880 387 859 366 q 902 434 902 407 q 880 481 902 461 q 821 502 859 502 l 568 502 q 509 481 530 502 q 487 434 487 461 q 509 387 487 407 q 568 366 530 366 m 568 540 l 821 540 q 880 560 859 540 q 902 608 902 581 q 880 655 902 635 q 821 675 859 675 l 568 675 q 509 655 530 675 q 487 608 487 635 q 509 560 487 581 q 568 540 530 540 m 568 713 l 821 713 q 880 734 859 713 q 902 781 902 754 q 880 829 902 808 q 821 849 859 849 l 568 849 q 509 829 530 849 q 487 781 487 808 q 509 734 487 754 q 568 713 530 713 m 568 887 l 821 887 q 880 907 859 887 q 902 955 902 928 q 880 1002 902 982 q 821 1023 859 1023 l 568 1023 q 509 1002 530 1023 q 487 955 487 982 q 509 907 487 928 q 568 887 530 887 m 395 1061 l 994 1061 q 1054 1081 1032 1061 q 1076 1128 1076 1101 q 1054 1176 1076 1156 q 994 1196 1032 1196 l 395 1196 q 335 1176 357 1196 q 313 1128 313 1156 q 335 1081 313 1101 q 395 1061 357 1061 z "},"Í":{"ha":1389,"x_min":313,"x_max":1076,"o":"m 395 19 l 994 19 q 1054 39 1032 19 q 1076 87 1076 60 q 1054 134 1076 114 q 994 155 1032 155 l 395 155 q 335 134 357 155 q 313 87 313 114 q 335 39 313 60 q 395 19 357 19 m 568 193 l 821 193 q 880 213 859 193 q 902 260 902 233 q 880 308 902 288 q 821 328 859 328 l 568 328 q 509 308 530 328 q 487 260 487 288 q 509 213 487 233 q 568 193 530 193 m 568 366 l 821 366 q 880 387 859 366 q 902 434 902 407 q 880 481 902 461 q 821 502 859 502 l 568 502 q 509 481 530 502 q 487 434 487 461 q 509 387 487 407 q 568 366 530 366 m 395 540 l 994 540 q 1054 560 1032 540 q 1076 608 1076 581 q 1054 655 1076 635 q 994 675 1032 675 l 395 675 q 335 655 357 675 q 313 608 313 635 q 335 560 313 581 q 395 540 357 540 m 568 887 l 821 887 q 880 907 859 887 q 902 955 902 928 q 880 1002 902 982 q 821 1023 859 1023 l 568 1023 q 509 1002 530 1023 q 487 955 487 982 q 509 907 487 928 q 568 887 530 887 m 742 1061 l 994 1061 q 1054 1081 1032 1061 q 1076 1128 1076 1101 q 1054 1176 1076 1156 q 994 1196 1032 1196 l 742 1196 q 682 1176 704 1196 q 661 1128 661 1156 q 682 1081 661 1101 q 742 1061 704 1061 z "},"Î":{"ha":1389,"x_min":140,"x_max":1249,"o":"m 395 19 l 994 19 q 1054 39 1032 19 q 1076 87 1076 60 q 1054 134 1076 114 q 994 155 1032 155 l 395 155 q 335 134 357 155 q 313 87 313 114 q 335 39 313 60 q 395 19 357 19 m 568 193 l 821 193 q 880 213 859 193 q 902 260 902 233 q 880 308 902 288 q 821 328 859 328 l 568 328 q 509 308 530 328 q 487 260 487 288 q 509 213 487 233 q 568 193 530 193 m 568 366 l 821 366 q 880 387 859 366 q 902 434 902 407 q 880 481 902 461 q 821 502 859 502 l 568 502 q 509 481 530 502 q 487 434 487 461 q 509 387 487 407 q 568 366 530 366 m 395 540 l 994 540 q 1054 560 1032 540 q 1076 608 1076 581 q 1054 655 1076 635 q 994 675 1032 675 l 395 675 q 335 655 357 675 q 313 608 313 635 q 335 560 313 581 q 395 540 357 540 m 221 887 l 473 887 q 533 907 511 887 q 555 955 555 928 q 533 1002 555 982 q 473 1023 511 1023 l 221 1023 q 161 1002 183 1023 q 140 955 140 982 q 161 907 140 928 q 221 887 183 887 m 916 887 l 1168 887 q 1227 907 1206 887 q 1249 955 1249 928 q 1227 1002 1249 982 q 1168 1023 1206 1023 l 916 1023 q 856 1002 878 1023 q 834 955 834 982 q 856 907 834 928 q 916 887 878 887 m 395 1061 l 994 1061 q 1054 1081 1032 1061 q 1076 1128 1076 1101 q 1054 1176 1076 1156 q 994 1196 1032 1196 l 395 1196 q 335 1176 357 1196 q 313 1128 313 1156 q 335 1081 313 1101 q 395 1061 357 1061 z "},"Ï":{"ha":1389,"x_min":140,"x_max":1249,"o":"m 395 19 l 994 19 q 1054 39 1032 19 q 1076 87 1076 60 q 1054 134 1076 114 q 994 155 1032 155 l 395 155 q 335 134 357 155 q 313 87 313 114 q 335 39 313 60 q 395 19 357 19 m 568 193 l 821 193 q 880 213 859 193 q 902 260 902 233 q 880 308 902 288 q 821 328 859 328 l 568 328 q 509 308 530 328 q 487 260 487 288 q 509 213 487 233 q 568 193 530 193 m 568 366 l 821 366 q 880 387 859 366 q 902 434 902 407 q 880 481 902 461 q 821 502 859 502 l 568 502 q 509 481 530 502 q 487 434 487 461 q 509 387 487 407 q 568 366 530 366 m 568 540 l 821 540 q 880 560 859 540 q 902 608 902 581 q 880 655 902 635 q 821 675 859 675 l 568 675 q 509 655 530 675 q 487 608 487 635 q 509 560 487 581 q 568 540 530 540 m 395 713 l 994 713 q 1054 734 1032 713 q 1076 781 1076 754 q 1054 829 1076 808 q 994 849 1032 849 l 395 849 q 335 829 357 849 q 313 781 313 808 q 335 734 313 754 q 395 713 357 713 m 221 1061 l 473 1061 q 533 1081 511 1061 q 555 1128 555 1101 q 533 1176 555 1156 q 473 1196 511 1196 l 221 1196 q 161 1176 183 1196 q 140 1128 140 1156 q 161 1081 140 1101 q 221 1061 183 1061 m 916 1061 l 1168 1061 q 1227 1081 1206 1061 q 1249 1128 1249 1101 q 1227 1176 1249 1156 q 1168 1196 1206 1196 l 916 1196 q 856 1176 878 1196 q 834 1128 834 1156 q 856 1081 834 1101 q 916 1061 878 1061 z "},"Ì":{"ha":1389,"x_min":313,"x_max":1076,"o":"m 395 19 l 994 19 q 1054 39 1032 19 q 1076 87 1076 60 q 1054 134 1076 114 q 994 155 1032 155 l 395 155 q 335 134 357 155 q 313 87 313 114 q 335 39 313 60 q 395 19 357 19 m 568 193 l 821 193 q 880 213 859 193 q 902 260 902 233 q 880 308 902 288 q 821 328 859 328 l 568 328 q 509 308 530 328 q 487 260 487 288 q 509 213 487 233 q 568 193 530 193 m 568 366 l 821 366 q 880 387 859 366 q 902 434 902 407 q 880 481 902 461 q 821 502 859 502 l 568 502 q 509 481 530 502 q 487 434 487 461 q 509 387 487 407 q 568 366 530 366 m 395 540 l 994 540 q 1054 560 1032 540 q 1076 608 1076 581 q 1054 655 1076 635 q 994 675 1032 675 l 395 675 q 335 655 357 675 q 313 608 313 635 q 335 560 313 581 q 395 540 357 540 m 568 887 l 821 887 q 880 907 859 887 q 902 955 902 928 q 880 1002 902 982 q 821 1023 859 1023 l 568 1023 q 509 1002 530 1023 q 487 955 487 982 q 509 907 487 928 q 568 887 530 887 m 395 1061 l 647 1061 q 707 1081 685 1061 q 728 1128 728 1101 q 707 1176 728 1156 q 647 1196 685 1196 l 395 1196 q 335 1176 357 1196 q 313 1128 313 1156 q 335 1081 313 1101 q 395 1061 357 1061 z "},"J":{"ha":1389,"x_min":140,"x_max":1249,"o":"m 395 19 l 821 19 q 880 39 859 19 q 902 87 902 60 q 880 134 902 114 q 821 155 859 155 l 395 155 q 335 134 357 155 q 313 87 313 114 q 335 39 313 60 q 395 19 357 19 m 221 193 l 473 193 q 533 213 511 193 q 555 260 555 233 q 533 308 555 288 q 473 328 511 328 l 221 328 q 161 308 183 328 q 140 260 140 288 q 161 213 140 233 q 221 193 183 193 m 742 193 l 994 193 q 1054 213 1032 193 q 1076 260 1076 233 q 1054 308 1076 288 q 994 328 1032 328 l 742 328 q 682 308 704 328 q 661 260 661 288 q 682 213 661 233 q 742 193 704 193 m 742 366 l 994 366 q 1054 387 1032 366 q 1076 434 1076 407 q 1054 481 1076 461 q 994 502 1032 502 l 742 502 q 682 481 704 502 q 661 434 661 461 q 682 387 661 407 q 742 366 704 366 m 742 540 l 994 540 q 1054 560 1032 540 q 1076 608 1076 581 q 1054 655 1076 635 q 994 675 1032 675 l 742 675 q 682 655 704 675 q 661 608 661 635 q 682 560 661 581 q 742 540 704 540 m 742 713 l 994 713 q 1054 734 1032 713 q 1076 781 1076 754 q 1054 829 1076 808 q 994 849 1032 849 l 742 849 q 682 829 704 849 q 661 781 661 808 q 682 734 661 754 q 742 713 704 713 m 742 887 l 994 887 q 1054 907 1032 887 q 1076 955 1076 928 q 1054 1002 1076 982 q 994 1023 1032 1023 l 742 1023 q 682 1002 704 1023 q 661 955 661 982 q 682 907 661 928 q 742 887 704 887 m 568 1061 l 1168 1061 q 1227 1081 1206 1061 q 1249 1128 1249 1101 q 1227 1176 1249 1156 q 1168 1196 1206 1196 l 568 1196 q 509 1176 530 1196 q 487 1128 487 1156 q 509 1081 487 1101 q 568 1061 530 1061 z "},"K":{"ha":1389,"x_min":140,"x_max":1249,"o":"m 221 19 l 473 19 q 533 39 511 19 q 555 87 555 60 q 533 134 555 114 q 473 155 511 155 l 221 155 q 161 134 183 155 q 140 87 140 114 q 161 39 140 60 q 221 19 183 19 m 916 19 l 1168 19 q 1227 39 1206 19 q 1249 87 1249 60 q 1227 134 1249 114 q 1168 155 1206 155 l 916 155 q 856 134 878 155 q 834 87 834 114 q 856 39 834 60 q 916 19 878 19 m 221 193 l 473 193 q 533 213 511 193 q 555 260 555 233 q 533 308 555 288 q 473 328 511 328 l 221 328 q 161 308 183 328 q 140 260 140 288 q 161 213 140 233 q 221 193 183 193 m 742 193 l 994 193 q 1054 213 1032 193 q 1076 260 1076 233 q 1054 308 1076 288 q 994 328 1032 328 l 742 328 q 682 308 704 328 q 661 260 661 288 q 682 213 661 233 q 742 193 704 193 m 221 366 l 821 366 q 880 387 859 366 q 902 434 902 407 q 880 481 902 461 q 821 502 859 502 l 221 502 q 161 481 183 502 q 140 434 140 461 q 161 387 140 407 q 221 366 183 366 m 221 540 l 647 540 q 707 560 685 540 q 728 608 728 581 q 707 655 728 635 q 647 675 685 675 l 221 675 q 161 655 183 675 q 140 608 140 635 q 161 560 140 581 q 221 540 183 540 m 221 713 l 821 713 q 880 734 859 713 q 902 781 902 754 q 880 829 902 808 q 821 849 859 849 l 221 849 q 161 829 183 849 q 140 781 140 808 q 161 734 140 754 q 221 713 183 713 m 221 887 l 473 887 q 533 907 511 887 q 555 955 555 928 q 533 1002 555 982 q 473 1023 511 1023 l 221 1023 q 161 1002 183 1023 q 140 955 140 982 q 161 907 140 928 q 221 887 183 887 m 742 887 l 994 887 q 1054 907 1032 887 q 1076 955 1076 928 q 1054 1002 1076 982 q 994 1023 1032 1023 l 742 1023 q 682 1002 704 1023 q 661 955 661 982 q 682 907 661 928 q 742 887 704 887 m 221 1061 l 473 1061 q 533 1081 511 1061 q 555 1128 555 1101 q 533 1176 555 1156 q 473 1196 511 1196 l 221 1196 q 161 1176 183 1196 q 140 1128 140 1156 q 161 1081 140 1101 q 221 1061 183 1061 m 916 1061 l 1168 1061 q 1227 1081 1206 1061 q 1249 1128 1249 1101 q 1227 1176 1249 1156 q 1168 1196 1206 1196 l 916 1196 q 856 1176 878 1196 q 834 1128 834 1156 q 856 1081 834 1101 q 916 1061 878 1061 z "},"L":{"ha":1389,"x_min":140,"x_max":1249,"o":"m 221 19 l 1168 19 q 1227 39 1206 19 q 1249 87 1249 60 q 1227 134 1249 114 q 1168 155 1206 155 l 221 155 q 161 134 183 155 q 140 87 140 114 q 161 39 140 60 q 221 19 183 19 m 221 193 l 473 193 q 533 213 511 193 q 555 260 555 233 q 533 308 555 288 q 473 328 511 328 l 221 328 q 161 308 183 328 q 140 260 140 288 q 161 213 140 233 q 221 193 183 193 m 221 366 l 473 366 q 533 387 511 366 q 555 434 555 407 q 533 481 555 461 q 473 502 511 502 l 221 502 q 161 481 183 502 q 140 434 140 461 q 161 387 140 407 q 221 366 183 366 m 221 540 l 473 540 q 533 560 511 540 q 555 608 555 581 q 533 655 555 635 q 473 675 511 675 l 221 675 q 161 655 183 675 q 140 608 140 635 q 161 560 140 581 q 221 540 183 540 m 221 713 l 473 713 q 533 734 511 713 q 555 781 555 754 q 533 829 555 808 q 473 849 511 849 l 221 849 q 161 829 183 849 q 140 781 140 808 q 161 734 140 754 q 221 713 183 713 m 221 887 l 473 887 q 533 907 511 887 q 555 955 555 928 q 533 1002 555 982 q 473 1023 511 1023 l 221 1023 q 161 1002 183 1023 q 140 955 140 982 q 161 907 140 928 q 221 887 183 887 m 221 1061 l 473 1061 q 533 1081 511 1061 q 555 1128 555 1101 q 533 1176 555 1156 q 473 1196 511 1196 l 221 1196 q 161 1176 183 1196 q 140 1128 140 1156 q 161 1081 140 1101 q 221 1061 183 1061 z "},"M":{"ha":1389,"x_min":140,"x_max":1423,"o":"m 221 19 l 473 19 q 533 39 511 19 q 555 87 555 60 q 533 134 555 114 q 473 155 511 155 l 221 155 q 161 134 183 155 q 140 87 140 114 q 161 39 140 60 q 221 19 183 19 m 1089 19 l 1341 19 q 1401 39 1379 19 q 1423 87 1423 60 q 1401 134 1423 114 q 1341 155 1379 155 l 1089 155 q 1029 134 1051 155 q 1008 87 1008 114 q 1029 39 1008 60 q 1089 19 1051 19 m 221 193 l 473 193 q 533 213 511 193 q 555 260 555 233 q 533 308 555 288 q 473 328 511 328 l 221 328 q 161 308 183 328 q 140 260 140 288 q 161 213 140 233 q 221 193 183 193 m 1089 193 l 1341 193 q 1401 213 1379 193 q 1423 260 1423 233 q 1401 308 1423 288 q 1341 328 1379 328 l 1089 328 q 1029 308 1051 328 q 1008 260 1008 288 q 1029 213 1008 233 q 1089 193 1051 193 m 221 366 l 473 366 q 533 387 511 366 q 555 434 555 407 q 533 481 555 461 q 473 502 511 502 l 221 502 q 161 481 183 502 q 140 434 140 461 q 161 387 140 407 q 221 366 183 366 m 1089 366 l 1341 366 q 1401 387 1379 366 q 1423 434 1423 407 q 1401 481 1423 461 q 1341 502 1379 502 l 1089 502 q 1029 481 1051 502 q 1008 434 1008 461 q 1029 387 1008 407 q 1089 366 1051 366 m 221 540 l 473 540 q 533 560 511 540 q 555 608 555 581 q 533 655 555 635 q 473 675 511 675 l 221 675 q 161 655 183 675 q 140 608 140 635 q 161 560 140 581 q 221 540 183 540 m 730 540 l 833 540 q 882 560 863 540 q 902 608 902 581 q 882 655 902 635 q 833 675 863 675 l 730 675 q 680 655 700 675 q 661 608 661 635 q 680 560 661 581 q 730 540 700 540 m 1089 540 l 1341 540 q 1401 560 1379 540 q 1423 608 1423 581 q 1401 655 1423 635 q 1341 675 1379 675 l 1089 675 q 1029 655 1051 675 q 1008 608 1008 635 q 1029 560 1008 581 q 1089 540 1051 540 m 221 713 l 1341 713 q 1401 734 1379 713 q 1423 781 1423 754 q 1401 829 1423 808 q 1341 849 1379 849 l 221 849 q 161 829 183 849 q 140 781 140 808 q 161 734 140 754 q 221 713 183 713 m 221 887 l 647 887 q 707 907 685 887 q 728 955 728 928 q 707 1002 728 982 q 647 1023 685 1023 l 221 1023 q 161 1002 183 1023 q 140 955 140 982 q 161 907 140 928 q 221 887 183 887 m 916 887 l 1341 887 q 1401 907 1379 887 q 1423 955 1423 928 q 1401 1002 1423 982 q 1341 1023 1379 1023 l 916 1023 q 856 1002 878 1023 q 834 955 834 982 q 856 907 834 928 q 916 887 878 887 m 221 1061 l 473 1061 q 533 1081 511 1061 q 555 1128 555 1101 q 533 1176 555 1156 q 473 1196 511 1196 l 221 1196 q 161 1176 183 1196 q 140 1128 140 1156 q 161 1081 140 1101 q 221 1061 183 1061 m 1089 1061 l 1341 1061 q 1401 1081 1379 1061 q 1423 1128 1423 1101 q 1401 1176 1423 1156 q 1341 1196 1379 1196 l 1089 1196 q 1029 1176 1051 1196 q 1008 1128 1008 1156 q 1029 1081 1008 1101 q 1089 1061 1051 1061 z "},"N":{"ha":1389,"x_min":140,"x_max":1249,"o":"m 221 19 l 473 19 q 533 39 511 19 q 555 87 555 60 q 533 134 555 114 q 473 155 511 155 l 221 155 q 161 134 183 155 q 140 87 140 114 q 161 39 140 60 q 221 19 183 19 m 916 19 l 1168 19 q 1227 39 1206 19 q 1249 87 1249 60 q 1227 134 1249 114 q 1168 155 1206 155 l 916 155 q 856 134 878 155 q 834 87 834 114 q 856 39 834 60 q 916 19 878 19 m 221 193 l 473 193 q 533 213 511 193 q 555 260 555 233 q 533 308 555 288 q 473 328 511 328 l 221 328 q 161 308 183 328 q 140 260 140 288 q 161 213 140 233 q 221 193 183 193 m 916 193 l 1168 193 q 1227 213 1206 193 q 1249 260 1249 233 q 1227 308 1249 288 q 1168 328 1206 328 l 916 328 q 856 308 878 328 q 834 260 834 288 q 856 213 834 233 q 916 193 878 193 m 221 366 l 473 366 q 533 387 511 366 q 555 434 555 407 q 533 481 555 461 q 473 502 511 502 l 221 502 q 161 481 183 502 q 140 434 140 461 q 161 387 140 407 q 221 366 183 366 m 916 366 l 1168 366 q 1227 387 1206 366 q 1249 434 1249 407 q 1227 481 1249 461 q 1168 502 1206 502 l 916 502 q 856 481 878 502 q 834 434 834 461 q 856 387 834 407 q 916 366 878 366 m 221 540 l 473 540 q 533 560 511 540 q 555 608 555 581 q 533 655 555 635 q 473 675 511 675 l 221 675 q 161 655 183 675 q 140 608 140 635 q 161 560 140 581 q 221 540 183 540 m 742 540 l 1168 540 q 1227 560 1206 540 q 1249 608 1249 581 q 1227 655 1249 635 q 1168 675 1206 675 l 742 675 q 682 655 704 675 q 661 608 661 635 q 682 560 661 581 q 742 540 704 540 m 221 713 l 1168 713 q 1227 734 1206 713 q 1249 781 1249 754 q 1227 829 1249 808 q 1168 849 1206 849 l 221 849 q 161 829 183 849 q 140 781 140 808 q 161 734 140 754 q 221 713 183 713 m 221 887 l 647 887 q 707 907 685 887 q 728 955 728 928 q 707 1002 728 982 q 647 1023 685 1023 l 221 1023 q 161 1002 183 1023 q 140 955 140 982 q 161 907 140 928 q 221 887 183 887 m 916 887 l 1168 887 q 1227 907 1206 887 q 1249 955 1249 928 q 1227 1002 1249 982 q 1168 1023 1206 1023 l 916 1023 q 856 1002 878 1023 q 834 955 834 982 q 856 907 834 928 q 916 887 878 887 m 221 1061 l 473 1061 q 533 1081 511 1061 q 555 1128 555 1101 q 533 1176 555 1156 q 473 1196 511 1196 l 221 1196 q 161 1176 183 1196 q 140 1128 140 1156 q 161 1081 140 1101 q 221 1061 183 1061 m 916 1061 l 1168 1061 q 1227 1081 1206 1061 q 1249 1128 1249 1101 q 1227 1176 1249 1156 q 1168 1196 1206 1196 l 916 1196 q 856 1176 878 1196 q 834 1128 834 1156 q 856 1081 834 1101 q 916 1061 878 1061 z "},"Ñ":{"ha":1389,"x_min":140,"x_max":1423,"o":"m 221 19 l 473 19 q 533 39 511 19 q 555 87 555 60 q 533 134 555 114 q 473 155 511 155 l 221 155 q 161 134 183 155 q 140 87 140 114 q 161 39 140 60 q 221 19 183 19 m 916 19 l 1168 19 q 1227 39 1206 19 q 1249 87 1249 60 q 1227 134 1249 114 q 1168 155 1206 155 l 916 155 q 856 134 878 155 q 834 87 834 114 q 856 39 834 60 q 916 19 878 19 m 221 193 l 473 193 q 533 213 511 193 q 555 260 555 233 q 533 308 555 288 q 473 328 511 328 l 221 328 q 161 308 183 328 q 140 260 140 288 q 161 213 140 233 q 221 193 183 193 m 742 193 l 1168 193 q 1227 213 1206 193 q 1249 260 1249 233 q 1227 308 1249 288 q 1168 328 1206 328 l 742 328 q 682 308 704 328 q 661 260 661 288 q 682 213 661 233 q 742 193 704 193 m 221 366 l 1168 366 q 1227 387 1206 366 q 1249 434 1249 407 q 1227 481 1249 461 q 1168 502 1206 502 l 221 502 q 161 481 183 502 q 140 434 140 461 q 161 387 140 407 q 221 366 183 366 m 221 540 l 647 540 q 707 560 685 540 q 728 608 728 581 q 707 655 728 635 q 647 675 685 675 l 221 675 q 161 655 183 675 q 140 608 140 635 q 161 560 140 581 q 221 540 183 540 m 916 540 l 1168 540 q 1227 560 1206 540 q 1249 608 1249 581 q 1227 655 1249 635 q 1168 675 1206 675 l 916 675 q 856 655 878 675 q 834 608 834 635 q 856 560 834 581 q 916 540 878 540 m 221 713 l 473 713 q 533 734 511 713 q 555 781 555 754 q 533 829 555 808 q 473 849 511 849 l 221 849 q 161 829 183 849 q 140 781 140 808 q 161 734 140 754 q 221 713 183 713 m 916 713 l 1168 713 q 1227 734 1206 713 q 1249 781 1249 754 q 1227 829 1249 808 q 1168 849 1206 849 l 916 849 q 856 829 878 849 q 834 781 834 808 q 856 734 834 754 q 916 713 878 713 m 221 887 l 473 887 q 533 907 511 887 q 555 955 555 928 q 533 1002 555 982 q 473 1023 511 1023 l 221 1023 q 161 1002 183 1023 q 140 955 140 982 q 161 907 140 928 q 221 887 183 887 m 742 887 l 1168 887 q 1227 907 1206 887 q 1249 955 1249 928 q 1227 1002 1249 982 q 1168 1023 1206 1023 l 742 1023 q 682 1002 704 1023 q 661 955 661 982 q 682 907 661 928 q 742 887 704 887 m 395 1061 l 821 1061 q 880 1081 859 1061 q 902 1128 902 1101 q 880 1176 902 1156 q 821 1196 859 1196 l 395 1196 q 335 1176 357 1196 q 313 1128 313 1156 q 335 1081 313 1101 q 395 1061 357 1061 m 1089 1061 l 1341 1061 q 1401 1081 1379 1061 q 1423 1128 1423 1101 q 1401 1176 1423 1156 q 1341 1196 1379 1196 l 1089 1196 q 1029 1176 1051 1196 q 1008 1128 1008 1156 q 1029 1081 1008 1101 q 1089 1061 1051 1061 z "},"O":{"ha":1389,"x_min":140,"x_max":1249,"o":"m 395 19 l 994 19 q 1054 39 1032 19 q 1076 87 1076 60 q 1054 134 1076 114 q 994 155 1032 155 l 395 155 q 335 134 357 155 q 313 87 313 114 q 335 39 313 60 q 395 19 357 19 m 221 193 l 473 193 q 533 213 511 193 q 555 260 555 233 q 533 308 555 288 q 473 328 511 328 l 221 328 q 161 308 183 328 q 140 260 140 288 q 161 213 140 233 q 221 193 183 193 m 916 193 l 1168 193 q 1227 213 1206 193 q 1249 260 1249 233 q 1227 308 1249 288 q 1168 328 1206 328 l 916 328 q 856 308 878 328 q 834 260 834 288 q 856 213 834 233 q 916 193 878 193 m 221 366 l 473 366 q 533 387 511 366 q 555 434 555 407 q 533 481 555 461 q 473 502 511 502 l 221 502 q 161 481 183 502 q 140 434 140 461 q 161 387 140 407 q 221 366 183 366 m 916 366 l 1168 366 q 1227 387 1206 366 q 1249 434 1249 407 q 1227 481 1249 461 q 1168 502 1206 502 l 916 502 q 856 481 878 502 q 834 434 834 461 q 856 387 834 407 q 916 366 878 366 m 221 540 l 473 540 q 533 560 511 540 q 555 608 555 581 q 533 655 555 635 q 473 675 511 675 l 221 675 q 161 655 183 675 q 140 608 140 635 q 161 560 140 581 q 221 540 183 540 m 916 540 l 1168 540 q 1227 560 1206 540 q 1249 608 1249 581 q 1227 655 1249 635 q 1168 675 1206 675 l 916 675 q 856 655 878 675 q 834 608 834 635 q 856 560 834 581 q 916 540 878 540 m 221 713 l 473 713 q 533 734 511 713 q 555 781 555 754 q 533 829 555 808 q 473 849 511 849 l 221 849 q 161 829 183 849 q 140 781 140 808 q 161 734 140 754 q 221 713 183 713 m 916 713 l 1168 713 q 1227 734 1206 713 q 1249 781 1249 754 q 1227 829 1249 808 q 1168 849 1206 849 l 916 849 q 856 829 878 849 q 834 781 834 808 q 856 734 834 754 q 916 713 878 713 m 221 887 l 473 887 q 533 907 511 887 q 555 955 555 928 q 533 1002 555 982 q 473 1023 511 1023 l 221 1023 q 161 1002 183 1023 q 140 955 140 982 q 161 907 140 928 q 221 887 183 887 m 916 887 l 1168 887 q 1227 907 1206 887 q 1249 955 1249 928 q 1227 1002 1249 982 q 1168 1023 1206 1023 l 916 1023 q 856 1002 878 1023 q 834 955 834 982 q 856 907 834 928 q 916 887 878 887 m 395 1061 l 994 1061 q 1054 1081 1032 1061 q 1076 1128 1076 1101 q 1054 1176 1076 1156 q 994 1196 1032 1196 l 395 1196 q 335 1176 357 1196 q 313 1128 313 1156 q 335 1081 313 1101 q 395 1061 357 1061 z "},"Ó":{"ha":1389,"x_min":140,"x_max":1249,"o":"m 395 19 l 994 19 q 1054 39 1032 19 q 1076 87 1076 60 q 1054 134 1076 114 q 994 155 1032 155 l 395 155 q 335 134 357 155 q 313 87 313 114 q 335 39 313 60 q 395 19 357 19 m 221 193 l 473 193 q 533 213 511 193 q 555 260 555 233 q 533 308 555 288 q 473 328 511 328 l 221 328 q 161 308 183 328 q 140 260 140 288 q 161 213 140 233 q 221 193 183 193 m 916 193 l 1168 193 q 1227 213 1206 193 q 1249 260 1249 233 q 1227 308 1249 288 q 1168 328 1206 328 l 916 328 q 856 308 878 328 q 834 260 834 288 q 856 213 834 233 q 916 193 878 193 m 221 366 l 473 366 q 533 387 511 366 q 555 434 555 407 q 533 481 555 461 q 473 502 511 502 l 221 502 q 161 481 183 502 q 140 434 140 461 q 161 387 140 407 q 221 366 183 366 m 916 366 l 1168 366 q 1227 387 1206 366 q 1249 434 1249 407 q 1227 481 1249 461 q 1168 502 1206 502 l 916 502 q 856 481 878 502 q 834 434 834 461 q 856 387 834 407 q 916 366 878 366 m 221 540 l 473 540 q 533 560 511 540 q 555 608 555 581 q 533 655 555 635 q 473 675 511 675 l 221 675 q 161 655 183 675 q 140 608 140 635 q 161 560 140 581 q 221 540 183 540 m 916 540 l 1168 540 q 1227 560 1206 540 q 1249 608 1249 581 q 1227 655 1249 635 q 1168 675 1206 675 l 916 675 q 856 655 878 675 q 834 608 834 635 q 856 560 834 581 q 916 540 878 540 m 395 713 l 994 713 q 1054 734 1032 713 q 1076 781 1076 754 q 1054 829 1076 808 q 994 849 1032 849 l 395 849 q 335 829 357 849 q 313 781 313 808 q 335 734 313 754 q 395 713 357 713 m 568 887 l 821 887 q 880 907 859 887 q 902 955 902 928 q 880 1002 902 982 q 821 1023 859 1023 l 568 1023 q 509 1002 530 1023 q 487 955 487 982 q 509 907 487 928 q 568 887 530 887 m 742 1061 l 994 1061 q 1054 1081 1032 1061 q 1076 1128 1076 1101 q 1054 1176 1076 1156 q 994 1196 1032 1196 l 742 1196 q 682 1176 704 1196 q 661 1128 661 1156 q 682 1081 661 1101 q 742 1061 704 1061 z "},"Ô":{"ha":1389,"x_min":140,"x_max":1249,"o":"m 395 19 l 994 19 q 1054 39 1032 19 q 1076 87 1076 60 q 1054 134 1076 114 q 994 155 1032 155 l 395 155 q 335 134 357 155 q 313 87 313 114 q 335 39 313 60 q 395 19 357 19 m 221 193 l 473 193 q 533 213 511 193 q 555 260 555 233 q 533 308 555 288 q 473 328 511 328 l 221 328 q 161 308 183 328 q 140 260 140 288 q 161 213 140 233 q 221 193 183 193 m 916 193 l 1168 193 q 1227 213 1206 193 q 1249 260 1249 233 q 1227 308 1249 288 q 1168 328 1206 328 l 916 328 q 856 308 878 328 q 834 260 834 288 q 856 213 834 233 q 916 193 878 193 m 221 366 l 473 366 q 533 387 511 366 q 555 434 555 407 q 533 481 555 461 q 473 502 511 502 l 221 502 q 161 481 183 502 q 140 434 140 461 q 161 387 140 407 q 221 366 183 366 m 916 366 l 1168 366 q 1227 387 1206 366 q 1249 434 1249 407 q 1227 481 1249 461 q 1168 502 1206 502 l 916 502 q 856 481 878 502 q 834 434 834 461 q 856 387 834 407 q 916 366 878 366 m 221 540 l 473 540 q 533 560 511 540 q 555 608 555 581 q 533 655 555 635 q 473 675 511 675 l 221 675 q 161 655 183 675 q 140 608 140 635 q 161 560 140 581 q 221 540 183 540 m 916 540 l 1168 540 q 1227 560 1206 540 q 1249 608 1249 581 q 1227 655 1249 635 q 1168 675 1206 675 l 916 675 q 856 655 878 675 q 834 608 834 635 q 856 560 834 581 q 916 540 878 540 m 395 713 l 994 713 q 1054 734 1032 713 q 1076 781 1076 754 q 1054 829 1076 808 q 994 849 1032 849 l 395 849 q 335 829 357 849 q 313 781 313 808 q 335 734 313 754 q 395 713 357 713 m 221 887 l 473 887 q 533 907 511 887 q 555 955 555 928 q 533 1002 555 982 q 473 1023 511 1023 l 221 1023 q 161 1002 183 1023 q 140 955 140 982 q 161 907 140 928 q 221 887 183 887 m 916 887 l 1168 887 q 1227 907 1206 887 q 1249 955 1249 928 q 1227 1002 1249 982 q 1168 1023 1206 1023 l 916 1023 q 856 1002 878 1023 q 834 955 834 982 q 856 907 834 928 q 916 887 878 887 m 395 1061 l 994 1061 q 1054 1081 1032 1061 q 1076 1128 1076 1101 q 1054 1176 1076 1156 q 994 1196 1032 1196 l 395 1196 q 335 1176 357 1196 q 313 1128 313 1156 q 335 1081 313 1101 q 395 1061 357 1061 z "},"Ö":{"ha":1389,"x_min":140,"x_max":1249,"o":"m 395 19 l 994 19 q 1054 39 1032 19 q 1076 87 1076 60 q 1054 134 1076 114 q 994 155 1032 155 l 395 155 q 335 134 357 155 q 313 87 313 114 q 335 39 313 60 q 395 19 357 19 m 221 193 l 473 193 q 533 213 511 193 q 555 260 555 233 q 533 308 555 288 q 473 328 511 328 l 221 328 q 161 308 183 328 q 140 260 140 288 q 161 213 140 233 q 221 193 183 193 m 916 193 l 1168 193 q 1227 213 1206 193 q 1249 260 1249 233 q 1227 308 1249 288 q 1168 328 1206 328 l 916 328 q 856 308 878 328 q 834 260 834 288 q 856 213 834 233 q 916 193 878 193 m 221 366 l 473 366 q 533 387 511 366 q 555 434 555 407 q 533 481 555 461 q 473 502 511 502 l 221 502 q 161 481 183 502 q 140 434 140 461 q 161 387 140 407 q 221 366 183 366 m 916 366 l 1168 366 q 1227 387 1206 366 q 1249 434 1249 407 q 1227 481 1249 461 q 1168 502 1206 502 l 916 502 q 856 481 878 502 q 834 434 834 461 q 856 387 834 407 q 916 366 878 366 m 221 540 l 473 540 q 533 560 511 540 q 555 608 555 581 q 533 655 555 635 q 473 675 511 675 l 221 675 q 161 655 183 675 q 140 608 140 635 q 161 560 140 581 q 221 540 183 540 m 916 540 l 1168 540 q 1227 560 1206 540 q 1249 608 1249 581 q 1227 655 1249 635 q 1168 675 1206 675 l 916 675 q 856 655 878 675 q 834 608 834 635 q 856 560 834 581 q 916 540 878 540 m 221 713 l 473 713 q 533 734 511 713 q 555 781 555 754 q 533 829 555 808 q 473 849 511 849 l 221 849 q 161 829 183 849 q 140 781 140 808 q 161 734 140 754 q 221 713 183 713 m 916 713 l 1168 713 q 1227 734 1206 713 q 1249 781 1249 754 q 1227 829 1249 808 q 1168 849 1206 849 l 916 849 q 856 829 878 849 q 834 781 834 808 q 856 734 834 754 q 916 713 878 713 m 395 887 l 994 887 q 1054 907 1032 887 q 1076 955 1076 928 q 1054 1002 1076 982 q 994 1023 1032 1023 l 395 1023 q 335 1002 357 1023 q 313 955 313 982 q 335 907 313 928 q 395 887 357 887 m 221 1061 l 473 1061 q 533 1081 511 1061 q 555 1128 555 1101 q 533 1176 555 1156 q 473 1196 511 1196 l 221 1196 q 161 1176 183 1196 q 140 1128 140 1156 q 161 1081 140 1101 q 221 1061 183 1061 m 916 1061 l 1168 1061 q 1227 1081 1206 1061 q 1249 1128 1249 1101 q 1227 1176 1249 1156 q 1168 1196 1206 1196 l 916 1196 q 856 1176 878 1196 q 834 1128 834 1156 q 856 1081 834 1101 q 916 1061 878 1061 z "},"Ò":{"ha":1389,"x_min":140,"x_max":1249,"o":"m 395 19 l 994 19 q 1054 39 1032 19 q 1076 87 1076 60 q 1054 134 1076 114 q 994 155 1032 155 l 395 155 q 335 134 357 155 q 313 87 313 114 q 335 39 313 60 q 395 19 357 19 m 221 193 l 473 193 q 533 213 511 193 q 555 260 555 233 q 533 308 555 288 q 473 328 511 328 l 221 328 q 161 308 183 328 q 140 260 140 288 q 161 213 140 233 q 221 193 183 193 m 916 193 l 1168 193 q 1227 213 1206 193 q 1249 260 1249 233 q 1227 308 1249 288 q 1168 328 1206 328 l 916 328 q 856 308 878 328 q 834 260 834 288 q 856 213 834 233 q 916 193 878 193 m 221 366 l 473 366 q 533 387 511 366 q 555 434 555 407 q 533 481 555 461 q 473 502 511 502 l 221 502 q 161 481 183 502 q 140 434 140 461 q 161 387 140 407 q 221 366 183 366 m 916 366 l 1168 366 q 1227 387 1206 366 q 1249 434 1249 407 q 1227 481 1249 461 q 1168 502 1206 502 l 916 502 q 856 481 878 502 q 834 434 834 461 q 856 387 834 407 q 916 366 878 366 m 221 540 l 473 540 q 533 560 511 540 q 555 608 555 581 q 533 655 555 635 q 473 675 511 675 l 221 675 q 161 655 183 675 q 140 608 140 635 q 161 560 140 581 q 221 540 183 540 m 916 540 l 1168 540 q 1227 560 1206 540 q 1249 608 1249 581 q 1227 655 1249 635 q 1168 675 1206 675 l 916 675 q 856 655 878 675 q 834 608 834 635 q 856 560 834 581 q 916 540 878 540 m 395 713 l 994 713 q 1054 734 1032 713 q 1076 781 1076 754 q 1054 829 1076 808 q 994 849 1032 849 l 395 849 q 335 829 357 849 q 313 781 313 808 q 335 734 313 754 q 395 713 357 713 m 568 887 l 821 887 q 880 907 859 887 q 902 955 902 928 q 880 1002 902 982 q 821 1023 859 1023 l 568 1023 q 509 1002 530 1023 q 487 955 487 982 q 509 907 487 928 q 568 887 530 887 m 395 1061 l 647 1061 q 707 1081 685 1061 q 728 1128 728 1101 q 707 1176 728 1156 q 647 1196 685 1196 l 395 1196 q 335 1176 357 1196 q 313 1128 313 1156 q 335 1081 313 1101 q 395 1061 357 1061 z "},"Ø":{"ha":1389,"x_min":140,"x_max":1249,"o":"m 221 19 l 994 19 q 1054 39 1032 19 q 1076 87 1076 60 q 1054 134 1076 114 q 994 155 1032 155 l 221 155 q 161 134 183 155 q 140 87 140 114 q 161 39 140 60 q 221 19 183 19 m 221 193 l 473 193 q 533 213 511 193 q 555 260 555 233 q 533 308 555 288 q 473 328 511 328 l 221 328 q 161 308 183 328 q 140 260 140 288 q 161 213 140 233 q 221 193 183 193 m 916 193 l 1168 193 q 1227 213 1206 193 q 1249 260 1249 233 q 1227 308 1249 288 q 1168 328 1206 328 l 916 328 q 856 308 878 328 q 834 260 834 288 q 856 213 834 233 q 916 193 878 193 m 221 366 l 647 366 q 707 387 685 366 q 728 434 728 407 q 707 481 728 461 q 647 502 685 502 l 221 502 q 161 481 183 502 q 140 434 140 461 q 161 387 140 407 q 221 366 183 366 m 916 366 l 1168 366 q 1227 387 1206 366 q 1249 434 1249 407 q 1227 481 1249 461 q 1168 502 1206 502 l 916 502 q 856 481 878 502 q 834 434 834 461 q 856 387 834 407 q 916 366 878 366 m 221 540 l 1168 540 q 1227 560 1206 540 q 1249 608 1249 581 q 1227 655 1249 635 q 1168 675 1206 675 l 221 675 q 161 655 183 675 q 140 608 140 635 q 161 560 140 581 q 221 540 183 540 m 221 713 l 473 713 q 533 734 511 713 q 555 781 555 754 q 533 829 555 808 q 473 849 511 849 l 221 849 q 161 829 183 849 q 140 781 140 808 q 161 734 140 754 q 221 713 183 713 m 742 713 l 1168 713 q 1227 734 1206 713 q 1249 781 1249 754 q 1227 829 1249 808 q 1168 849 1206 849 l 742 849 q 682 829 704 849 q 661 781 661 808 q 682 734 661 754 q 742 713 704 713 m 221 887 l 473 887 q 533 907 511 887 q 555 955 555 928 q 533 1002 555 982 q 473 1023 511 1023 l 221 1023 q 161 1002 183 1023 q 140 955 140 982 q 161 907 140 928 q 221 887 183 887 m 916 887 l 1168 887 q 1227 907 1206 887 q 1249 955 1249 928 q 1227 1002 1249 982 q 1168 1023 1206 1023 l 916 1023 q 856 1002 878 1023 q 834 955 834 982 q 856 907 834 928 q 916 887 878 887 m 395 1061 l 1168 1061 q 1227 1081 1206 1061 q 1249 1128 1249 1101 q 1227 1176 1249 1156 q 1168 1196 1206 1196 l 395 1196 q 335 1176 357 1196 q 313 1128 313 1156 q 335 1081 313 1101 q 395 1061 357 1061 z "},"Õ":{"ha":1389,"x_min":140,"x_max":1423,"o":"m 395 19 l 994 19 q 1054 39 1032 19 q 1076 87 1076 60 q 1054 134 1076 114 q 994 155 1032 155 l 395 155 q 335 134 357 155 q 313 87 313 114 q 335 39 313 60 q 395 19 357 19 m 221 193 l 473 193 q 533 213 511 193 q 555 260 555 233 q 533 308 555 288 q 473 328 511 328 l 221 328 q 161 308 183 328 q 140 260 140 288 q 161 213 140 233 q 221 193 183 193 m 916 193 l 1168 193 q 1227 213 1206 193 q 1249 260 1249 233 q 1227 308 1249 288 q 1168 328 1206 328 l 916 328 q 856 308 878 328 q 834 260 834 288 q 856 213 834 233 q 916 193 878 193 m 221 366 l 473 366 q 533 387 511 366 q 555 434 555 407 q 533 481 555 461 q 473 502 511 502 l 221 502 q 161 481 183 502 q 140 434 140 461 q 161 387 140 407 q 221 366 183 366 m 916 366 l 1168 366 q 1227 387 1206 366 q 1249 434 1249 407 q 1227 481 1249 461 q 1168 502 1206 502 l 916 502 q 856 481 878 502 q 834 434 834 461 q 856 387 834 407 q 916 366 878 366 m 221 540 l 473 540 q 533 560 511 540 q 555 608 555 581 q 533 655 555 635 q 473 675 511 675 l 221 675 q 161 655 183 675 q 140 608 140 635 q 161 560 140 581 q 221 540 183 540 m 916 540 l 1168 540 q 1227 560 1206 540 q 1249 608 1249 581 q 1227 655 1249 635 q 1168 675 1206 675 l 916 675 q 856 655 878 675 q 834 608 834 635 q 856 560 834 581 q 916 540 878 540 m 395 713 l 994 713 q 1054 734 1032 713 q 1076 781 1076 754 q 1054 829 1076 808 q 994 849 1032 849 l 395 849 q 335 829 357 849 q 313 781 313 808 q 335 734 313 754 q 395 713 357 713 m 221 887 l 473 887 q 533 907 511 887 q 555 955 555 928 q 533 1002 555 982 q 473 1023 511 1023 l 221 1023 q 161 1002 183 1023 q 140 955 140 982 q 161 907 140 928 q 221 887 183 887 m 742 887 l 1168 887 q 1227 907 1206 887 q 1249 955 1249 928 q 1227 1002 1249 982 q 1168 1023 1206 1023 l 742 1023 q 682 1002 704 1023 q 661 955 661 982 q 682 907 661 928 q 742 887 704 887 m 395 1061 l 821 1061 q 880 1081 859 1061 q 902 1128 902 1101 q 880 1176 902 1156 q 821 1196 859 1196 l 395 1196 q 335 1176 357 1196 q 313 1128 313 1156 q 335 1081 313 1101 q 395 1061 357 1061 m 1089 1061 l 1341 1061 q 1401 1081 1379 1061 q 1423 1128 1423 1101 q 1401 1176 1423 1156 q 1341 1196 1379 1196 l 1089 1196 q 1029 1176 1051 1196 q 1008 1128 1008 1156 q 1029 1081 1008 1101 q 1089 1061 1051 1061 z "},"Œ":{"ha":1389,"x_min":140,"x_max":1423,"o":"m 395 19 l 1341 19 q 1401 39 1379 19 q 1423 87 1423 60 q 1401 134 1423 114 q 1341 155 1379 155 l 395 155 q 335 134 357 155 q 313 87 313 114 q 335 39 313 60 q 395 19 357 19 m 221 193 l 473 193 q 533 213 511 193 q 555 260 555 233 q 533 308 555 288 q 473 328 511 328 l 221 328 q 161 308 183 328 q 140 260 140 288 q 161 213 140 233 q 221 193 183 193 m 742 193 l 994 193 q 1054 213 1032 193 q 1076 260 1076 233 q 1054 308 1076 288 q 994 328 1032 328 l 742 328 q 682 308 704 328 q 661 260 661 288 q 682 213 661 233 q 742 193 704 193 m 221 366 l 473 366 q 533 387 511 366 q 555 434 555 407 q 533 481 555 461 q 473 502 511 502 l 221 502 q 161 481 183 502 q 140 434 140 461 q 161 387 140 407 q 221 366 183 366 m 742 366 l 994 366 q 1054 387 1032 366 q 1076 434 1076 407 q 1054 481 1076 461 q 994 502 1032 502 l 742 502 q 682 481 704 502 q 661 434 661 461 q 682 387 661 407 q 742 366 704 366 m 221 540 l 473 540 q 533 560 511 540 q 555 608 555 581 q 533 655 555 635 q 473 675 511 675 l 221 675 q 161 655 183 675 q 140 608 140 635 q 161 560 140 581 q 221 540 183 540 m 742 540 l 1168 540 q 1227 560 1206 540 q 1249 608 1249 581 q 1227 655 1249 635 q 1168 675 1206 675 l 742 675 q 682 655 704 675 q 661 608 661 635 q 682 560 661 581 q 742 540 704 540 m 221 713 l 473 713 q 533 734 511 713 q 555 781 555 754 q 533 829 555 808 q 473 849 511 849 l 221 849 q 161 829 183 849 q 140 781 140 808 q 161 734 140 754 q 221 713 183 713 m 742 713 l 994 713 q 1054 734 1032 713 q 1076 781 1076 754 q 1054 829 1076 808 q 994 849 1032 849 l 742 849 q 682 829 704 849 q 661 781 661 808 q 682 734 661 754 q 742 713 704 713 m 221 887 l 473 887 q 533 907 511 887 q 555 955 555 928 q 533 1002 555 982 q 473 1023 511 1023 l 221 1023 q 161 1002 183 1023 q 140 955 140 982 q 161 907 140 928 q 221 887 183 887 m 742 887 l 994 887 q 1054 907 1032 887 q 1076 955 1076 928 q 1054 1002 1076 982 q 994 1023 1032 1023 l 742 1023 q 682 1002 704 1023 q 661 955 661 982 q 682 907 661 928 q 742 887 704 887 m 395 1061 l 1341 1061 q 1401 1081 1379 1061 q 1423 1128 1423 1101 q 1401 1176 1423 1156 q 1341 1196 1379 1196 l 395 1196 q 335 1176 357 1196 q 313 1128 313 1156 q 335 1081 313 1101 q 395 1061 357 1061 z "},"P":{"ha":1389,"x_min":140,"x_max":1249,"o":"m 221 19 l 473 19 q 533 39 511 19 q 555 87 555 60 q 533 134 555 114 q 473 155 511 155 l 221 155 q 161 134 183 155 q 140 87 140 114 q 161 39 140 60 q 221 19 183 19 m 221 193 l 473 193 q 533 213 511 193 q 555 260 555 233 q 533 308 555 288 q 473 328 511 328 l 221 328 q 161 308 183 328 q 140 260 140 288 q 161 213 140 233 q 221 193 183 193 m 221 366 l 473 366 q 533 387 511 366 q 555 434 555 407 q 533 481 555 461 q 473 502 511 502 l 221 502 q 161 481 183 502 q 140 434 140 461 q 161 387 140 407 q 221 366 183 366 m 221 540 l 994 540 q 1054 560 1032 540 q 1076 608 1076 581 q 1054 655 1076 635 q 994 675 1032 675 l 221 675 q 161 655 183 675 q 140 608 140 635 q 161 560 140 581 q 221 540 183 540 m 221 713 l 473 713 q 533 734 511 713 q 555 781 555 754 q 533 829 555 808 q 473 849 511 849 l 221 849 q 161 829 183 849 q 140 781 140 808 q 161 734 140 754 q 221 713 183 713 m 916 713 l 1168 713 q 1227 734 1206 713 q 1249 781 1249 754 q 1227 829 1249 808 q 1168 849 1206 849 l 916 849 q 856 829 878 849 q 834 781 834 808 q 856 734 834 754 q 916 713 878 713 m 221 887 l 473 887 q 533 907 511 887 q 555 955 555 928 q 533 1002 555 982 q 473 1023 511 1023 l 221 1023 q 161 1002 183 1023 q 140 955 140 982 q 161 907 140 928 q 221 887 183 887 m 916 887 l 1168 887 q 1227 907 1206 887 q 1249 955 1249 928 q 1227 1002 1249 982 q 1168 1023 1206 1023 l 916 1023 q 856 1002 878 1023 q 834 955 834 982 q 856 907 834 928 q 916 887 878 887 m 221 1061 l 994 1061 q 1054 1081 1032 1061 q 1076 1128 1076 1101 q 1054 1176 1076 1156 q 994 1196 1032 1196 l 221 1196 q 161 1176 183 1196 q 140 1128 140 1156 q 161 1081 140 1101 q 221 1061 183 1061 z "},"Þ":{"ha":1389,"x_min":140,"x_max":1249,"o":"m 221 19 l 473 19 q 533 39 511 19 q 555 87 555 60 q 533 134 555 114 q 473 155 511 155 l 221 155 q 161 134 183 155 q 140 87 140 114 q 161 39 140 60 q 221 19 183 19 m 221 193 l 994 193 q 1054 213 1032 193 q 1076 260 1076 233 q 1054 308 1076 288 q 994 328 1032 328 l 221 328 q 161 308 183 328 q 140 260 140 288 q 161 213 140 233 q 221 193 183 193 m 221 366 l 473 366 q 533 387 511 366 q 555 434 555 407 q 533 481 555 461 q 473 502 511 502 l 221 502 q 161 481 183 502 q 140 434 140 461 q 161 387 140 407 q 221 366 183 366 m 916 366 l 1168 366 q 1227 387 1206 366 q 1249 434 1249 407 q 1227 481 1249 461 q 1168 502 1206 502 l 916 502 q 856 481 878 502 q 834 434 834 461 q 856 387 834 407 q 916 366 878 366 m 221 540 l 473 540 q 533 560 511 540 q 555 608 555 581 q 533 655 555 635 q 473 675 511 675 l 221 675 q 161 655 183 675 q 140 608 140 635 q 161 560 140 581 q 221 540 183 540 m 916 540 l 1168 540 q 1227 560 1206 540 q 1249 608 1249 581 q 1227 655 1249 635 q 1168 675 1206 675 l 916 675 q 856 655 878 675 q 834 608 834 635 q 856 560 834 581 q 916 540 878 540 m 221 713 l 473 713 q 533 734 511 713 q 555 781 555 754 q 533 829 555 808 q 473 849 511 849 l 221 849 q 161 829 183 849 q 140 781 140 808 q 161 734 140 754 q 221 713 183 713 m 916 713 l 1168 713 q 1227 734 1206 713 q 1249 781 1249 754 q 1227 829 1249 808 q 1168 849 1206 849 l 916 849 q 856 829 878 849 q 834 781 834 808 q 856 734 834 754 q 916 713 878 713 m 221 887 l 994 887 q 1054 907 1032 887 q 1076 955 1076 928 q 1054 1002 1076 982 q 994 1023 1032 1023 l 221 1023 q 161 1002 183 1023 q 140 955 140 982 q 161 907 140 928 q 221 887 183 887 m 221 1061 l 473 1061 q 533 1081 511 1061 q 555 1128 555 1101 q 533 1176 555 1156 q 473 1196 511 1196 l 221 1196 q 161 1176 183 1196 q 140 1128 140 1156 q 161 1081 140 1101 q 221 1061 183 1061 z "},"Q":{"ha":1389,"x_min":140,"x_max":1249,"o":"m 742 19 l 1168 19 q 1227 39 1206 19 q 1249 87 1249 60 q 1227 134 1249 114 q 1168 155 1206 155 l 742 155 q 682 134 704 155 q 661 87 661 114 q 682 39 661 60 q 742 19 704 19 m 395 193 l 994 193 q 1054 213 1032 193 q 1076 260 1076 233 q 1054 308 1076 288 q 994 328 1032 328 l 395 328 q 335 308 357 328 q 313 260 313 288 q 335 213 313 233 q 395 193 357 193 m 221 366 l 473 366 q 533 387 511 366 q 555 434 555 407 q 533 481 555 461 q 473 502 511 502 l 221 502 q 161 481 183 502 q 140 434 140 461 q 161 387 140 407 q 221 366 183 366 m 916 366 l 1168 366 q 1227 387 1206 366 q 1249 434 1249 407 q 1227 481 1249 461 q 1168 502 1206 502 l 916 502 q 856 481 878 502 q 834 434 834 461 q 856 387 834 407 q 916 366 878 366 m 221 540 l 473 540 q 533 560 511 540 q 555 608 555 581 q 533 655 555 635 q 473 675 511 675 l 221 675 q 161 655 183 675 q 140 608 140 635 q 161 560 140 581 q 221 540 183 540 m 916 540 l 1168 540 q 1227 560 1206 540 q 1249 608 1249 581 q 1227 655 1249 635 q 1168 675 1206 675 l 916 675 q 856 655 878 675 q 834 608 834 635 q 856 560 834 581 q 916 540 878 540 m 221 713 l 473 713 q 533 734 511 713 q 555 781 555 754 q 533 829 555 808 q 473 849 511 849 l 221 849 q 161 829 183 849 q 140 781 140 808 q 161 734 140 754 q 221 713 183 713 m 916 713 l 1168 713 q 1227 734 1206 713 q 1249 781 1249 754 q 1227 829 1249 808 q 1168 849 1206 849 l 916 849 q 856 829 878 849 q 834 781 834 808 q 856 734 834 754 q 916 713 878 713 m 221 887 l 473 887 q 533 907 511 887 q 555 955 555 928 q 533 1002 555 982 q 473 1023 511 1023 l 221 1023 q 161 1002 183 1023 q 140 955 140 982 q 161 907 140 928 q 221 887 183 887 m 916 887 l 1168 887 q 1227 907 1206 887 q 1249 955 1249 928 q 1227 1002 1249 982 q 1168 1023 1206 1023 l 916 1023 q 856 1002 878 1023 q 834 955 834 982 q 856 907 834 928 q 916 887 878 887 m 395 1061 l 994 1061 q 1054 1081 1032 1061 q 1076 1128 1076 1101 q 1054 1176 1076 1156 q 994 1196 1032 1196 l 395 1196 q 335 1176 357 1196 q 313 1128 313 1156 q 335 1081 313 1101 q 395 1061 357 1061 z "},"R":{"ha":1389,"x_min":140,"x_max":1249,"o":"m 221 19 l 473 19 q 533 39 511 19 q 555 87 555 60 q 533 134 555 114 q 473 155 511 155 l 221 155 q 161 134 183 155 q 140 87 140 114 q 161 39 140 60 q 221 19 183 19 m 916 19 l 1168 19 q 1227 39 1206 19 q 1249 87 1249 60 q 1227 134 1249 114 q 1168 155 1206 155 l 916 155 q 856 134 878 155 q 834 87 834 114 q 856 39 834 60 q 916 19 878 19 m 221 193 l 473 193 q 533 213 511 193 q 555 260 555 233 q 533 308 555 288 q 473 328 511 328 l 221 328 q 161 308 183 328 q 140 260 140 288 q 161 213 140 233 q 221 193 183 193 m 742 193 l 994 193 q 1054 213 1032 193 q 1076 260 1076 233 q 1054 308 1076 288 q 994 328 1032 328 l 742 328 q 682 308 704 328 q 661 260 661 288 q 682 213 661 233 q 742 193 704 193 m 221 366 l 821 366 q 880 387 859 366 q 902 434 902 407 q 880 481 902 461 q 821 502 859 502 l 221 502 q 161 481 183 502 q 140 434 140 461 q 161 387 140 407 q 221 366 183 366 m 221 540 l 994 540 q 1054 560 1032 540 q 1076 608 1076 581 q 1054 655 1076 635 q 994 675 1032 675 l 221 675 q 161 655 183 675 q 140 608 140 635 q 161 560 140 581 q 221 540 183 540 m 221 713 l 473 713 q 533 734 511 713 q 555 781 555 754 q 533 829 555 808 q 473 849 511 849 l 221 849 q 161 829 183 849 q 140 781 140 808 q 161 734 140 754 q 221 713 183 713 m 916 713 l 1168 713 q 1227 734 1206 713 q 1249 781 1249 754 q 1227 829 1249 808 q 1168 849 1206 849 l 916 849 q 856 829 878 849 q 834 781 834 808 q 856 734 834 754 q 916 713 878 713 m 221 887 l 473 887 q 533 907 511 887 q 555 955 555 928 q 533 1002 555 982 q 473 1023 511 1023 l 221 1023 q 161 1002 183 1023 q 140 955 140 982 q 161 907 140 928 q 221 887 183 887 m 916 887 l 1168 887 q 1227 907 1206 887 q 1249 955 1249 928 q 1227 1002 1249 982 q 1168 1023 1206 1023 l 916 1023 q 856 1002 878 1023 q 834 955 834 982 q 856 907 834 928 q 916 887 878 887 m 221 1061 l 994 1061 q 1054 1081 1032 1061 q 1076 1128 1076 1101 q 1054 1176 1076 1156 q 994 1196 1032 1196 l 221 1196 q 161 1176 183 1196 q 140 1128 140 1156 q 161 1081 140 1101 q 221 1061 183 1061 z "},"S":{"ha":1389,"x_min":140,"x_max":1249,"o":"m 395 19 l 994 19 q 1054 39 1032 19 q 1076 87 1076 60 q 1054 134 1076 114 q 994 155 1032 155 l 395 155 q 335 134 357 155 q 313 87 313 114 q 335 39 313 60 q 395 19 357 19 m 221 193 l 473 193 q 533 213 511 193 q 555 260 555 233 q 533 308 555 288 q 473 328 511 328 l 221 328 q 161 308 183 328 q 140 260 140 288 q 161 213 140 233 q 221 193 183 193 m 916 193 l 1168 193 q 1227 213 1206 193 q 1249 260 1249 233 q 1227 308 1249 288 q 1168 328 1206 328 l 916 328 q 856 308 878 328 q 834 260 834 288 q 856 213 834 233 q 916 193 878 193 m 916 366 l 1168 366 q 1227 387 1206 366 q 1249 434 1249 407 q 1227 481 1249 461 q 1168 502 1206 502 l 916 502 q 856 481 878 502 q 834 434 834 461 q 856 387 834 407 q 916 366 878 366 m 395 540 l 994 540 q 1054 560 1032 540 q 1076 608 1076 581 q 1054 655 1076 635 q 994 675 1032 675 l 395 675 q 335 655 357 675 q 313 608 313 635 q 335 560 313 581 q 395 540 357 540 m 221 713 l 473 713 q 533 734 511 713 q 555 781 555 754 q 533 829 555 808 q 473 849 511 849 l 221 849 q 161 829 183 849 q 140 781 140 808 q 161 734 140 754 q 221 713 183 713 m 221 887 l 473 887 q 533 907 511 887 q 555 955 555 928 q 533 1002 555 982 q 473 1023 511 1023 l 221 1023 q 161 1002 183 1023 q 140 955 140 982 q 161 907 140 928 q 221 887 183 887 m 916 887 l 1168 887 q 1227 907 1206 887 q 1249 955 1249 928 q 1227 1002 1249 982 q 1168 1023 1206 1023 l 916 1023 q 856 1002 878 1023 q 834 955 834 982 q 856 907 834 928 q 916 887 878 887 m 395 1061 l 994 1061 q 1054 1081 1032 1061 q 1076 1128 1076 1101 q 1054 1176 1076 1156 q 994 1196 1032 1196 l 395 1196 q 335 1176 357 1196 q 313 1128 313 1156 q 335 1081 313 1101 q 395 1061 357 1061 z "},"T":{"ha":1389,"x_min":140,"x_max":1249,"o":"m 568 19 l 821 19 q 880 39 859 19 q 902 87 902 60 q 880 134 902 114 q 821 155 859 155 l 568 155 q 509 134 530 155 q 487 87 487 114 q 509 39 487 60 q 568 19 530 19 m 568 193 l 821 193 q 880 213 859 193 q 902 260 902 233 q 880 308 902 288 q 821 328 859 328 l 568 328 q 509 308 530 328 q 487 260 487 288 q 509 213 487 233 q 568 193 530 193 m 568 366 l 821 366 q 880 387 859 366 q 902 434 902 407 q 880 481 902 461 q 821 502 859 502 l 568 502 q 509 481 530 502 q 487 434 487 461 q 509 387 487 407 q 568 366 530 366 m 568 540 l 821 540 q 880 560 859 540 q 902 608 902 581 q 880 655 902 635 q 821 675 859 675 l 568 675 q 509 655 530 675 q 487 608 487 635 q 509 560 487 581 q 568 540 530 540 m 568 713 l 821 713 q 880 734 859 713 q 902 781 902 754 q 880 829 902 808 q 821 849 859 849 l 568 849 q 509 829 530 849 q 487 781 487 808 q 509 734 487 754 q 568 713 530 713 m 568 887 l 821 887 q 880 907 859 887 q 902 955 902 928 q 880 1002 902 982 q 821 1023 859 1023 l 568 1023 q 509 1002 530 1023 q 487 955 487 982 q 509 907 487 928 q 568 887 530 887 m 221 1061 l 1168 1061 q 1227 1081 1206 1061 q 1249 1128 1249 1101 q 1227 1176 1249 1156 q 1168 1196 1206 1196 l 221 1196 q 161 1176 183 1196 q 140 1128 140 1156 q 161 1081 140 1101 q 221 1061 183 1061 z "},"U":{"ha":1389,"x_min":140,"x_max":1249,"o":"m 395 19 l 994 19 q 1054 39 1032 19 q 1076 87 1076 60 q 1054 134 1076 114 q 994 155 1032 155 l 395 155 q 335 134 357 155 q 313 87 313 114 q 335 39 313 60 q 395 19 357 19 m 221 193 l 473 193 q 533 213 511 193 q 555 260 555 233 q 533 308 555 288 q 473 328 511 328 l 221 328 q 161 308 183 328 q 140 260 140 288 q 161 213 140 233 q 221 193 183 193 m 916 193 l 1168 193 q 1227 213 1206 193 q 1249 260 1249 233 q 1227 308 1249 288 q 1168 328 1206 328 l 916 328 q 856 308 878 328 q 834 260 834 288 q 856 213 834 233 q 916 193 878 193 m 221 366 l 473 366 q 533 387 511 366 q 555 434 555 407 q 533 481 555 461 q 473 502 511 502 l 221 502 q 161 481 183 502 q 140 434 140 461 q 161 387 140 407 q 221 366 183 366 m 916 366 l 1168 366 q 1227 387 1206 366 q 1249 434 1249 407 q 1227 481 1249 461 q 1168 502 1206 502 l 916 502 q 856 481 878 502 q 834 434 834 461 q 856 387 834 407 q 916 366 878 366 m 221 540 l 473 540 q 533 560 511 540 q 555 608 555 581 q 533 655 555 635 q 473 675 511 675 l 221 675 q 161 655 183 675 q 140 608 140 635 q 161 560 140 581 q 221 540 183 540 m 916 540 l 1168 540 q 1227 560 1206 540 q 1249 608 1249 581 q 1227 655 1249 635 q 1168 675 1206 675 l 916 675 q 856 655 878 675 q 834 608 834 635 q 856 560 834 581 q 916 540 878 540 m 221 713 l 473 713 q 533 734 511 713 q 555 781 555 754 q 533 829 555 808 q 473 849 511 849 l 221 849 q 161 829 183 849 q 140 781 140 808 q 161 734 140 754 q 221 713 183 713 m 916 713 l 1168 713 q 1227 734 1206 713 q 1249 781 1249 754 q 1227 829 1249 808 q 1168 849 1206 849 l 916 849 q 856 829 878 849 q 834 781 834 808 q 856 734 834 754 q 916 713 878 713 m 221 887 l 473 887 q 533 907 511 887 q 555 955 555 928 q 533 1002 555 982 q 473 1023 511 1023 l 221 1023 q 161 1002 183 1023 q 140 955 140 982 q 161 907 140 928 q 221 887 183 887 m 916 887 l 1168 887 q 1227 907 1206 887 q 1249 955 1249 928 q 1227 1002 1249 982 q 1168 1023 1206 1023 l 916 1023 q 856 1002 878 1023 q 834 955 834 982 q 856 907 834 928 q 916 887 878 887 m 221 1061 l 473 1061 q 533 1081 511 1061 q 555 1128 555 1101 q 533 1176 555 1156 q 473 1196 511 1196 l 221 1196 q 161 1176 183 1196 q 140 1128 140 1156 q 161 1081 140 1101 q 221 1061 183 1061 m 916 1061 l 1168 1061 q 1227 1081 1206 1061 q 1249 1128 1249 1101 q 1227 1176 1249 1156 q 1168 1196 1206 1196 l 916 1196 q 856 1176 878 1196 q 834 1128 834 1156 q 856 1081 834 1101 q 916 1061 878 1061 z "},"Ú":{"ha":1389,"x_min":140,"x_max":1249,"o":"m 395 19 l 994 19 q 1054 39 1032 19 q 1076 87 1076 60 q 1054 134 1076 114 q 994 155 1032 155 l 395 155 q 335 134 357 155 q 313 87 313 114 q 335 39 313 60 q 395 19 357 19 m 221 193 l 473 193 q 533 213 511 193 q 555 260 555 233 q 533 308 555 288 q 473 328 511 328 l 221 328 q 161 308 183 328 q 140 260 140 288 q 161 213 140 233 q 221 193 183 193 m 916 193 l 1168 193 q 1227 213 1206 193 q 1249 260 1249 233 q 1227 308 1249 288 q 1168 328 1206 328 l 916 328 q 856 308 878 328 q 834 260 834 288 q 856 213 834 233 q 916 193 878 193 m 221 366 l 473 366 q 533 387 511 366 q 555 434 555 407 q 533 481 555 461 q 473 502 511 502 l 221 502 q 161 481 183 502 q 140 434 140 461 q 161 387 140 407 q 221 366 183 366 m 916 366 l 1168 366 q 1227 387 1206 366 q 1249 434 1249 407 q 1227 481 1249 461 q 1168 502 1206 502 l 916 502 q 856 481 878 502 q 834 434 834 461 q 856 387 834 407 q 916 366 878 366 m 221 540 l 473 540 q 533 560 511 540 q 555 608 555 581 q 533 655 555 635 q 473 675 511 675 l 221 675 q 161 655 183 675 q 140 608 140 635 q 161 560 140 581 q 221 540 183 540 m 916 540 l 1168 540 q 1227 560 1206 540 q 1249 608 1249 581 q 1227 655 1249 635 q 1168 675 1206 675 l 916 675 q 856 655 878 675 q 834 608 834 635 q 856 560 834 581 q 916 540 878 540 m 221 713 l 473 713 q 533 734 511 713 q 555 781 555 754 q 533 829 555 808 q 473 849 511 849 l 221 849 q 161 829 183 849 q 140 781 140 808 q 161 734 140 754 q 221 713 183 713 m 916 713 l 1168 713 q 1227 734 1206 713 q 1249 781 1249 754 q 1227 829 1249 808 q 1168 849 1206 849 l 916 849 q 856 829 878 849 q 834 781 834 808 q 856 734 834 754 q 916 713 878 713 m 568 887 l 821 887 q 880 907 859 887 q 902 955 902 928 q 880 1002 902 982 q 821 1023 859 1023 l 568 1023 q 509 1002 530 1023 q 487 955 487 982 q 509 907 487 928 q 568 887 530 887 m 742 1061 l 994 1061 q 1054 1081 1032 1061 q 1076 1128 1076 1101 q 1054 1176 1076 1156 q 994 1196 1032 1196 l 742 1196 q 682 1176 704 1196 q 661 1128 661 1156 q 682 1081 661 1101 q 742 1061 704 1061 z "},"Û":{"ha":1389,"x_min":140,"x_max":1249,"o":"m 395 19 l 994 19 q 1054 39 1032 19 q 1076 87 1076 60 q 1054 134 1076 114 q 994 155 1032 155 l 395 155 q 335 134 357 155 q 313 87 313 114 q 335 39 313 60 q 395 19 357 19 m 221 193 l 473 193 q 533 213 511 193 q 555 260 555 233 q 533 308 555 288 q 473 328 511 328 l 221 328 q 161 308 183 328 q 140 260 140 288 q 161 213 140 233 q 221 193 183 193 m 916 193 l 1168 193 q 1227 213 1206 193 q 1249 260 1249 233 q 1227 308 1249 288 q 1168 328 1206 328 l 916 328 q 856 308 878 328 q 834 260 834 288 q 856 213 834 233 q 916 193 878 193 m 221 366 l 473 366 q 533 387 511 366 q 555 434 555 407 q 533 481 555 461 q 473 502 511 502 l 221 502 q 161 481 183 502 q 140 434 140 461 q 161 387 140 407 q 221 366 183 366 m 916 366 l 1168 366 q 1227 387 1206 366 q 1249 434 1249 407 q 1227 481 1249 461 q 1168 502 1206 502 l 916 502 q 856 481 878 502 q 834 434 834 461 q 856 387 834 407 q 916 366 878 366 m 221 540 l 473 540 q 533 560 511 540 q 555 608 555 581 q 533 655 555 635 q 473 675 511 675 l 221 675 q 161 655 183 675 q 140 608 140 635 q 161 560 140 581 q 221 540 183 540 m 916 540 l 1168 540 q 1227 560 1206 540 q 1249 608 1249 581 q 1227 655 1249 635 q 1168 675 1206 675 l 916 675 q 856 655 878 675 q 834 608 834 635 q 856 560 834 581 q 916 540 878 540 m 221 887 l 473 887 q 533 907 511 887 q 555 955 555 928 q 533 1002 555 982 q 473 1023 511 1023 l 221 1023 q 161 1002 183 1023 q 140 955 140 982 q 161 907 140 928 q 221 887 183 887 m 916 887 l 1168 887 q 1227 907 1206 887 q 1249 955 1249 928 q 1227 1002 1249 982 q 1168 1023 1206 1023 l 916 1023 q 856 1002 878 1023 q 834 955 834 982 q 856 907 834 928 q 916 887 878 887 m 395 1061 l 994 1061 q 1054 1081 1032 1061 q 1076 1128 1076 1101 q 1054 1176 1076 1156 q 994 1196 1032 1196 l 395 1196 q 335 1176 357 1196 q 313 1128 313 1156 q 335 1081 313 1101 q 395 1061 357 1061 z "},"Ü":{"ha":1389,"x_min":140,"x_max":1249,"o":"m 395 19 l 994 19 q 1054 39 1032 19 q 1076 87 1076 60 q 1054 134 1076 114 q 994 155 1032 155 l 395 155 q 335 134 357 155 q 313 87 313 114 q 335 39 313 60 q 395 19 357 19 m 221 193 l 473 193 q 533 213 511 193 q 555 260 555 233 q 533 308 555 288 q 473 328 511 328 l 221 328 q 161 308 183 328 q 140 260 140 288 q 161 213 140 233 q 221 193 183 193 m 916 193 l 1168 193 q 1227 213 1206 193 q 1249 260 1249 233 q 1227 308 1249 288 q 1168 328 1206 328 l 916 328 q 856 308 878 328 q 834 260 834 288 q 856 213 834 233 q 916 193 878 193 m 221 366 l 473 366 q 533 387 511 366 q 555 434 555 407 q 533 481 555 461 q 473 502 511 502 l 221 502 q 161 481 183 502 q 140 434 140 461 q 161 387 140 407 q 221 366 183 366 m 916 366 l 1168 366 q 1227 387 1206 366 q 1249 434 1249 407 q 1227 481 1249 461 q 1168 502 1206 502 l 916 502 q 856 481 878 502 q 834 434 834 461 q 856 387 834 407 q 916 366 878 366 m 221 540 l 473 540 q 533 560 511 540 q 555 608 555 581 q 533 655 555 635 q 473 675 511 675 l 221 675 q 161 655 183 675 q 140 608 140 635 q 161 560 140 581 q 221 540 183 540 m 916 540 l 1168 540 q 1227 560 1206 540 q 1249 608 1249 581 q 1227 655 1249 635 q 1168 675 1206 675 l 916 675 q 856 655 878 675 q 834 608 834 635 q 856 560 834 581 q 916 540 878 540 m 221 713 l 473 713 q 533 734 511 713 q 555 781 555 754 q 533 829 555 808 q 473 849 511 849 l 221 849 q 161 829 183 849 q 140 781 140 808 q 161 734 140 754 q 221 713 183 713 m 916 713 l 1168 713 q 1227 734 1206 713 q 1249 781 1249 754 q 1227 829 1249 808 q 1168 849 1206 849 l 916 849 q 856 829 878 849 q 834 781 834 808 q 856 734 834 754 q 916 713 878 713 m 221 1061 l 473 1061 q 533 1081 511 1061 q 555 1128 555 1101 q 533 1176 555 1156 q 473 1196 511 1196 l 221 1196 q 161 1176 183 1196 q 140 1128 140 1156 q 161 1081 140 1101 q 221 1061 183 1061 m 916 1061 l 1168 1061 q 1227 1081 1206 1061 q 1249 1128 1249 1101 q 1227 1176 1249 1156 q 1168 1196 1206 1196 l 916 1196 q 856 1176 878 1196 q 834 1128 834 1156 q 856 1081 834 1101 q 916 1061 878 1061 z "},"Ù":{"ha":1389,"x_min":140,"x_max":1249,"o":"m 395 19 l 994 19 q 1054 39 1032 19 q 1076 87 1076 60 q 1054 134 1076 114 q 994 155 1032 155 l 395 155 q 335 134 357 155 q 313 87 313 114 q 335 39 313 60 q 395 19 357 19 m 221 193 l 473 193 q 533 213 511 193 q 555 260 555 233 q 533 308 555 288 q 473 328 511 328 l 221 328 q 161 308 183 328 q 140 260 140 288 q 161 213 140 233 q 221 193 183 193 m 916 193 l 1168 193 q 1227 213 1206 193 q 1249 260 1249 233 q 1227 308 1249 288 q 1168 328 1206 328 l 916 328 q 856 308 878 328 q 834 260 834 288 q 856 213 834 233 q 916 193 878 193 m 221 366 l 473 366 q 533 387 511 366 q 555 434 555 407 q 533 481 555 461 q 473 502 511 502 l 221 502 q 161 481 183 502 q 140 434 140 461 q 161 387 140 407 q 221 366 183 366 m 916 366 l 1168 366 q 1227 387 1206 366 q 1249 434 1249 407 q 1227 481 1249 461 q 1168 502 1206 502 l 916 502 q 856 481 878 502 q 834 434 834 461 q 856 387 834 407 q 916 366 878 366 m 221 540 l 473 540 q 533 560 511 540 q 555 608 555 581 q 533 655 555 635 q 473 675 511 675 l 221 675 q 161 655 183 675 q 140 608 140 635 q 161 560 140 581 q 221 540 183 540 m 916 540 l 1168 540 q 1227 560 1206 540 q 1249 608 1249 581 q 1227 655 1249 635 q 1168 675 1206 675 l 916 675 q 856 655 878 675 q 834 608 834 635 q 856 560 834 581 q 916 540 878 540 m 221 713 l 473 713 q 533 734 511 713 q 555 781 555 754 q 533 829 555 808 q 473 849 511 849 l 221 849 q 161 829 183 849 q 140 781 140 808 q 161 734 140 754 q 221 713 183 713 m 916 713 l 1168 713 q 1227 734 1206 713 q 1249 781 1249 754 q 1227 829 1249 808 q 1168 849 1206 849 l 916 849 q 856 829 878 849 q 834 781 834 808 q 856 734 834 754 q 916 713 878 713 m 568 887 l 821 887 q 880 907 859 887 q 902 955 902 928 q 880 1002 902 982 q 821 1023 859 1023 l 568 1023 q 509 1002 530 1023 q 487 955 487 982 q 509 907 487 928 q 568 887 530 887 m 395 1061 l 647 1061 q 707 1081 685 1061 q 728 1128 728 1101 q 707 1176 728 1156 q 647 1196 685 1196 l 395 1196 q 335 1176 357 1196 q 313 1128 313 1156 q 335 1081 313 1101 q 395 1061 357 1061 z "},"V":{"ha":1389,"x_min":140,"x_max":1249,"o":"m 568 19 l 821 19 q 880 39 859 19 q 902 87 902 60 q 880 134 902 114 q 821 155 859 155 l 568 155 q 509 134 530 155 q 487 87 487 114 q 509 39 487 60 q 568 19 530 19 m 395 193 l 994 193 q 1054 213 1032 193 q 1076 260 1076 233 q 1054 308 1076 288 q 994 328 1032 328 l 395 328 q 335 308 357 328 q 313 260 313 288 q 335 213 313 233 q 395 193 357 193 m 221 366 l 473 366 q 533 387 511 366 q 555 434 555 407 q 533 481 555 461 q 473 502 511 502 l 221 502 q 161 481 183 502 q 140 434 140 461 q 161 387 140 407 q 221 366 183 366 m 916 366 l 1168 366 q 1227 387 1206 366 q 1249 434 1249 407 q 1227 481 1249 461 q 1168 502 1206 502 l 916 502 q 856 481 878 502 q 834 434 834 461 q 856 387 834 407 q 916 366 878 366 m 221 540 l 473 540 q 533 560 511 540 q 555 608 555 581 q 533 655 555 635 q 473 675 511 675 l 221 675 q 161 655 183 675 q 140 608 140 635 q 161 560 140 581 q 221 540 183 540 m 916 540 l 1168 540 q 1227 560 1206 540 q 1249 608 1249 581 q 1227 655 1249 635 q 1168 675 1206 675 l 916 675 q 856 655 878 675 q 834 608 834 635 q 856 560 834 581 q 916 540 878 540 m 221 713 l 473 713 q 533 734 511 713 q 555 781 555 754 q 533 829 555 808 q 473 849 511 849 l 221 849 q 161 829 183 849 q 140 781 140 808 q 161 734 140 754 q 221 713 183 713 m 916 713 l 1168 713 q 1227 734 1206 713 q 1249 781 1249 754 q 1227 829 1249 808 q 1168 849 1206 849 l 916 849 q 856 829 878 849 q 834 781 834 808 q 856 734 834 754 q 916 713 878 713 m 221 887 l 473 887 q 533 907 511 887 q 555 955 555 928 q 533 1002 555 982 q 473 1023 511 1023 l 221 1023 q 161 1002 183 1023 q 140 955 140 982 q 161 907 140 928 q 221 887 183 887 m 916 887 l 1168 887 q 1227 907 1206 887 q 1249 955 1249 928 q 1227 1002 1249 982 q 1168 1023 1206 1023 l 916 1023 q 856 1002 878 1023 q 834 955 834 982 q 856 907 834 928 q 916 887 878 887 m 221 1061 l 473 1061 q 533 1081 511 1061 q 555 1128 555 1101 q 533 1176 555 1156 q 473 1196 511 1196 l 221 1196 q 161 1176 183 1196 q 140 1128 140 1156 q 161 1081 140 1101 q 221 1061 183 1061 m 916 1061 l 1168 1061 q 1227 1081 1206 1061 q 1249 1128 1249 1101 q 1227 1176 1249 1156 q 1168 1196 1206 1196 l 916 1196 q 856 1176 878 1196 q 834 1128 834 1156 q 856 1081 834 1101 q 916 1061 878 1061 z "},"W":{"ha":1389,"x_min":140,"x_max":1423,"o":"m 221 19 l 473 19 q 533 39 511 19 q 555 87 555 60 q 533 134 555 114 q 473 155 511 155 l 221 155 q 161 134 183 155 q 140 87 140 114 q 161 39 140 60 q 221 19 183 19 m 1089 19 l 1341 19 q 1401 39 1379 19 q 1423 87 1423 60 q 1401 134 1423 114 q 1341 155 1379 155 l 1089 155 q 1029 134 1051 155 q 1008 87 1008 114 q 1029 39 1008 60 q 1089 19 1051 19 m 221 193 l 647 193 q 707 213 685 193 q 728 260 728 233 q 707 308 728 288 q 647 328 685 328 l 221 328 q 161 308 183 328 q 140 260 140 288 q 161 213 140 233 q 221 193 183 193 m 916 193 l 1341 193 q 1401 213 1379 193 q 1423 260 1423 233 q 1401 308 1423 288 q 1341 328 1379 328 l 916 328 q 856 308 878 328 q 834 260 834 288 q 856 213 834 233 q 916 193 878 193 m 221 366 l 1341 366 q 1401 387 1379 366 q 1423 434 1423 407 q 1401 481 1423 461 q 1341 502 1379 502 l 221 502 q 161 481 183 502 q 140 434 140 461 q 161 387 140 407 q 221 366 183 366 m 221 540 l 473 540 q 533 560 511 540 q 555 608 555 581 q 533 655 555 635 q 473 675 511 675 l 221 675 q 161 655 183 675 q 140 608 140 635 q 161 560 140 581 q 221 540 183 540 m 730 540 l 833 540 q 882 560 863 540 q 902 608 902 581 q 882 655 902 635 q 833 675 863 675 l 730 675 q 680 655 700 675 q 661 608 661 635 q 680 560 661 581 q 730 540 700 540 m 1089 540 l 1341 540 q 1401 560 1379 540 q 1423 608 1423 581 q 1401 655 1423 635 q 1341 675 1379 675 l 1089 675 q 1029 655 1051 675 q 1008 608 1008 635 q 1029 560 1008 581 q 1089 540 1051 540 m 221 713 l 473 713 q 533 734 511 713 q 555 781 555 754 q 533 829 555 808 q 473 849 511 849 l 221 849 q 161 829 183 849 q 140 781 140 808 q 161 734 140 754 q 221 713 183 713 m 1089 713 l 1341 713 q 1401 734 1379 713 q 1423 781 1423 754 q 1401 829 1423 808 q 1341 849 1379 849 l 1089 849 q 1029 829 1051 849 q 1008 781 1008 808 q 1029 734 1008 754 q 1089 713 1051 713 m 221 887 l 473 887 q 533 907 511 887 q 555 955 555 928 q 533 1002 555 982 q 473 1023 511 1023 l 221 1023 q 161 1002 183 1023 q 140 955 140 982 q 161 907 140 928 q 221 887 183 887 m 1089 887 l 1341 887 q 1401 907 1379 887 q 1423 955 1423 928 q 1401 1002 1423 982 q 1341 1023 1379 1023 l 1089 1023 q 1029 1002 1051 1023 q 1008 955 1008 982 q 1029 907 1008 928 q 1089 887 1051 887 m 221 1061 l 473 1061 q 533 1081 511 1061 q 555 1128 555 1101 q 533 1176 555 1156 q 473 1196 511 1196 l 221 1196 q 161 1176 183 1196 q 140 1128 140 1156 q 161 1081 140 1101 q 221 1061 183 1061 m 1089 1061 l 1341 1061 q 1401 1081 1379 1061 q 1423 1128 1423 1101 q 1401 1176 1423 1156 q 1341 1196 1379 1196 l 1089 1196 q 1029 1176 1051 1196 q 1008 1128 1008 1156 q 1029 1081 1008 1101 q 1089 1061 1051 1061 z "},"X":{"ha":1389,"x_min":140,"x_max":1249,"o":"m 221 19 l 473 19 q 533 39 511 19 q 555 87 555 60 q 533 134 555 114 q 473 155 511 155 l 221 155 q 161 134 183 155 q 140 87 140 114 q 161 39 140 60 q 221 19 183 19 m 916 19 l 1168 19 q 1227 39 1206 19 q 1249 87 1249 60 q 1227 134 1249 114 q 1168 155 1206 155 l 916 155 q 856 134 878 155 q 834 87 834 114 q 856 39 834 60 q 916 19 878 19 m 221 193 l 473 193 q 533 213 511 193 q 555 260 555 233 q 533 308 555 288 q 473 328 511 328 l 221 328 q 161 308 183 328 q 140 260 140 288 q 161 213 140 233 q 221 193 183 193 m 916 193 l 1168 193 q 1227 213 1206 193 q 1249 260 1249 233 q 1227 308 1249 288 q 1168 328 1206 328 l 916 328 q 856 308 878 328 q 834 260 834 288 q 856 213 834 233 q 916 193 878 193 m 395 366 l 994 366 q 1054 387 1032 366 q 1076 434 1076 407 q 1054 481 1076 461 q 994 502 1032 502 l 395 502 q 335 481 357 502 q 313 434 313 461 q 335 387 313 407 q 395 366 357 366 m 568 540 l 821 540 q 880 560 859 540 q 902 608 902 581 q 880 655 902 635 q 821 675 859 675 l 568 675 q 509 655 530 675 q 487 608 487 635 q 509 560 487 581 q 568 540 530 540 m 395 713 l 994 713 q 1054 734 1032 713 q 1076 781 1076 754 q 1054 829 1076 808 q 994 849 1032 849 l 395 849 q 335 829 357 849 q 313 781 313 808 q 335 734 313 754 q 395 713 357 713 m 221 887 l 473 887 q 533 907 511 887 q 555 955 555 928 q 533 1002 555 982 q 473 1023 511 1023 l 221 1023 q 161 1002 183 1023 q 140 955 140 982 q 161 907 140 928 q 221 887 183 887 m 916 887 l 1168 887 q 1227 907 1206 887 q 1249 955 1249 928 q 1227 1002 1249 982 q 1168 1023 1206 1023 l 916 1023 q 856 1002 878 1023 q 834 955 834 982 q 856 907 834 928 q 916 887 878 887 m 221 1061 l 473 1061 q 533 1081 511 1061 q 555 1128 555 1101 q 533 1176 555 1156 q 473 1196 511 1196 l 221 1196 q 161 1176 183 1196 q 140 1128 140 1156 q 161 1081 140 1101 q 221 1061 183 1061 m 916 1061 l 1168 1061 q 1227 1081 1206 1061 q 1249 1128 1249 1101 q 1227 1176 1249 1156 q 1168 1196 1206 1196 l 916 1196 q 856 1176 878 1196 q 834 1128 834 1156 q 856 1081 834 1101 q 916 1061 878 1061 z "},"Y":{"ha":1389,"x_min":140,"x_max":1249,"o":"m 568 19 l 821 19 q 880 39 859 19 q 902 87 902 60 q 880 134 902 114 q 821 155 859 155 l 568 155 q 509 134 530 155 q 487 87 487 114 q 509 39 487 60 q 568 19 530 19 m 568 193 l 821 193 q 880 213 859 193 q 902 260 902 233 q 880 308 902 288 q 821 328 859 328 l 568 328 q 509 308 530 328 q 487 260 487 288 q 509 213 487 233 q 568 193 530 193 m 568 366 l 821 366 q 880 387 859 366 q 902 434 902 407 q 880 481 902 461 q 821 502 859 502 l 568 502 q 509 481 530 502 q 487 434 487 461 q 509 387 487 407 q 568 366 530 366 m 395 540 l 994 540 q 1054 560 1032 540 q 1076 608 1076 581 q 1054 655 1076 635 q 994 675 1032 675 l 395 675 q 335 655 357 675 q 313 608 313 635 q 335 560 313 581 q 395 540 357 540 m 221 713 l 473 713 q 533 734 511 713 q 555 781 555 754 q 533 829 555 808 q 473 849 511 849 l 221 849 q 161 829 183 849 q 140 781 140 808 q 161 734 140 754 q 221 713 183 713 m 916 713 l 1168 713 q 1227 734 1206 713 q 1249 781 1249 754 q 1227 829 1249 808 q 1168 849 1206 849 l 916 849 q 856 829 878 849 q 834 781 834 808 q 856 734 834 754 q 916 713 878 713 m 221 887 l 473 887 q 533 907 511 887 q 555 955 555 928 q 533 1002 555 982 q 473 1023 511 1023 l 221 1023 q 161 1002 183 1023 q 140 955 140 982 q 161 907 140 928 q 221 887 183 887 m 916 887 l 1168 887 q 1227 907 1206 887 q 1249 955 1249 928 q 1227 1002 1249 982 q 1168 1023 1206 1023 l 916 1023 q 856 1002 878 1023 q 834 955 834 982 q 856 907 834 928 q 916 887 878 887 m 221 1061 l 473 1061 q 533 1081 511 1061 q 555 1128 555 1101 q 533 1176 555 1156 q 473 1196 511 1196 l 221 1196 q 161 1176 183 1196 q 140 1128 140 1156 q 161 1081 140 1101 q 221 1061 183 1061 m 916 1061 l 1168 1061 q 1227 1081 1206 1061 q 1249 1128 1249 1101 q 1227 1176 1249 1156 q 1168 1196 1206 1196 l 916 1196 q 856 1176 878 1196 q 834 1128 834 1156 q 856 1081 834 1101 q 916 1061 878 1061 z "},"Ý":{"ha":1389,"x_min":140,"x_max":1249,"o":"m 568 19 l 821 19 q 880 39 859 19 q 902 87 902 60 q 880 134 902 114 q 821 155 859 155 l 568 155 q 509 134 530 155 q 487 87 487 114 q 509 39 487 60 q 568 19 530 19 m 568 193 l 821 193 q 880 213 859 193 q 902 260 902 233 q 880 308 902 288 q 821 328 859 328 l 568 328 q 509 308 530 328 q 487 260 487 288 q 509 213 487 233 q 568 193 530 193 m 395 366 l 994 366 q 1054 387 1032 366 q 1076 434 1076 407 q 1054 481 1076 461 q 994 502 1032 502 l 395 502 q 335 481 357 502 q 313 434 313 461 q 335 387 313 407 q 395 366 357 366 m 221 540 l 473 540 q 533 560 511 540 q 555 608 555 581 q 533 655 555 635 q 473 675 511 675 l 221 675 q 161 655 183 675 q 140 608 140 635 q 161 560 140 581 q 221 540 183 540 m 916 540 l 1168 540 q 1227 560 1206 540 q 1249 608 1249 581 q 1227 655 1249 635 q 1168 675 1206 675 l 916 675 q 856 655 878 675 q 834 608 834 635 q 856 560 834 581 q 916 540 878 540 m 221 713 l 473 713 q 533 734 511 713 q 555 781 555 754 q 533 829 555 808 q 473 849 511 849 l 221 849 q 161 829 183 849 q 140 781 140 808 q 161 734 140 754 q 221 713 183 713 m 916 713 l 1168 713 q 1227 734 1206 713 q 1249 781 1249 754 q 1227 829 1249 808 q 1168 849 1206 849 l 916 849 q 856 829 878 849 q 834 781 834 808 q 856 734 834 754 q 916 713 878 713 m 568 887 l 821 887 q 880 907 859 887 q 902 955 902 928 q 880 1002 902 982 q 821 1023 859 1023 l 568 1023 q 509 1002 530 1023 q 487 955 487 982 q 509 907 487 928 q 568 887 530 887 m 742 1061 l 994 1061 q 1054 1081 1032 1061 q 1076 1128 1076 1101 q 1054 1176 1076 1156 q 994 1196 1032 1196 l 742 1196 q 682 1176 704 1196 q 661 1128 661 1156 q 682 1081 661 1101 q 742 1061 704 1061 z "},"Z":{"ha":1389,"x_min":140,"x_max":1249,"o":"m 221 19 l 1168 19 q 1227 39 1206 19 q 1249 87 1249 60 q 1227 134 1249 114 q 1168 155 1206 155 l 221 155 q 161 134 183 155 q 140 87 140 114 q 161 39 140 60 q 221 19 183 19 m 221 193 l 473 193 q 533 213 511 193 q 555 260 555 233 q 533 308 555 288 q 473 328 511 328 l 221 328 q 161 308 183 328 q 140 260 140 288 q 161 213 140 233 q 221 193 183 193 m 395 366 l 647 366 q 707 387 685 366 q 728 434 728 407 q 707 481 728 461 q 647 502 685 502 l 395 502 q 335 481 357 502 q 313 434 313 461 q 335 387 313 407 q 395 366 357 366 m 568 540 l 821 540 q 880 560 859 540 q 902 608 902 581 q 880 655 902 635 q 821 675 859 675 l 568 675 q 509 655 530 675 q 487 608 487 635 q 509 560 487 581 q 568 540 530 540 m 742 713 l 994 713 q 1054 734 1032 713 q 1076 781 1076 754 q 1054 829 1076 808 q 994 849 1032 849 l 742 849 q 682 829 704 849 q 661 781 661 808 q 682 734 661 754 q 742 713 704 713 m 916 887 l 1168 887 q 1227 907 1206 887 q 1249 955 1249 928 q 1227 1002 1249 982 q 1168 1023 1206 1023 l 916 1023 q 856 1002 878 1023 q 834 955 834 982 q 856 907 834 928 q 916 887 878 887 m 221 1061 l 1168 1061 q 1227 1081 1206 1061 q 1249 1128 1249 1101 q 1227 1176 1249 1156 q 1168 1196 1206 1196 l 221 1196 q 161 1176 183 1196 q 140 1128 140 1156 q 161 1081 140 1101 q 221 1061 183 1061 z "},"a":{"ha":1389,"x_min":140,"x_max":1249,"o":"m 395 19 l 1168 19 q 1227 39 1206 19 q 1249 87 1249 60 q 1227 134 1249 114 q 1168 155 1206 155 l 395 155 q 335 134 357 155 q 313 87 313 114 q 335 39 313 60 q 395 19 357 19 m 221 193 l 473 193 q 533 213 511 193 q 555 260 555 233 q 533 308 555 288 q 473 328 511 328 l 221 328 q 161 308 183 328 q 140 260 140 288 q 161 213 140 233 q 221 193 183 193 m 916 193 l 1168 193 q 1227 213 1206 193 q 1249 260 1249 233 q 1227 308 1249 288 q 1168 328 1206 328 l 916 328 q 856 308 878 328 q 834 260 834 288 q 856 213 834 233 q 916 193 878 193 m 395 366 l 1168 366 q 1227 387 1206 366 q 1249 434 1249 407 q 1227 481 1249 461 q 1168 502 1206 502 l 395 502 q 335 481 357 502 q 313 434 313 461 q 335 387 313 407 q 395 366 357 366 m 916 540 l 1168 540 q 1227 560 1206 540 q 1249 608 1249 581 q 1227 655 1249 635 q 1168 675 1206 675 l 916 675 q 856 655 878 675 q 834 608 834 635 q 856 560 834 581 q 916 540 878 540 m 395 713 l 994 713 q 1054 734 1032 713 q 1076 781 1076 754 q 1054 829 1076 808 q 994 849 1032 849 l 395 849 q 335 829 357 849 q 313 781 313 808 q 335 734 313 754 q 395 713 357 713 z "},"á":{"ha":1389,"x_min":140,"x_max":1249,"o":"m 395 19 l 1168 19 q 1227 39 1206 19 q 1249 87 1249 60 q 1227 134 1249 114 q 1168 155 1206 155 l 395 155 q 335 134 357 155 q 313 87 313 114 q 335 39 313 60 q 395 19 357 19 m 221 193 l 473 193 q 533 213 511 193 q 555 260 555 233 q 533 308 555 288 q 473 328 511 328 l 221 328 q 161 308 183 328 q 140 260 140 288 q 161 213 140 233 q 221 193 183 193 m 916 193 l 1168 193 q 1227 213 1206 193 q 1249 260 1249 233 q 1227 308 1249 288 q 1168 328 1206 328 l 916 328 q 856 308 878 328 q 834 260 834 288 q 856 213 834 233 q 916 193 878 193 m 395 366 l 1168 366 q 1227 387 1206 366 q 1249 434 1249 407 q 1227 481 1249 461 q 1168 502 1206 502 l 395 502 q 335 481 357 502 q 313 434 313 461 q 335 387 313 407 q 395 366 357 366 m 916 540 l 1168 540 q 1227 560 1206 540 q 1249 608 1249 581 q 1227 655 1249 635 q 1168 675 1206 675 l 916 675 q 856 655 878 675 q 834 608 834 635 q 856 560 834 581 q 916 540 878 540 m 395 713 l 994 713 q 1054 734 1032 713 q 1076 781 1076 754 q 1054 829 1076 808 q 994 849 1032 849 l 395 849 q 335 829 357 849 q 313 781 313 808 q 335 734 313 754 q 395 713 357 713 m 568 887 l 821 887 q 880 907 859 887 q 902 955 902 928 q 880 1002 902 982 q 821 1023 859 1023 l 568 1023 q 509 1002 530 1023 q 487 955 487 982 q 509 907 487 928 q 568 887 530 887 m 742 1061 l 994 1061 q 1054 1081 1032 1061 q 1076 1128 1076 1101 q 1054 1176 1076 1156 q 994 1196 1032 1196 l 742 1196 q 682 1176 704 1196 q 661 1128 661 1156 q 682 1081 661 1101 q 742 1061 704 1061 z "},"â":{"ha":1389,"x_min":140,"x_max":1249,"o":"m 395 19 l 1168 19 q 1227 39 1206 19 q 1249 87 1249 60 q 1227 134 1249 114 q 1168 155 1206 155 l 395 155 q 335 134 357 155 q 313 87 313 114 q 335 39 313 60 q 395 19 357 19 m 221 193 l 473 193 q 533 213 511 193 q 555 260 555 233 q 533 308 555 288 q 473 328 511 328 l 221 328 q 161 308 183 328 q 140 260 140 288 q 161 213 140 233 q 221 193 183 193 m 916 193 l 1168 193 q 1227 213 1206 193 q 1249 260 1249 233 q 1227 308 1249 288 q 1168 328 1206 328 l 916 328 q 856 308 878 328 q 834 260 834 288 q 856 213 834 233 q 916 193 878 193 m 395 366 l 1168 366 q 1227 387 1206 366 q 1249 434 1249 407 q 1227 481 1249 461 q 1168 502 1206 502 l 395 502 q 335 481 357 502 q 313 434 313 461 q 335 387 313 407 q 395 366 357 366 m 916 540 l 1168 540 q 1227 560 1206 540 q 1249 608 1249 581 q 1227 655 1249 635 q 1168 675 1206 675 l 916 675 q 856 655 878 675 q 834 608 834 635 q 856 560 834 581 q 916 540 878 540 m 395 713 l 994 713 q 1054 734 1032 713 q 1076 781 1076 754 q 1054 829 1076 808 q 994 849 1032 849 l 395 849 q 335 829 357 849 q 313 781 313 808 q 335 734 313 754 q 395 713 357 713 m 221 887 l 473 887 q 533 907 511 887 q 555 955 555 928 q 533 1002 555 982 q 473 1023 511 1023 l 221 1023 q 161 1002 183 1023 q 140 955 140 982 q 161 907 140 928 q 221 887 183 887 m 916 887 l 1168 887 q 1227 907 1206 887 q 1249 955 1249 928 q 1227 1002 1249 982 q 1168 1023 1206 1023 l 916 1023 q 856 1002 878 1023 q 834 955 834 982 q 856 907 834 928 q 916 887 878 887 m 395 1061 l 994 1061 q 1054 1081 1032 1061 q 1076 1128 1076 1101 q 1054 1176 1076 1156 q 994 1196 1032 1196 l 395 1196 q 335 1176 357 1196 q 313 1128 313 1156 q 335 1081 313 1101 q 395 1061 357 1061 z "},"ä":{"ha":1389,"x_min":140,"x_max":1249,"o":"m 395 19 l 1168 19 q 1227 39 1206 19 q 1249 87 1249 60 q 1227 134 1249 114 q 1168 155 1206 155 l 395 155 q 335 134 357 155 q 313 87 313 114 q 335 39 313 60 q 395 19 357 19 m 221 193 l 473 193 q 533 213 511 193 q 555 260 555 233 q 533 308 555 288 q 473 328 511 328 l 221 328 q 161 308 183 328 q 140 260 140 288 q 161 213 140 233 q 221 193 183 193 m 916 193 l 1168 193 q 1227 213 1206 193 q 1249 260 1249 233 q 1227 308 1249 288 q 1168 328 1206 328 l 916 328 q 856 308 878 328 q 834 260 834 288 q 856 213 834 233 q 916 193 878 193 m 395 366 l 1168 366 q 1227 387 1206 366 q 1249 434 1249 407 q 1227 481 1249 461 q 1168 502 1206 502 l 395 502 q 335 481 357 502 q 313 434 313 461 q 335 387 313 407 q 395 366 357 366 m 916 540 l 1168 540 q 1227 560 1206 540 q 1249 608 1249 581 q 1227 655 1249 635 q 1168 675 1206 675 l 916 675 q 856 655 878 675 q 834 608 834 635 q 856 560 834 581 q 916 540 878 540 m 395 713 l 994 713 q 1054 734 1032 713 q 1076 781 1076 754 q 1054 829 1076 808 q 994 849 1032 849 l 395 849 q 335 829 357 849 q 313 781 313 808 q 335 734 313 754 q 395 713 357 713 m 221 1061 l 473 1061 q 533 1081 511 1061 q 555 1128 555 1101 q 533 1176 555 1156 q 473 1196 511 1196 l 221 1196 q 161 1176 183 1196 q 140 1128 140 1156 q 161 1081 140 1101 q 221 1061 183 1061 m 916 1061 l 1168 1061 q 1227 1081 1206 1061 q 1249 1128 1249 1101 q 1227 1176 1249 1156 q 1168 1196 1206 1196 l 916 1196 q 856 1176 878 1196 q 834 1128 834 1156 q 856 1081 834 1101 q 916 1061 878 1061 z "},"à":{"ha":1389,"x_min":140,"x_max":1249,"o":"m 395 19 l 1168 19 q 1227 39 1206 19 q 1249 87 1249 60 q 1227 134 1249 114 q 1168 155 1206 155 l 395 155 q 335 134 357 155 q 313 87 313 114 q 335 39 313 60 q 395 19 357 19 m 221 193 l 473 193 q 533 213 511 193 q 555 260 555 233 q 533 308 555 288 q 473 328 511 328 l 221 328 q 161 308 183 328 q 140 260 140 288 q 161 213 140 233 q 221 193 183 193 m 916 193 l 1168 193 q 1227 213 1206 193 q 1249 260 1249 233 q 1227 308 1249 288 q 1168 328 1206 328 l 916 328 q 856 308 878 328 q 834 260 834 288 q 856 213 834 233 q 916 193 878 193 m 395 366 l 1168 366 q 1227 387 1206 366 q 1249 434 1249 407 q 1227 481 1249 461 q 1168 502 1206 502 l 395 502 q 335 481 357 502 q 313 434 313 461 q 335 387 313 407 q 395 366 357 366 m 916 540 l 1168 540 q 1227 560 1206 540 q 1249 608 1249 581 q 1227 655 1249 635 q 1168 675 1206 675 l 916 675 q 856 655 878 675 q 834 608 834 635 q 856 560 834 581 q 916 540 878 540 m 395 713 l 994 713 q 1054 734 1032 713 q 1076 781 1076 754 q 1054 829 1076 808 q 994 849 1032 849 l 395 849 q 335 829 357 849 q 313 781 313 808 q 335 734 313 754 q 395 713 357 713 m 568 887 l 821 887 q 880 907 859 887 q 902 955 902 928 q 880 1002 902 982 q 821 1023 859 1023 l 568 1023 q 509 1002 530 1023 q 487 955 487 982 q 509 907 487 928 q 568 887 530 887 m 395 1061 l 647 1061 q 707 1081 685 1061 q 728 1128 728 1101 q 707 1176 728 1156 q 647 1196 685 1196 l 395 1196 q 335 1176 357 1196 q 313 1128 313 1156 q 335 1081 313 1101 q 395 1061 357 1061 z "},"å":{"ha":1389,"x_min":140,"x_max":1249,"o":"m 395 19 l 1168 19 q 1227 39 1206 19 q 1249 87 1249 60 q 1227 134 1249 114 q 1168 155 1206 155 l 395 155 q 335 134 357 155 q 313 87 313 114 q 335 39 313 60 q 395 19 357 19 m 221 193 l 473 193 q 533 213 511 193 q 555 260 555 233 q 533 308 555 288 q 473 328 511 328 l 221 328 q 161 308 183 328 q 140 260 140 288 q 161 213 140 233 q 221 193 183 193 m 916 193 l 1168 193 q 1227 213 1206 193 q 1249 260 1249 233 q 1227 308 1249 288 q 1168 328 1206 328 l 916 328 q 856 308 878 328 q 834 260 834 288 q 856 213 834 233 q 916 193 878 193 m 221 366 l 473 366 q 533 387 511 366 q 555 434 555 407 q 533 481 555 461 q 473 502 511 502 l 221 502 q 161 481 183 502 q 140 434 140 461 q 161 387 140 407 q 221 366 183 366 m 916 366 l 1168 366 q 1227 387 1206 366 q 1249 434 1249 407 q 1227 481 1249 461 q 1168 502 1206 502 l 916 502 q 856 481 878 502 q 834 434 834 461 q 856 387 834 407 q 916 366 878 366 m 395 540 l 1168 540 q 1227 560 1206 540 q 1249 608 1249 581 q 1227 655 1249 635 q 1168 675 1206 675 l 395 675 q 335 655 357 675 q 313 608 313 635 q 335 560 313 581 q 395 540 357 540 m 395 713 l 994 713 q 1054 734 1032 713 q 1076 781 1076 754 q 1054 829 1076 808 q 994 849 1032 849 l 395 849 q 335 829 357 849 q 313 781 313 808 q 335 734 313 754 q 395 713 357 713 m 221 887 l 473 887 q 533 907 511 887 q 555 955 555 928 q 533 1002 555 982 q 473 1023 511 1023 l 221 1023 q 161 1002 183 1023 q 140 955 140 982 q 161 907 140 928 q 221 887 183 887 m 916 887 l 1168 887 q 1227 907 1206 887 q 1249 955 1249 928 q 1227 1002 1249 982 q 1168 1023 1206 1023 l 916 1023 q 856 1002 878 1023 q 834 955 834 982 q 856 907 834 928 q 916 887 878 887 m 395 1061 l 994 1061 q 1054 1081 1032 1061 q 1076 1128 1076 1101 q 1054 1176 1076 1156 q 994 1196 1032 1196 l 395 1196 q 335 1176 357 1196 q 313 1128 313 1156 q 335 1081 313 1101 q 395 1061 357 1061 z "},"ã":{"ha":1389,"x_min":140,"x_max":1423,"o":"m 395 19 l 1168 19 q 1227 39 1206 19 q 1249 87 1249 60 q 1227 134 1249 114 q 1168 155 1206 155 l 395 155 q 335 134 357 155 q 313 87 313 114 q 335 39 313 60 q 395 19 357 19 m 221 193 l 473 193 q 533 213 511 193 q 555 260 555 233 q 533 308 555 288 q 473 328 511 328 l 221 328 q 161 308 183 328 q 140 260 140 288 q 161 213 140 233 q 221 193 183 193 m 916 193 l 1168 193 q 1227 213 1206 193 q 1249 260 1249 233 q 1227 308 1249 288 q 1168 328 1206 328 l 916 328 q 856 308 878 328 q 834 260 834 288 q 856 213 834 233 q 916 193 878 193 m 395 366 l 1168 366 q 1227 387 1206 366 q 1249 434 1249 407 q 1227 481 1249 461 q 1168 502 1206 502 l 395 502 q 335 481 357 502 q 313 434 313 461 q 335 387 313 407 q 395 366 357 366 m 916 540 l 1168 540 q 1227 560 1206 540 q 1249 608 1249 581 q 1227 655 1249 635 q 1168 675 1206 675 l 916 675 q 856 655 878 675 q 834 608 834 635 q 856 560 834 581 q 916 540 878 540 m 395 713 l 994 713 q 1054 734 1032 713 q 1076 781 1076 754 q 1054 829 1076 808 q 994 849 1032 849 l 395 849 q 335 829 357 849 q 313 781 313 808 q 335 734 313 754 q 395 713 357 713 m 221 887 l 473 887 q 533 907 511 887 q 555 955 555 928 q 533 1002 555 982 q 473 1023 511 1023 l 221 1023 q 161 1002 183 1023 q 140 955 140 982 q 161 907 140 928 q 221 887 183 887 m 742 887 l 1168 887 q 1227 907 1206 887 q 1249 955 1249 928 q 1227 1002 1249 982 q 1168 1023 1206 1023 l 742 1023 q 682 1002 704 1023 q 661 955 661 982 q 682 907 661 928 q 742 887 704 887 m 395 1061 l 821 1061 q 880 1081 859 1061 q 902 1128 902 1101 q 880 1176 902 1156 q 821 1196 859 1196 l 395 1196 q 335 1176 357 1196 q 313 1128 313 1156 q 335 1081 313 1101 q 395 1061 357 1061 m 1089 1061 l 1341 1061 q 1401 1081 1379 1061 q 1423 1128 1423 1101 q 1401 1176 1423 1156 q 1341 1196 1379 1196 l 1089 1196 q 1029 1176 1051 1196 q 1008 1128 1008 1156 q 1029 1081 1008 1101 q 1089 1061 1051 1061 z "},"æ":{"ha":1389,"x_min":140,"x_max":1423,"o":"m 395 19 l 647 19 q 707 39 685 19 q 728 87 728 60 q 707 134 728 114 q 647 155 685 155 l 395 155 q 335 134 357 155 q 313 87 313 114 q 335 39 313 60 q 395 19 357 19 m 916 19 l 1341 19 q 1401 39 1379 19 q 1423 87 1423 60 q 1401 134 1423 114 q 1341 155 1379 155 l 916 155 q 856 134 878 155 q 834 87 834 114 q 856 39 834 60 q 916 19 878 19 m 221 193 l 473 193 q 533 213 511 193 q 555 260 555 233 q 533 308 555 288 q 473 328 511 328 l 221 328 q 161 308 183 328 q 140 260 140 288 q 161 213 140 233 q 221 193 183 193 m 742 193 l 994 193 q 1054 213 1032 193 q 1076 260 1076 233 q 1054 308 1076 288 q 994 328 1032 328 l 742 328 q 682 308 704 328 q 661 260 661 288 q 682 213 661 233 q 742 193 704 193 m 395 366 l 1341 366 q 1401 387 1379 366 q 1423 434 1423 407 q 1401 481 1423 461 q 1341 502 1379 502 l 395 502 q 335 481 357 502 q 313 434 313 461 q 335 387 313 407 q 395 366 357 366 m 742 540 l 994 540 q 1054 560 1032 540 q 1076 608 1076 581 q 1054 655 1076 635 q 994 675 1032 675 l 742 675 q 682 655 704 675 q 661 608 661 635 q 682 560 661 581 q 742 540 704 540 m 1251 540 l 1354 540 q 1403 560 1383 540 q 1423 608 1423 581 q 1403 655 1423 635 q 1354 675 1383 675 l 1251 675 q 1201 655 1221 675 q 1181 608 1181 635 q 1201 560 1181 581 q 1251 540 1221 540 m 395 713 l 1168 713 q 1227 734 1206 713 q 1249 781 1249 754 q 1227 829 1249 808 q 1168 849 1206 849 l 395 849 q 335 829 357 849 q 313 781 313 808 q 335 734 313 754 q 395 713 357 713 z "},"b":{"ha":1389,"x_min":140,"x_max":1249,"o":"m 221 19 l 994 19 q 1054 39 1032 19 q 1076 87 1076 60 q 1054 134 1076 114 q 994 155 1032 155 l 221 155 q 161 134 183 155 q 140 87 140 114 q 161 39 140 60 q 221 19 183 19 m 221 193 l 473 193 q 533 213 511 193 q 555 260 555 233 q 533 308 555 288 q 473 328 511 328 l 221 328 q 161 308 183 328 q 140 260 140 288 q 161 213 140 233 q 221 193 183 193 m 916 193 l 1168 193 q 1227 213 1206 193 q 1249 260 1249 233 q 1227 308 1249 288 q 1168 328 1206 328 l 916 328 q 856 308 878 328 q 834 260 834 288 q 856 213 834 233 q 916 193 878 193 m 221 366 l 473 366 q 533 387 511 366 q 555 434 555 407 q 533 481 555 461 q 473 502 511 502 l 221 502 q 161 481 183 502 q 140 434 140 461 q 161 387 140 407 q 221 366 183 366 m 916 366 l 1168 366 q 1227 387 1206 366 q 1249 434 1249 407 q 1227 481 1249 461 q 1168 502 1206 502 l 916 502 q 856 481 878 502 q 834 434 834 461 q 856 387 834 407 q 916 366 878 366 m 221 540 l 994 540 q 1054 560 1032 540 q 1076 608 1076 581 q 1054 655 1076 635 q 994 675 1032 675 l 221 675 q 161 655 183 675 q 140 608 140 635 q 161 560 140 581 q 221 540 183 540 m 221 713 l 473 713 q 533 734 511 713 q 555 781 555 754 q 533 829 555 808 q 473 849 511 849 l 221 849 q 161 829 183 849 q 140 781 140 808 q 161 734 140 754 q 221 713 183 713 m 221 887 l 473 887 q 533 907 511 887 q 555 955 555 928 q 533 1002 555 982 q 473 1023 511 1023 l 221 1023 q 161 1002 183 1023 q 140 955 140 982 q 161 907 140 928 q 221 887 183 887 z "},"c":{"ha":1389,"x_min":140,"x_max":1076,"o":"m 395 19 l 994 19 q 1054 39 1032 19 q 1076 87 1076 60 q 1054 134 1076 114 q 994 155 1032 155 l 395 155 q 335 134 357 155 q 313 87 313 114 q 335 39 313 60 q 395 19 357 19 m 221 193 l 473 193 q 533 213 511 193 q 555 260 555 233 q 533 308 555 288 q 473 328 511 328 l 221 328 q 161 308 183 328 q 140 260 140 288 q 161 213 140 233 q 221 193 183 193 m 221 366 l 473 366 q 533 387 511 366 q 555 434 555 407 q 533 481 555 461 q 473 502 511 502 l 221 502 q 161 481 183 502 q 140 434 140 461 q 161 387 140 407 q 221 366 183 366 m 221 540 l 473 540 q 533 560 511 540 q 555 608 555 581 q 533 655 555 635 q 473 675 511 675 l 221 675 q 161 655 183 675 q 140 608 140 635 q 161 560 140 581 q 221 540 183 540 m 395 713 l 994 713 q 1054 734 1032 713 q 1076 781 1076 754 q 1054 829 1076 808 q 994 849 1032 849 l 395 849 q 335 829 357 849 q 313 781 313 808 q 335 734 313 754 q 395 713 357 713 z "},"ç":{"ha":1389,"x_min":140,"x_max":1076,"o":"m 395 -155 l 647 -155 q 707 -134 685 -155 q 728 -87 728 -114 q 707 -39 728 -60 q 647 -19 685 -19 l 395 -19 q 335 -39 357 -19 q 313 -87 313 -60 q 335 -134 313 -114 q 395 -155 357 -155 m 568 19 l 821 19 q 880 39 859 19 q 902 87 902 60 q 880 134 902 114 q 821 155 859 155 l 568 155 q 509 134 530 155 q 487 87 487 114 q 509 39 487 60 q 568 19 530 19 m 395 193 l 994 193 q 1054 213 1032 193 q 1076 260 1076 233 q 1054 308 1076 288 q 994 328 1032 328 l 395 328 q 335 308 357 328 q 313 260 313 288 q 335 213 313 233 q 395 193 357 193 m 221 366 l 473 366 q 533 387 511 366 q 555 434 555 407 q 533 481 555 461 q 473 502 511 502 l 221 502 q 161 481 183 502 q 140 434 140 461 q 161 387 140 407 q 221 366 183 366 m 221 540 l 473 540 q 533 560 511 540 q 555 608 555 581 q 533 655 555 635 q 473 675 511 675 l 221 675 q 161 655 183 675 q 140 608 140 635 q 161 560 140 581 q 221 540 183 540 m 395 713 l 994 713 q 1054 734 1032 713 q 1076 781 1076 754 q 1054 829 1076 808 q 994 849 1032 849 l 395 849 q 335 829 357 849 q 313 781 313 808 q 335 734 313 754 q 395 713 357 713 z "},"d":{"ha":1389,"x_min":140,"x_max":1249,"o":"m 395 19 l 1168 19 q 1227 39 1206 19 q 1249 87 1249 60 q 1227 134 1249 114 q 1168 155 1206 155 l 395 155 q 335 134 357 155 q 313 87 313 114 q 335 39 313 60 q 395 19 357 19 m 221 193 l 473 193 q 533 213 511 193 q 555 260 555 233 q 533 308 555 288 q 473 328 511 328 l 221 328 q 161 308 183 328 q 140 260 140 288 q 161 213 140 233 q 221 193 183 193 m 916 193 l 1168 193 q 1227 213 1206 193 q 1249 260 1249 233 q 1227 308 1249 288 q 1168 328 1206 328 l 916 328 q 856 308 878 328 q 834 260 834 288 q 856 213 834 233 q 916 193 878 193 m 221 366 l 473 366 q 533 387 511 366 q 555 434 555 407 q 533 481 555 461 q 473 502 511 502 l 221 502 q 161 481 183 502 q 140 434 140 461 q 161 387 140 407 q 221 366 183 366 m 916 366 l 1168 366 q 1227 387 1206 366 q 1249 434 1249 407 q 1227 481 1249 461 q 1168 502 1206 502 l 916 502 q 856 481 878 502 q 834 434 834 461 q 856 387 834 407 q 916 366 878 366 m 395 540 l 1168 540 q 1227 560 1206 540 q 1249 608 1249 581 q 1227 655 1249 635 q 1168 675 1206 675 l 395 675 q 335 655 357 675 q 313 608 313 635 q 335 560 313 581 q 395 540 357 540 m 916 713 l 1168 713 q 1227 734 1206 713 q 1249 781 1249 754 q 1227 829 1249 808 q 1168 849 1206 849 l 916 849 q 856 829 878 849 q 834 781 834 808 q 856 734 834 754 q 916 713 878 713 m 916 887 l 1168 887 q 1227 907 1206 887 q 1249 955 1249 928 q 1227 1002 1249 982 q 1168 1023 1206 1023 l 916 1023 q 856 1002 878 1023 q 834 955 834 982 q 856 907 834 928 q 916 887 878 887 z "},"ð":{"ha":1389,"x_min":140,"x_max":1423,"o":"m 395 19 l 994 19 q 1054 39 1032 19 q 1076 87 1076 60 q 1054 134 1076 114 q 994 155 1032 155 l 395 155 q 335 134 357 155 q 313 87 313 114 q 335 39 313 60 q 395 19 357 19 m 221 193 l 473 193 q 533 213 511 193 q 555 260 555 233 q 533 308 555 288 q 473 328 511 328 l 221 328 q 161 308 183 328 q 140 260 140 288 q 161 213 140 233 q 221 193 183 193 m 916 193 l 1168 193 q 1227 213 1206 193 q 1249 260 1249 233 q 1227 308 1249 288 q 1168 328 1206 328 l 916 328 q 856 308 878 328 q 834 260 834 288 q 856 213 834 233 q 916 193 878 193 m 221 366 l 473 366 q 533 387 511 366 q 555 434 555 407 q 533 481 555 461 q 473 502 511 502 l 221 502 q 161 481 183 502 q 140 434 140 461 q 161 387 140 407 q 221 366 183 366 m 916 366 l 1168 366 q 1227 387 1206 366 q 1249 434 1249 407 q 1227 481 1249 461 q 1168 502 1206 502 l 916 502 q 856 481 878 502 q 834 434 834 461 q 856 387 834 407 q 916 366 878 366 m 395 540 l 1168 540 q 1227 560 1206 540 q 1249 608 1249 581 q 1227 655 1249 635 q 1168 675 1206 675 l 395 675 q 335 655 357 675 q 313 608 313 635 q 335 560 313 581 q 395 540 357 540 m 916 713 l 1168 713 q 1227 734 1206 713 q 1249 781 1249 754 q 1227 829 1249 808 q 1168 849 1206 849 l 916 849 q 856 829 878 849 q 834 781 834 808 q 856 734 834 754 q 916 713 878 713 m 742 887 l 1341 887 q 1401 907 1379 887 q 1423 955 1423 928 q 1401 1002 1423 982 q 1341 1023 1379 1023 l 742 1023 q 682 1002 704 1023 q 661 955 661 982 q 682 907 661 928 q 742 887 704 887 m 395 1061 l 994 1061 q 1054 1081 1032 1061 q 1076 1128 1076 1101 q 1054 1176 1076 1156 q 994 1196 1032 1196 l 395 1196 q 335 1176 357 1196 q 313 1128 313 1156 q 335 1081 313 1101 q 395 1061 357 1061 z "},"e":{"ha":1389,"x_min":140,"x_max":1249,"o":"m 395 19 l 994 19 q 1054 39 1032 19 q 1076 87 1076 60 q 1054 134 1076 114 q 994 155 1032 155 l 395 155 q 335 134 357 155 q 313 87 313 114 q 335 39 313 60 q 395 19 357 19 m 221 193 l 473 193 q 533 213 511 193 q 555 260 555 233 q 533 308 555 288 q 473 328 511 328 l 221 328 q 161 308 183 328 q 140 260 140 288 q 161 213 140 233 q 221 193 183 193 m 221 366 l 1168 366 q 1227 387 1206 366 q 1249 434 1249 407 q 1227 481 1249 461 q 1168 502 1206 502 l 221 502 q 161 481 183 502 q 140 434 140 461 q 161 387 140 407 q 221 366 183 366 m 221 540 l 473 540 q 533 560 511 540 q 555 608 555 581 q 533 655 555 635 q 473 675 511 675 l 221 675 q 161 655 183 675 q 140 608 140 635 q 161 560 140 581 q 221 540 183 540 m 916 540 l 1168 540 q 1227 560 1206 540 q 1249 608 1249 581 q 1227 655 1249 635 q 1168 675 1206 675 l 916 675 q 856 655 878 675 q 834 608 834 635 q 856 560 834 581 q 916 540 878 540 m 395 713 l 994 713 q 1054 734 1032 713 q 1076 781 1076 754 q 1054 829 1076 808 q 994 849 1032 849 l 395 849 q 335 829 357 849 q 313 781 313 808 q 335 734 313 754 q 395 713 357 713 z "},"é":{"ha":1389,"x_min":140,"x_max":1249,"o":"m 395 19 l 994 19 q 1054 39 1032 19 q 1076 87 1076 60 q 1054 134 1076 114 q 994 155 1032 155 l 395 155 q 335 134 357 155 q 313 87 313 114 q 335 39 313 60 q 395 19 357 19 m 221 193 l 473 193 q 533 213 511 193 q 555 260 555 233 q 533 308 555 288 q 473 328 511 328 l 221 328 q 161 308 183 328 q 140 260 140 288 q 161 213 140 233 q 221 193 183 193 m 221 366 l 1168 366 q 1227 387 1206 366 q 1249 434 1249 407 q 1227 481 1249 461 q 1168 502 1206 502 l 221 502 q 161 481 183 502 q 140 434 140 461 q 161 387 140 407 q 221 366 183 366 m 221 540 l 473 540 q 533 560 511 540 q 555 608 555 581 q 533 655 555 635 q 473 675 511 675 l 221 675 q 161 655 183 675 q 140 608 140 635 q 161 560 140 581 q 221 540 183 540 m 916 540 l 1168 540 q 1227 560 1206 540 q 1249 608 1249 581 q 1227 655 1249 635 q 1168 675 1206 675 l 916 675 q 856 655 878 675 q 834 608 834 635 q 856 560 834 581 q 916 540 878 540 m 395 713 l 994 713 q 1054 734 1032 713 q 1076 781 1076 754 q 1054 829 1076 808 q 994 849 1032 849 l 395 849 q 335 829 357 849 q 313 781 313 808 q 335 734 313 754 q 395 713 357 713 m 568 887 l 821 887 q 880 907 859 887 q 902 955 902 928 q 880 1002 902 982 q 821 1023 859 1023 l 568 1023 q 509 1002 530 1023 q 487 955 487 982 q 509 907 487 928 q 568 887 530 887 m 742 1061 l 994 1061 q 1054 1081 1032 1061 q 1076 1128 1076 1101 q 1054 1176 1076 1156 q 994 1196 1032 1196 l 742 1196 q 682 1176 704 1196 q 661 1128 661 1156 q 682 1081 661 1101 q 742 1061 704 1061 z "},"ê":{"ha":1389,"x_min":140,"x_max":1249,"o":"m 395 19 l 994 19 q 1054 39 1032 19 q 1076 87 1076 60 q 1054 134 1076 114 q 994 155 1032 155 l 395 155 q 335 134 357 155 q 313 87 313 114 q 335 39 313 60 q 395 19 357 19 m 221 193 l 473 193 q 533 213 511 193 q 555 260 555 233 q 533 308 555 288 q 473 328 511 328 l 221 328 q 161 308 183 328 q 140 260 140 288 q 161 213 140 233 q 221 193 183 193 m 221 366 l 1168 366 q 1227 387 1206 366 q 1249 434 1249 407 q 1227 481 1249 461 q 1168 502 1206 502 l 221 502 q 161 481 183 502 q 140 434 140 461 q 161 387 140 407 q 221 366 183 366 m 221 540 l 473 540 q 533 560 511 540 q 555 608 555 581 q 533 655 555 635 q 473 675 511 675 l 221 675 q 161 655 183 675 q 140 608 140 635 q 161 560 140 581 q 221 540 183 540 m 916 540 l 1168 540 q 1227 560 1206 540 q 1249 608 1249 581 q 1227 655 1249 635 q 1168 675 1206 675 l 916 675 q 856 655 878 675 q 834 608 834 635 q 856 560 834 581 q 916 540 878 540 m 395 713 l 994 713 q 1054 734 1032 713 q 1076 781 1076 754 q 1054 829 1076 808 q 994 849 1032 849 l 395 849 q 335 829 357 849 q 313 781 313 808 q 335 734 313 754 q 395 713 357 713 m 221 887 l 473 887 q 533 907 511 887 q 555 955 555 928 q 533 1002 555 982 q 473 1023 511 1023 l 221 1023 q 161 1002 183 1023 q 140 955 140 982 q 161 907 140 928 q 221 887 183 887 m 916 887 l 1168 887 q 1227 907 1206 887 q 1249 955 1249 928 q 1227 1002 1249 982 q 1168 1023 1206 1023 l 916 1023 q 856 1002 878 1023 q 834 955 834 982 q 856 907 834 928 q 916 887 878 887 m 395 1061 l 994 1061 q 1054 1081 1032 1061 q 1076 1128 1076 1101 q 1054 1176 1076 1156 q 994 1196 1032 1196 l 395 1196 q 335 1176 357 1196 q 313 1128 313 1156 q 335 1081 313 1101 q 395 1061 357 1061 z "},"ë":{"ha":1389,"x_min":140,"x_max":1249,"o":"m 395 19 l 994 19 q 1054 39 1032 19 q 1076 87 1076 60 q 1054 134 1076 114 q 994 155 1032 155 l 395 155 q 335 134 357 155 q 313 87 313 114 q 335 39 313 60 q 395 19 357 19 m 221 193 l 473 193 q 533 213 511 193 q 555 260 555 233 q 533 308 555 288 q 473 328 511 328 l 221 328 q 161 308 183 328 q 140 260 140 288 q 161 213 140 233 q 221 193 183 193 m 221 366 l 1168 366 q 1227 387 1206 366 q 1249 434 1249 407 q 1227 481 1249 461 q 1168 502 1206 502 l 221 502 q 161 481 183 502 q 140 434 140 461 q 161 387 140 407 q 221 366 183 366 m 221 540 l 473 540 q 533 560 511 540 q 555 608 555 581 q 533 655 555 635 q 473 675 511 675 l 221 675 q 161 655 183 675 q 140 608 140 635 q 161 560 140 581 q 221 540 183 540 m 916 540 l 1168 540 q 1227 560 1206 540 q 1249 608 1249 581 q 1227 655 1249 635 q 1168 675 1206 675 l 916 675 q 856 655 878 675 q 834 608 834 635 q 856 560 834 581 q 916 540 878 540 m 395 713 l 994 713 q 1054 734 1032 713 q 1076 781 1076 754 q 1054 829 1076 808 q 994 849 1032 849 l 395 849 q 335 829 357 849 q 313 781 313 808 q 335 734 313 754 q 395 713 357 713 m 221 1061 l 473 1061 q 533 1081 511 1061 q 555 1128 555 1101 q 533 1176 555 1156 q 473 1196 511 1196 l 221 1196 q 161 1176 183 1196 q 140 1128 140 1156 q 161 1081 140 1101 q 221 1061 183 1061 m 916 1061 l 1168 1061 q 1227 1081 1206 1061 q 1249 1128 1249 1101 q 1227 1176 1249 1156 q 1168 1196 1206 1196 l 916 1196 q 856 1176 878 1196 q 834 1128 834 1156 q 856 1081 834 1101 q 916 1061 878 1061 z "},"è":{"ha":1389,"x_min":140,"x_max":1249,"o":"m 395 19 l 994 19 q 1054 39 1032 19 q 1076 87 1076 60 q 1054 134 1076 114 q 994 155 1032 155 l 395 155 q 335 134 357 155 q 313 87 313 114 q 335 39 313 60 q 395 19 357 19 m 221 193 l 473 193 q 533 213 511 193 q 555 260 555 233 q 533 308 555 288 q 473 328 511 328 l 221 328 q 161 308 183 328 q 140 260 140 288 q 161 213 140 233 q 221 193 183 193 m 221 366 l 1168 366 q 1227 387 1206 366 q 1249 434 1249 407 q 1227 481 1249 461 q 1168 502 1206 502 l 221 502 q 161 481 183 502 q 140 434 140 461 q 161 387 140 407 q 221 366 183 366 m 221 540 l 473 540 q 533 560 511 540 q 555 608 555 581 q 533 655 555 635 q 473 675 511 675 l 221 675 q 161 655 183 675 q 140 608 140 635 q 161 560 140 581 q 221 540 183 540 m 916 540 l 1168 540 q 1227 560 1206 540 q 1249 608 1249 581 q 1227 655 1249 635 q 1168 675 1206 675 l 916 675 q 856 655 878 675 q 834 608 834 635 q 856 560 834 581 q 916 540 878 540 m 395 713 l 994 713 q 1054 734 1032 713 q 1076 781 1076 754 q 1054 829 1076 808 q 994 849 1032 849 l 395 849 q 335 829 357 849 q 313 781 313 808 q 335 734 313 754 q 395 713 357 713 m 568 887 l 821 887 q 880 907 859 887 q 902 955 902 928 q 880 1002 902 982 q 821 1023 859 1023 l 568 1023 q 509 1002 530 1023 q 487 955 487 982 q 509 907 487 928 q 568 887 530 887 m 395 1061 l 647 1061 q 707 1081 685 1061 q 728 1128 728 1101 q 707 1176 728 1156 q 647 1196 685 1196 l 395 1196 q 335 1176 357 1196 q 313 1128 313 1156 q 335 1081 313 1101 q 395 1061 357 1061 z "},"f":{"ha":1389,"x_min":313,"x_max":1249,"o":"m 568 19 l 821 19 q 880 39 859 19 q 902 87 902 60 q 880 134 902 114 q 821 155 859 155 l 568 155 q 509 134 530 155 q 487 87 487 114 q 509 39 487 60 q 568 19 530 19 m 568 193 l 821 193 q 880 213 859 193 q 902 260 902 233 q 880 308 902 288 q 821 328 859 328 l 568 328 q 509 308 530 328 q 487 260 487 288 q 509 213 487 233 q 568 193 530 193 m 568 366 l 821 366 q 880 387 859 366 q 902 434 902 407 q 880 481 902 461 q 821 502 859 502 l 568 502 q 509 481 530 502 q 487 434 487 461 q 509 387 487 407 q 568 366 530 366 m 395 540 l 1168 540 q 1227 560 1206 540 q 1249 608 1249 581 q 1227 655 1249 635 q 1168 675 1206 675 l 395 675 q 335 655 357 675 q 313 608 313 635 q 335 560 313 581 q 395 540 357 540 m 568 713 l 821 713 q 880 734 859 713 q 902 781 902 754 q 880 829 902 808 q 821 849 859 849 l 568 849 q 509 829 530 849 q 487 781 487 808 q 509 734 487 754 q 568 713 530 713 m 742 887 l 1168 887 q 1227 907 1206 887 q 1249 955 1249 928 q 1227 1002 1249 982 q 1168 1023 1206 1023 l 742 1023 q 682 1002 704 1023 q 661 955 661 982 q 682 907 661 928 q 742 887 704 887 z "},"g":{"ha":1389,"x_min":140,"x_max":1249,"o":"m 221 -155 l 994 -155 q 1054 -134 1032 -155 q 1076 -87 1076 -114 q 1054 -39 1076 -60 q 994 -19 1032 -19 l 221 -19 q 161 -39 183 -19 q 140 -87 140 -60 q 161 -134 140 -114 q 221 -155 183 -155 m 916 19 l 1168 19 q 1227 39 1206 19 q 1249 87 1249 60 q 1227 134 1249 114 q 1168 155 1206 155 l 916 155 q 856 134 878 155 q 834 87 834 114 q 856 39 834 60 q 916 19 878 19 m 395 193 l 1168 193 q 1227 213 1206 193 q 1249 260 1249 233 q 1227 308 1249 288 q 1168 328 1206 328 l 395 328 q 335 308 357 328 q 313 260 313 288 q 335 213 313 233 q 395 193 357 193 m 221 366 l 473 366 q 533 387 511 366 q 555 434 555 407 q 533 481 555 461 q 473 502 511 502 l 221 502 q 161 481 183 502 q 140 434 140 461 q 161 387 140 407 q 221 366 183 366 m 916 366 l 1168 366 q 1227 387 1206 366 q 1249 434 1249 407 q 1227 481 1249 461 q 1168 502 1206 502 l 916 502 q 856 481 878 502 q 834 434 834 461 q 856 387 834 407 q 916 366 878 366 m 221 540 l 473 540 q 533 560 511 540 q 555 608 555 581 q 533 655 555 635 q 473 675 511 675 l 221 675 q 161 655 183 675 q 140 608 140 635 q 161 560 140 581 q 221 540 183 540 m 916 540 l 1168 540 q 1227 560 1206 540 q 1249 608 1249 581 q 1227 655 1249 635 q 1168 675 1206 675 l 916 675 q 856 655 878 675 q 834 608 834 635 q 856 560 834 581 q 916 540 878 540 m 395 713 l 1168 713 q 1227 734 1206 713 q 1249 781 1249 754 q 1227 829 1249 808 q 1168 849 1206 849 l 395 849 q 335 829 357 849 q 313 781 313 808 q 335 734 313 754 q 395 713 357 713 z "},"h":{"ha":1389,"x_min":140,"x_max":1249,"o":"m 221 19 l 473 19 q 533 39 511 19 q 555 87 555 60 q 533 134 555 114 q 473 155 511 155 l 221 155 q 161 134 183 155 q 140 87 140 114 q 161 39 140 60 q 221 19 183 19 m 916 19 l 1168 19 q 1227 39 1206 19 q 1249 87 1249 60 q 1227 134 1249 114 q 1168 155 1206 155 l 916 155 q 856 134 878 155 q 834 87 834 114 q 856 39 834 60 q 916 19 878 19 m 221 193 l 473 193 q 533 213 511 193 q 555 260 555 233 q 533 308 555 288 q 473 328 511 328 l 221 328 q 161 308 183 328 q 140 260 140 288 q 161 213 140 233 q 221 193 183 193 m 916 193 l 1168 193 q 1227 213 1206 193 q 1249 260 1249 233 q 1227 308 1249 288 q 1168 328 1206 328 l 916 328 q 856 308 878 328 q 834 260 834 288 q 856 213 834 233 q 916 193 878 193 m 221 366 l 473 366 q 533 387 511 366 q 555 434 555 407 q 533 481 555 461 q 473 502 511 502 l 221 502 q 161 481 183 502 q 140 434 140 461 q 161 387 140 407 q 221 366 183 366 m 916 366 l 1168 366 q 1227 387 1206 366 q 1249 434 1249 407 q 1227 481 1249 461 q 1168 502 1206 502 l 916 502 q 856 481 878 502 q 834 434 834 461 q 856 387 834 407 q 916 366 878 366 m 221 540 l 994 540 q 1054 560 1032 540 q 1076 608 1076 581 q 1054 655 1076 635 q 994 675 1032 675 l 221 675 q 161 655 183 675 q 140 608 140 635 q 161 560 140 581 q 221 540 183 540 m 221 713 l 473 713 q 533 734 511 713 q 555 781 555 754 q 533 829 555 808 q 473 849 511 849 l 221 849 q 161 829 183 849 q 140 781 140 808 q 161 734 140 754 q 221 713 183 713 m 221 887 l 473 887 q 533 907 511 887 q 555 955 555 928 q 533 1002 555 982 q 473 1023 511 1023 l 221 1023 q 161 1002 183 1023 q 140 955 140 982 q 161 907 140 928 q 221 887 183 887 z "},"i":{"ha":1389,"x_min":313,"x_max":1076,"o":"m 395 19 l 994 19 q 1054 39 1032 19 q 1076 87 1076 60 q 1054 134 1076 114 q 994 155 1032 155 l 395 155 q 335 134 357 155 q 313 87 313 114 q 335 39 313 60 q 395 19 357 19 m 568 193 l 821 193 q 880 213 859 193 q 902 260 902 233 q 880 308 902 288 q 821 328 859 328 l 568 328 q 509 308 530 328 q 487 260 487 288 q 509 213 487 233 q 568 193 530 193 m 568 366 l 821 366 q 880 387 859 366 q 902 434 902 407 q 880 481 902 461 q 821 502 859 502 l 568 502 q 509 481 530 502 q 487 434 487 461 q 509 387 487 407 q 568 366 530 366 m 395 540 l 821 540 q 880 560 859 540 q 902 608 902 581 q 880 655 902 635 q 821 675 859 675 l 395 675 q 335 655 357 675 q 313 608 313 635 q 335 560 313 581 q 395 540 357 540 m 568 887 l 821 887 q 880 907 859 887 q 902 955 902 928 q 880 1002 902 982 q 821 1023 859 1023 l 568 1023 q 509 1002 530 1023 q 487 955 487 982 q 509 907 487 928 q 568 887 530 887 z "},"ı":{"ha":1389,"x_min":313,"x_max":1076,"o":"m 395 19 l 994 19 q 1054 39 1032 19 q 1076 87 1076 60 q 1054 134 1076 114 q 994 155 1032 155 l 395 155 q 335 134 357 155 q 313 87 313 114 q 335 39 313 60 q 395 19 357 19 m 568 193 l 821 193 q 880 213 859 193 q 902 260 902 233 q 880 308 902 288 q 821 328 859 328 l 568 328 q 509 308 530 328 q 487 260 487 288 q 509 213 487 233 q 568 193 530 193 m 568 366 l 821 366 q 880 387 859 366 q 902 434 902 407 q 880 481 902 461 q 821 502 859 502 l 568 502 q 509 481 530 502 q 487 434 487 461 q 509 387 487 407 q 568 366 530 366 m 395 540 l 821 540 q 880 560 859 540 q 902 608 902 581 q 880 655 902 635 q 821 675 859 675 l 395 675 q 335 655 357 675 q 313 608 313 635 q 335 560 313 581 q 395 540 357 540 z "},"í":{"ha":1389,"x_min":313,"x_max":1076,"o":"m 395 19 l 994 19 q 1054 39 1032 19 q 1076 87 1076 60 q 1054 134 1076 114 q 994 155 1032 155 l 395 155 q 335 134 357 155 q 313 87 313 114 q 335 39 313 60 q 395 19 357 19 m 568 193 l 821 193 q 880 213 859 193 q 902 260 902 233 q 880 308 902 288 q 821 328 859 328 l 568 328 q 509 308 530 328 q 487 260 487 288 q 509 213 487 233 q 568 193 530 193 m 568 366 l 821 366 q 880 387 859 366 q 902 434 902 407 q 880 481 902 461 q 821 502 859 502 l 568 502 q 509 481 530 502 q 487 434 487 461 q 509 387 487 407 q 568 366 530 366 m 395 540 l 821 540 q 880 560 859 540 q 902 608 902 581 q 880 655 902 635 q 821 675 859 675 l 395 675 q 335 655 357 675 q 313 608 313 635 q 335 560 313 581 q 395 540 357 540 m 568 887 l 821 887 q 880 907 859 887 q 902 955 902 928 q 880 1002 902 982 q 821 1023 859 1023 l 568 1023 q 509 1002 530 1023 q 487 955 487 982 q 509 907 487 928 q 568 887 530 887 m 742 1061 l 994 1061 q 1054 1081 1032 1061 q 1076 1128 1076 1101 q 1054 1176 1076 1156 q 994 1196 1032 1196 l 742 1196 q 682 1176 704 1196 q 661 1128 661 1156 q 682 1081 661 1101 q 742 1061 704 1061 z "},"î":{"ha":1389,"x_min":140,"x_max":1249,"o":"m 395 19 l 994 19 q 1054 39 1032 19 q 1076 87 1076 60 q 1054 134 1076 114 q 994 155 1032 155 l 395 155 q 335 134 357 155 q 313 87 313 114 q 335 39 313 60 q 395 19 357 19 m 568 193 l 821 193 q 880 213 859 193 q 902 260 902 233 q 880 308 902 288 q 821 328 859 328 l 568 328 q 509 308 530 328 q 487 260 487 288 q 509 213 487 233 q 568 193 530 193 m 568 366 l 821 366 q 880 387 859 366 q 902 434 902 407 q 880 481 902 461 q 821 502 859 502 l 568 502 q 509 481 530 502 q 487 434 487 461 q 509 387 487 407 q 568 366 530 366 m 395 540 l 821 540 q 880 560 859 540 q 902 608 902 581 q 880 655 902 635 q 821 675 859 675 l 395 675 q 335 655 357 675 q 313 608 313 635 q 335 560 313 581 q 395 540 357 540 m 221 887 l 473 887 q 533 907 511 887 q 555 955 555 928 q 533 1002 555 982 q 473 1023 511 1023 l 221 1023 q 161 1002 183 1023 q 140 955 140 982 q 161 907 140 928 q 221 887 183 887 m 916 887 l 1168 887 q 1227 907 1206 887 q 1249 955 1249 928 q 1227 1002 1249 982 q 1168 1023 1206 1023 l 916 1023 q 856 1002 878 1023 q 834 955 834 982 q 856 907 834 928 q 916 887 878 887 m 395 1061 l 994 1061 q 1054 1081 1032 1061 q 1076 1128 1076 1101 q 1054 1176 1076 1156 q 994 1196 1032 1196 l 395 1196 q 335 1176 357 1196 q 313 1128 313 1156 q 335 1081 313 1101 q 395 1061 357 1061 z "},"ï":{"ha":1389,"x_min":140,"x_max":1249,"o":"m 395 19 l 994 19 q 1054 39 1032 19 q 1076 87 1076 60 q 1054 134 1076 114 q 994 155 1032 155 l 395 155 q 335 134 357 155 q 313 87 313 114 q 335 39 313 60 q 395 19 357 19 m 568 193 l 821 193 q 880 213 859 193 q 902 260 902 233 q 880 308 902 288 q 821 328 859 328 l 568 328 q 509 308 530 328 q 487 260 487 288 q 509 213 487 233 q 568 193 530 193 m 568 366 l 821 366 q 880 387 859 366 q 902 434 902 407 q 880 481 902 461 q 821 502 859 502 l 568 502 q 509 481 530 502 q 487 434 487 461 q 509 387 487 407 q 568 366 530 366 m 395 540 l 821 540 q 880 560 859 540 q 902 608 902 581 q 880 655 902 635 q 821 675 859 675 l 395 675 q 335 655 357 675 q 313 608 313 635 q 335 560 313 581 q 395 540 357 540 m 221 887 l 473 887 q 533 907 511 887 q 555 955 555 928 q 533 1002 555 982 q 473 1023 511 1023 l 221 1023 q 161 1002 183 1023 q 140 955 140 982 q 161 907 140 928 q 221 887 183 887 m 916 887 l 1168 887 q 1227 907 1206 887 q 1249 955 1249 928 q 1227 1002 1249 982 q 1168 1023 1206 1023 l 916 1023 q 856 1002 878 1023 q 834 955 834 982 q 856 907 834 928 q 916 887 878 887 z "},"ì":{"ha":1389,"x_min":313,"x_max":1076,"o":"m 395 19 l 994 19 q 1054 39 1032 19 q 1076 87 1076 60 q 1054 134 1076 114 q 994 155 1032 155 l 395 155 q 335 134 357 155 q 313 87 313 114 q 335 39 313 60 q 395 19 357 19 m 568 193 l 821 193 q 880 213 859 193 q 902 260 902 233 q 880 308 902 288 q 821 328 859 328 l 568 328 q 509 308 530 328 q 487 260 487 288 q 509 213 487 233 q 568 193 530 193 m 568 366 l 821 366 q 880 387 859 366 q 902 434 902 407 q 880 481 902 461 q 821 502 859 502 l 568 502 q 509 481 530 502 q 487 434 487 461 q 509 387 487 407 q 568 366 530 366 m 395 540 l 821 540 q 880 560 859 540 q 902 608 902 581 q 880 655 902 635 q 821 675 859 675 l 395 675 q 335 655 357 675 q 313 608 313 635 q 335 560 313 581 q 395 540 357 540 m 568 887 l 821 887 q 880 907 859 887 q 902 955 902 928 q 880 1002 902 982 q 821 1023 859 1023 l 568 1023 q 509 1002 530 1023 q 487 955 487 982 q 509 907 487 928 q 568 887 530 887 m 395 1061 l 647 1061 q 707 1081 685 1061 q 728 1128 728 1101 q 707 1176 728 1156 q 647 1196 685 1196 l 395 1196 q 335 1176 357 1196 q 313 1128 313 1156 q 335 1081 313 1101 q 395 1061 357 1061 z "},"j":{"ha":1389,"x_min":313,"x_max":1249,"o":"m 395 -155 l 994 -155 q 1054 -134 1032 -155 q 1076 -87 1076 -114 q 1054 -39 1076 -60 q 994 -19 1032 -19 l 395 -19 q 335 -39 357 -19 q 313 -87 313 -60 q 335 -134 313 -114 q 395 -155 357 -155 m 916 19 l 1168 19 q 1227 39 1206 19 q 1249 87 1249 60 q 1227 134 1249 114 q 1168 155 1206 155 l 916 155 q 856 134 878 155 q 834 87 834 114 q 856 39 834 60 q 916 19 878 19 m 916 193 l 1168 193 q 1227 213 1206 193 q 1249 260 1249 233 q 1227 308 1249 288 q 1168 328 1206 328 l 916 328 q 856 308 878 328 q 834 260 834 288 q 856 213 834 233 q 916 193 878 193 m 916 366 l 1168 366 q 1227 387 1206 366 q 1249 434 1249 407 q 1227 481 1249 461 q 1168 502 1206 502 l 916 502 q 856 481 878 502 q 834 434 834 461 q 856 387 834 407 q 916 366 878 366 m 916 540 l 1168 540 q 1227 560 1206 540 q 1249 608 1249 581 q 1227 655 1249 635 q 1168 675 1206 675 l 916 675 q 856 655 878 675 q 834 608 834 635 q 856 560 834 581 q 916 540 878 540 m 916 887 l 1168 887 q 1227 907 1206 887 q 1249 955 1249 928 q 1227 1002 1249 982 q 1168 1023 1206 1023 l 916 1023 q 856 1002 878 1023 q 834 955 834 982 q 856 907 834 928 q 916 887 878 887 z "},"k":{"ha":1389,"x_min":140,"x_max":1249,"o":"m 221 19 l 473 19 q 533 39 511 19 q 555 87 555 60 q 533 134 555 114 q 473 155 511 155 l 221 155 q 161 134 183 155 q 140 87 140 114 q 161 39 140 60 q 221 19 183 19 m 916 19 l 1168 19 q 1227 39 1206 19 q 1249 87 1249 60 q 1227 134 1249 114 q 1168 155 1206 155 l 916 155 q 856 134 878 155 q 834 87 834 114 q 856 39 834 60 q 916 19 878 19 m 221 193 l 473 193 q 533 213 511 193 q 555 260 555 233 q 533 308 555 288 q 473 328 511 328 l 221 328 q 161 308 183 328 q 140 260 140 288 q 161 213 140 233 q 221 193 183 193 m 742 193 l 994 193 q 1054 213 1032 193 q 1076 260 1076 233 q 1054 308 1076 288 q 994 328 1032 328 l 742 328 q 682 308 704 328 q 661 260 661 288 q 682 213 661 233 q 742 193 704 193 m 221 366 l 821 366 q 880 387 859 366 q 902 434 902 407 q 880 481 902 461 q 821 502 859 502 l 221 502 q 161 481 183 502 q 140 434 140 461 q 161 387 140 407 q 221 366 183 366 m 221 540 l 473 540 q 533 560 511 540 q 555 608 555 581 q 533 655 555 635 q 473 675 511 675 l 221 675 q 161 655 183 675 q 140 608 140 635 q 161 560 140 581 q 221 540 183 540 m 742 540 l 994 540 q 1054 560 1032 540 q 1076 608 1076 581 q 1054 655 1076 635 q 994 675 1032 675 l 742 675 q 682 655 704 675 q 661 608 661 635 q 682 560 661 581 q 742 540 704 540 m 221 713 l 473 713 q 533 734 511 713 q 555 781 555 754 q 533 829 555 808 q 473 849 511 849 l 221 849 q 161 829 183 849 q 140 781 140 808 q 161 734 140 754 q 221 713 183 713 m 221 887 l 473 887 q 533 907 511 887 q 555 955 555 928 q 533 1002 555 982 q 473 1023 511 1023 l 221 1023 q 161 1002 183 1023 q 140 955 140 982 q 161 907 140 928 q 221 887 183 887 z "},"l":{"ha":1389,"x_min":313,"x_max":1076,"o":"m 395 19 l 994 19 q 1054 39 1032 19 q 1076 87 1076 60 q 1054 134 1076 114 q 994 155 1032 155 l 395 155 q 335 134 357 155 q 313 87 313 114 q 335 39 313 60 q 395 19 357 19 m 568 193 l 821 193 q 880 213 859 193 q 902 260 902 233 q 880 308 902 288 q 821 328 859 328 l 568 328 q 509 308 530 328 q 487 260 487 288 q 509 213 487 233 q 568 193 530 193 m 568 366 l 821 366 q 880 387 859 366 q 902 434 902 407 q 880 481 902 461 q 821 502 859 502 l 568 502 q 509 481 530 502 q 487 434 487 461 q 509 387 487 407 q 568 366 530 366 m 568 540 l 821 540 q 880 560 859 540 q 902 608 902 581 q 880 655 902 635 q 821 675 859 675 l 568 675 q 509 655 530 675 q 487 608 487 635 q 509 560 487 581 q 568 540 530 540 m 568 713 l 821 713 q 880 734 859 713 q 902 781 902 754 q 880 829 902 808 q 821 849 859 849 l 568 849 q 509 829 530 849 q 487 781 487 808 q 509 734 487 754 q 568 713 530 713 m 395 887 l 821 887 q 880 907 859 887 q 902 955 902 928 q 880 1002 902 982 q 821 1023 859 1023 l 395 1023 q 335 1002 357 1023 q 313 955 313 982 q 335 907 313 928 q 395 887 357 887 z "},"m":{"ha":1389,"x_min":140,"x_max":1423,"o":"m 221 19 l 473 19 q 533 39 511 19 q 555 87 555 60 q 533 134 555 114 q 473 155 511 155 l 221 155 q 161 134 183 155 q 140 87 140 114 q 161 39 140 60 q 221 19 183 19 m 1089 19 l 1341 19 q 1401 39 1379 19 q 1423 87 1423 60 q 1401 134 1423 114 q 1341 155 1379 155 l 1089 155 q 1029 134 1051 155 q 1008 87 1008 114 q 1029 39 1008 60 q 1089 19 1051 19 m 221 193 l 473 193 q 533 213 511 193 q 555 260 555 233 q 533 308 555 288 q 473 328 511 328 l 221 328 q 161 308 183 328 q 140 260 140 288 q 161 213 140 233 q 221 193 183 193 m 730 193 l 833 193 q 882 213 863 193 q 902 260 902 233 q 882 308 902 288 q 833 328 863 328 l 730 328 q 680 308 700 328 q 661 260 661 288 q 680 213 661 233 q 730 193 700 193 m 1089 193 l 1341 193 q 1401 213 1379 193 q 1423 260 1423 233 q 1401 308 1423 288 q 1341 328 1379 328 l 1089 328 q 1029 308 1051 328 q 1008 260 1008 288 q 1029 213 1008 233 q 1089 193 1051 193 m 221 366 l 1341 366 q 1401 387 1379 366 q 1423 434 1423 407 q 1401 481 1423 461 q 1341 502 1379 502 l 221 502 q 161 481 183 502 q 140 434 140 461 q 161 387 140 407 q 221 366 183 366 m 221 540 l 1341 540 q 1401 560 1379 540 q 1423 608 1423 581 q 1401 655 1423 635 q 1341 675 1379 675 l 221 675 q 161 655 183 675 q 140 608 140 635 q 161 560 140 581 q 221 540 183 540 m 221 713 l 473 713 q 533 734 511 713 q 555 781 555 754 q 533 829 555 808 q 473 849 511 849 l 221 849 q 161 829 183 849 q 140 781 140 808 q 161 734 140 754 q 221 713 183 713 m 916 713 l 1168 713 q 1227 734 1206 713 q 1249 781 1249 754 q 1227 829 1249 808 q 1168 849 1206 849 l 916 849 q 856 829 878 849 q 834 781 834 808 q 856 734 834 754 q 916 713 878 713 z "},"n":{"ha":1389,"x_min":140,"x_max":1249,"o":"m 221 19 l 473 19 q 533 39 511 19 q 555 87 555 60 q 533 134 555 114 q 473 155 511 155 l 221 155 q 161 134 183 155 q 140 87 140 114 q 161 39 140 60 q 221 19 183 19 m 916 19 l 1168 19 q 1227 39 1206 19 q 1249 87 1249 60 q 1227 134 1249 114 q 1168 155 1206 155 l 916 155 q 856 134 878 155 q 834 87 834 114 q 856 39 834 60 q 916 19 878 19 m 221 193 l 473 193 q 533 213 511 193 q 555 260 555 233 q 533 308 555 288 q 473 328 511 328 l 221 328 q 161 308 183 328 q 140 260 140 288 q 161 213 140 233 q 221 193 183 193 m 916 193 l 1168 193 q 1227 213 1206 193 q 1249 260 1249 233 q 1227 308 1249 288 q 1168 328 1206 328 l 916 328 q 856 308 878 328 q 834 260 834 288 q 856 213 834 233 q 916 193 878 193 m 221 366 l 473 366 q 533 387 511 366 q 555 434 555 407 q 533 481 555 461 q 473 502 511 502 l 221 502 q 161 481 183 502 q 140 434 140 461 q 161 387 140 407 q 221 366 183 366 m 916 366 l 1168 366 q 1227 387 1206 366 q 1249 434 1249 407 q 1227 481 1249 461 q 1168 502 1206 502 l 916 502 q 856 481 878 502 q 834 434 834 461 q 856 387 834 407 q 916 366 878 366 m 221 540 l 473 540 q 533 560 511 540 q 555 608 555 581 q 533 655 555 635 q 473 675 511 675 l 221 675 q 161 655 183 675 q 140 608 140 635 q 161 560 140 581 q 221 540 183 540 m 916 540 l 1168 540 q 1227 560 1206 540 q 1249 608 1249 581 q 1227 655 1249 635 q 1168 675 1206 675 l 916 675 q 856 655 878 675 q 834 608 834 635 q 856 560 834 581 q 916 540 878 540 m 221 713 l 994 713 q 1054 734 1032 713 q 1076 781 1076 754 q 1054 829 1076 808 q 994 849 1032 849 l 221 849 q 161 829 183 849 q 140 781 140 808 q 161 734 140 754 q 221 713 183 713 z "},"ñ":{"ha":1389,"x_min":140,"x_max":1423,"o":"m 221 19 l 473 19 q 533 39 511 19 q 555 87 555 60 q 533 134 555 114 q 473 155 511 155 l 221 155 q 161 134 183 155 q 140 87 140 114 q 161 39 140 60 q 221 19 183 19 m 916 19 l 1168 19 q 1227 39 1206 19 q 1249 87 1249 60 q 1227 134 1249 114 q 1168 155 1206 155 l 916 155 q 856 134 878 155 q 834 87 834 114 q 856 39 834 60 q 916 19 878 19 m 221 193 l 473 193 q 533 213 511 193 q 555 260 555 233 q 533 308 555 288 q 473 328 511 328 l 221 328 q 161 308 183 328 q 140 260 140 288 q 161 213 140 233 q 221 193 183 193 m 916 193 l 1168 193 q 1227 213 1206 193 q 1249 260 1249 233 q 1227 308 1249 288 q 1168 328 1206 328 l 916 328 q 856 308 878 328 q 834 260 834 288 q 856 213 834 233 q 916 193 878 193 m 221 366 l 473 366 q 533 387 511 366 q 555 434 555 407 q 533 481 555 461 q 473 502 511 502 l 221 502 q 161 481 183 502 q 140 434 140 461 q 161 387 140 407 q 221 366 183 366 m 916 366 l 1168 366 q 1227 387 1206 366 q 1249 434 1249 407 q 1227 481 1249 461 q 1168 502 1206 502 l 916 502 q 856 481 878 502 q 834 434 834 461 q 856 387 834 407 q 916 366 878 366 m 221 540 l 473 540 q 533 560 511 540 q 555 608 555 581 q 533 655 555 635 q 473 675 511 675 l 221 675 q 161 655 183 675 q 140 608 140 635 q 161 560 140 581 q 221 540 183 540 m 916 540 l 1168 540 q 1227 560 1206 540 q 1249 608 1249 581 q 1227 655 1249 635 q 1168 675 1206 675 l 916 675 q 856 655 878 675 q 834 608 834 635 q 856 560 834 581 q 916 540 878 540 m 221 713 l 994 713 q 1054 734 1032 713 q 1076 781 1076 754 q 1054 829 1076 808 q 994 849 1032 849 l 221 849 q 161 829 183 849 q 140 781 140 808 q 161 734 140 754 q 221 713 183 713 m 221 887 l 473 887 q 533 907 511 887 q 555 955 555 928 q 533 1002 555 982 q 473 1023 511 1023 l 221 1023 q 161 1002 183 1023 q 140 955 140 982 q 161 907 140 928 q 221 887 183 887 m 742 887 l 1168 887 q 1227 907 1206 887 q 1249 955 1249 928 q 1227 1002 1249 982 q 1168 1023 1206 1023 l 742 1023 q 682 1002 704 1023 q 661 955 661 982 q 682 907 661 928 q 742 887 704 887 m 395 1061 l 821 1061 q 880 1081 859 1061 q 902 1128 902 1101 q 880 1176 902 1156 q 821 1196 859 1196 l 395 1196 q 335 1176 357 1196 q 313 1128 313 1156 q 335 1081 313 1101 q 395 1061 357 1061 m 1089 1061 l 1341 1061 q 1401 1081 1379 1061 q 1423 1128 1423 1101 q 1401 1176 1423 1156 q 1341 1196 1379 1196 l 1089 1196 q 1029 1176 1051 1196 q 1008 1128 1008 1156 q 1029 1081 1008 1101 q 1089 1061 1051 1061 z "},"o":{"ha":1389,"x_min":140,"x_max":1249,"o":"m 395 19 l 994 19 q 1054 39 1032 19 q 1076 87 1076 60 q 1054 134 1076 114 q 994 155 1032 155 l 395 155 q 335 134 357 155 q 313 87 313 114 q 335 39 313 60 q 395 19 357 19 m 221 193 l 473 193 q 533 213 511 193 q 555 260 555 233 q 533 308 555 288 q 473 328 511 328 l 221 328 q 161 308 183 328 q 140 260 140 288 q 161 213 140 233 q 221 193 183 193 m 916 193 l 1168 193 q 1227 213 1206 193 q 1249 260 1249 233 q 1227 308 1249 288 q 1168 328 1206 328 l 916 328 q 856 308 878 328 q 834 260 834 288 q 856 213 834 233 q 916 193 878 193 m 221 366 l 473 366 q 533 387 511 366 q 555 434 555 407 q 533 481 555 461 q 473 502 511 502 l 221 502 q 161 481 183 502 q 140 434 140 461 q 161 387 140 407 q 221 366 183 366 m 916 366 l 1168 366 q 1227 387 1206 366 q 1249 434 1249 407 q 1227 481 1249 461 q 1168 502 1206 502 l 916 502 q 856 481 878 502 q 834 434 834 461 q 856 387 834 407 q 916 366 878 366 m 221 540 l 473 540 q 533 560 511 540 q 555 608 555 581 q 533 655 555 635 q 473 675 511 675 l 221 675 q 161 655 183 675 q 140 608 140 635 q 161 560 140 581 q 221 540 183 540 m 916 540 l 1168 540 q 1227 560 1206 540 q 1249 608 1249 581 q 1227 655 1249 635 q 1168 675 1206 675 l 916 675 q 856 655 878 675 q 834 608 834 635 q 856 560 834 581 q 916 540 878 540 m 395 713 l 994 713 q 1054 734 1032 713 q 1076 781 1076 754 q 1054 829 1076 808 q 994 849 1032 849 l 395 849 q 335 829 357 849 q 313 781 313 808 q 335 734 313 754 q 395 713 357 713 z "},"ó":{"ha":1389,"x_min":140,"x_max":1249,"o":"m 395 19 l 994 19 q 1054 39 1032 19 q 1076 87 1076 60 q 1054 134 1076 114 q 994 155 1032 155 l 395 155 q 335 134 357 155 q 313 87 313 114 q 335 39 313 60 q 395 19 357 19 m 221 193 l 473 193 q 533 213 511 193 q 555 260 555 233 q 533 308 555 288 q 473 328 511 328 l 221 328 q 161 308 183 328 q 140 260 140 288 q 161 213 140 233 q 221 193 183 193 m 916 193 l 1168 193 q 1227 213 1206 193 q 1249 260 1249 233 q 1227 308 1249 288 q 1168 328 1206 328 l 916 328 q 856 308 878 328 q 834 260 834 288 q 856 213 834 233 q 916 193 878 193 m 221 366 l 473 366 q 533 387 511 366 q 555 434 555 407 q 533 481 555 461 q 473 502 511 502 l 221 502 q 161 481 183 502 q 140 434 140 461 q 161 387 140 407 q 221 366 183 366 m 916 366 l 1168 366 q 1227 387 1206 366 q 1249 434 1249 407 q 1227 481 1249 461 q 1168 502 1206 502 l 916 502 q 856 481 878 502 q 834 434 834 461 q 856 387 834 407 q 916 366 878 366 m 221 540 l 473 540 q 533 560 511 540 q 555 608 555 581 q 533 655 555 635 q 473 675 511 675 l 221 675 q 161 655 183 675 q 140 608 140 635 q 161 560 140 581 q 221 540 183 540 m 916 540 l 1168 540 q 1227 560 1206 540 q 1249 608 1249 581 q 1227 655 1249 635 q 1168 675 1206 675 l 916 675 q 856 655 878 675 q 834 608 834 635 q 856 560 834 581 q 916 540 878 540 m 395 713 l 994 713 q 1054 734 1032 713 q 1076 781 1076 754 q 1054 829 1076 808 q 994 849 1032 849 l 395 849 q 335 829 357 849 q 313 781 313 808 q 335 734 313 754 q 395 713 357 713 m 568 887 l 821 887 q 880 907 859 887 q 902 955 902 928 q 880 1002 902 982 q 821 1023 859 1023 l 568 1023 q 509 1002 530 1023 q 487 955 487 982 q 509 907 487 928 q 568 887 530 887 m 742 1061 l 994 1061 q 1054 1081 1032 1061 q 1076 1128 1076 1101 q 1054 1176 1076 1156 q 994 1196 1032 1196 l 742 1196 q 682 1176 704 1196 q 661 1128 661 1156 q 682 1081 661 1101 q 742 1061 704 1061 z "},"ô":{"ha":1389,"x_min":140,"x_max":1249,"o":"m 395 19 l 994 19 q 1054 39 1032 19 q 1076 87 1076 60 q 1054 134 1076 114 q 994 155 1032 155 l 395 155 q 335 134 357 155 q 313 87 313 114 q 335 39 313 60 q 395 19 357 19 m 221 193 l 473 193 q 533 213 511 193 q 555 260 555 233 q 533 308 555 288 q 473 328 511 328 l 221 328 q 161 308 183 328 q 140 260 140 288 q 161 213 140 233 q 221 193 183 193 m 916 193 l 1168 193 q 1227 213 1206 193 q 1249 260 1249 233 q 1227 308 1249 288 q 1168 328 1206 328 l 916 328 q 856 308 878 328 q 834 260 834 288 q 856 213 834 233 q 916 193 878 193 m 221 366 l 473 366 q 533 387 511 366 q 555 434 555 407 q 533 481 555 461 q 473 502 511 502 l 221 502 q 161 481 183 502 q 140 434 140 461 q 161 387 140 407 q 221 366 183 366 m 916 366 l 1168 366 q 1227 387 1206 366 q 1249 434 1249 407 q 1227 481 1249 461 q 1168 502 1206 502 l 916 502 q 856 481 878 502 q 834 434 834 461 q 856 387 834 407 q 916 366 878 366 m 221 540 l 473 540 q 533 560 511 540 q 555 608 555 581 q 533 655 555 635 q 473 675 511 675 l 221 675 q 161 655 183 675 q 140 608 140 635 q 161 560 140 581 q 221 540 183 540 m 916 540 l 1168 540 q 1227 560 1206 540 q 1249 608 1249 581 q 1227 655 1249 635 q 1168 675 1206 675 l 916 675 q 856 655 878 675 q 834 608 834 635 q 856 560 834 581 q 916 540 878 540 m 395 713 l 994 713 q 1054 734 1032 713 q 1076 781 1076 754 q 1054 829 1076 808 q 994 849 1032 849 l 395 849 q 335 829 357 849 q 313 781 313 808 q 335 734 313 754 q 395 713 357 713 m 221 887 l 473 887 q 533 907 511 887 q 555 955 555 928 q 533 1002 555 982 q 473 1023 511 1023 l 221 1023 q 161 1002 183 1023 q 140 955 140 982 q 161 907 140 928 q 221 887 183 887 m 916 887 l 1168 887 q 1227 907 1206 887 q 1249 955 1249 928 q 1227 1002 1249 982 q 1168 1023 1206 1023 l 916 1023 q 856 1002 878 1023 q 834 955 834 982 q 856 907 834 928 q 916 887 878 887 m 395 1061 l 994 1061 q 1054 1081 1032 1061 q 1076 1128 1076 1101 q 1054 1176 1076 1156 q 994 1196 1032 1196 l 395 1196 q 335 1176 357 1196 q 313 1128 313 1156 q 335 1081 313 1101 q 395 1061 357 1061 z "},"ö":{"ha":1389,"x_min":140,"x_max":1249,"o":"m 395 19 l 994 19 q 1054 39 1032 19 q 1076 87 1076 60 q 1054 134 1076 114 q 994 155 1032 155 l 395 155 q 335 134 357 155 q 313 87 313 114 q 335 39 313 60 q 395 19 357 19 m 221 193 l 473 193 q 533 213 511 193 q 555 260 555 233 q 533 308 555 288 q 473 328 511 328 l 221 328 q 161 308 183 328 q 140 260 140 288 q 161 213 140 233 q 221 193 183 193 m 916 193 l 1168 193 q 1227 213 1206 193 q 1249 260 1249 233 q 1227 308 1249 288 q 1168 328 1206 328 l 916 328 q 856 308 878 328 q 834 260 834 288 q 856 213 834 233 q 916 193 878 193 m 221 366 l 473 366 q 533 387 511 366 q 555 434 555 407 q 533 481 555 461 q 473 502 511 502 l 221 502 q 161 481 183 502 q 140 434 140 461 q 161 387 140 407 q 221 366 183 366 m 916 366 l 1168 366 q 1227 387 1206 366 q 1249 434 1249 407 q 1227 481 1249 461 q 1168 502 1206 502 l 916 502 q 856 481 878 502 q 834 434 834 461 q 856 387 834 407 q 916 366 878 366 m 221 540 l 473 540 q 533 560 511 540 q 555 608 555 581 q 533 655 555 635 q 473 675 511 675 l 221 675 q 161 655 183 675 q 140 608 140 635 q 161 560 140 581 q 221 540 183 540 m 916 540 l 1168 540 q 1227 560 1206 540 q 1249 608 1249 581 q 1227 655 1249 635 q 1168 675 1206 675 l 916 675 q 856 655 878 675 q 834 608 834 635 q 856 560 834 581 q 916 540 878 540 m 395 713 l 994 713 q 1054 734 1032 713 q 1076 781 1076 754 q 1054 829 1076 808 q 994 849 1032 849 l 395 849 q 335 829 357 849 q 313 781 313 808 q 335 734 313 754 q 395 713 357 713 m 221 1061 l 473 1061 q 533 1081 511 1061 q 555 1128 555 1101 q 533 1176 555 1156 q 473 1196 511 1196 l 221 1196 q 161 1176 183 1196 q 140 1128 140 1156 q 161 1081 140 1101 q 221 1061 183 1061 m 916 1061 l 1168 1061 q 1227 1081 1206 1061 q 1249 1128 1249 1101 q 1227 1176 1249 1156 q 1168 1196 1206 1196 l 916 1196 q 856 1176 878 1196 q 834 1128 834 1156 q 856 1081 834 1101 q 916 1061 878 1061 z "},"ò":{"ha":1389,"x_min":140,"x_max":1249,"o":"m 395 19 l 994 19 q 1054 39 1032 19 q 1076 87 1076 60 q 1054 134 1076 114 q 994 155 1032 155 l 395 155 q 335 134 357 155 q 313 87 313 114 q 335 39 313 60 q 395 19 357 19 m 221 193 l 473 193 q 533 213 511 193 q 555 260 555 233 q 533 308 555 288 q 473 328 511 328 l 221 328 q 161 308 183 328 q 140 260 140 288 q 161 213 140 233 q 221 193 183 193 m 916 193 l 1168 193 q 1227 213 1206 193 q 1249 260 1249 233 q 1227 308 1249 288 q 1168 328 1206 328 l 916 328 q 856 308 878 328 q 834 260 834 288 q 856 213 834 233 q 916 193 878 193 m 221 366 l 473 366 q 533 387 511 366 q 555 434 555 407 q 533 481 555 461 q 473 502 511 502 l 221 502 q 161 481 183 502 q 140 434 140 461 q 161 387 140 407 q 221 366 183 366 m 916 366 l 1168 366 q 1227 387 1206 366 q 1249 434 1249 407 q 1227 481 1249 461 q 1168 502 1206 502 l 916 502 q 856 481 878 502 q 834 434 834 461 q 856 387 834 407 q 916 366 878 366 m 221 540 l 473 540 q 533 560 511 540 q 555 608 555 581 q 533 655 555 635 q 473 675 511 675 l 221 675 q 161 655 183 675 q 140 608 140 635 q 161 560 140 581 q 221 540 183 540 m 916 540 l 1168 540 q 1227 560 1206 540 q 1249 608 1249 581 q 1227 655 1249 635 q 1168 675 1206 675 l 916 675 q 856 655 878 675 q 834 608 834 635 q 856 560 834 581 q 916 540 878 540 m 395 713 l 994 713 q 1054 734 1032 713 q 1076 781 1076 754 q 1054 829 1076 808 q 994 849 1032 849 l 395 849 q 335 829 357 849 q 313 781 313 808 q 335 734 313 754 q 395 713 357 713 m 568 887 l 821 887 q 880 907 859 887 q 902 955 902 928 q 880 1002 902 982 q 821 1023 859 1023 l 568 1023 q 509 1002 530 1023 q 487 955 487 982 q 509 907 487 928 q 568 887 530 887 m 395 1061 l 647 1061 q 707 1081 685 1061 q 728 1128 728 1101 q 707 1176 728 1156 q 647 1196 685 1196 l 395 1196 q 335 1176 357 1196 q 313 1128 313 1156 q 335 1081 313 1101 q 395 1061 357 1061 z "},"ø":{"ha":1389,"x_min":140,"x_max":1249,"o":"m 221 -155 l 473 -155 q 533 -134 511 -155 q 555 -87 555 -114 q 533 -39 555 -60 q 473 -19 511 -19 l 221 -19 q 161 -39 183 -19 q 140 -87 140 -60 q 161 -134 140 -114 q 221 -155 183 -155 m 395 19 l 994 19 q 1054 39 1032 19 q 1076 87 1076 60 q 1054 134 1076 114 q 994 155 1032 155 l 395 155 q 335 134 357 155 q 313 87 313 114 q 335 39 313 60 q 395 19 357 19 m 221 193 l 473 193 q 533 213 511 193 q 555 260 555 233 q 533 308 555 288 q 473 328 511 328 l 221 328 q 161 308 183 328 q 140 260 140 288 q 161 213 140 233 q 221 193 183 193 m 916 193 l 1168 193 q 1227 213 1206 193 q 1249 260 1249 233 q 1227 308 1249 288 q 1168 328 1206 328 l 916 328 q 856 308 878 328 q 834 260 834 288 q 856 213 834 233 q 916 193 878 193 m 221 366 l 473 366 q 533 387 511 366 q 555 434 555 407 q 533 481 555 461 q 473 502 511 502 l 221 502 q 161 481 183 502 q 140 434 140 461 q 161 387 140 407 q 221 366 183 366 m 916 366 l 1168 366 q 1227 387 1206 366 q 1249 434 1249 407 q 1227 481 1249 461 q 1168 502 1206 502 l 916 502 q 856 481 878 502 q 834 434 834 461 q 856 387 834 407 q 916 366 878 366 m 221 540 l 473 540 q 533 560 511 540 q 555 608 555 581 q 533 655 555 635 q 473 675 511 675 l 221 675 q 161 655 183 675 q 140 608 140 635 q 161 560 140 581 q 221 540 183 540 m 916 540 l 1168 540 q 1227 560 1206 540 q 1249 608 1249 581 q 1227 655 1249 635 q 1168 675 1206 675 l 916 675 q 856 655 878 675 q 834 608 834 635 q 856 560 834 581 q 916 540 878 540 m 395 713 l 994 713 q 1054 734 1032 713 q 1076 781 1076 754 q 1054 829 1076 808 q 994 849 1032 849 l 395 849 q 335 829 357 849 q 313 781 313 808 q 335 734 313 754 q 395 713 357 713 m 916 887 l 1168 887 q 1227 907 1206 887 q 1249 955 1249 928 q 1227 1002 1249 982 q 1168 1023 1206 1023 l 916 1023 q 856 1002 878 1023 q 834 955 834 982 q 856 907 834 928 q 916 887 878 887 z "},"õ":{"ha":1389,"x_min":140,"x_max":1423,"o":"m 395 19 l 994 19 q 1054 39 1032 19 q 1076 87 1076 60 q 1054 134 1076 114 q 994 155 1032 155 l 395 155 q 335 134 357 155 q 313 87 313 114 q 335 39 313 60 q 395 19 357 19 m 221 193 l 473 193 q 533 213 511 193 q 555 260 555 233 q 533 308 555 288 q 473 328 511 328 l 221 328 q 161 308 183 328 q 140 260 140 288 q 161 213 140 233 q 221 193 183 193 m 916 193 l 1168 193 q 1227 213 1206 193 q 1249 260 1249 233 q 1227 308 1249 288 q 1168 328 1206 328 l 916 328 q 856 308 878 328 q 834 260 834 288 q 856 213 834 233 q 916 193 878 193 m 221 366 l 473 366 q 533 387 511 366 q 555 434 555 407 q 533 481 555 461 q 473 502 511 502 l 221 502 q 161 481 183 502 q 140 434 140 461 q 161 387 140 407 q 221 366 183 366 m 916 366 l 1168 366 q 1227 387 1206 366 q 1249 434 1249 407 q 1227 481 1249 461 q 1168 502 1206 502 l 916 502 q 856 481 878 502 q 834 434 834 461 q 856 387 834 407 q 916 366 878 366 m 221 540 l 473 540 q 533 560 511 540 q 555 608 555 581 q 533 655 555 635 q 473 675 511 675 l 221 675 q 161 655 183 675 q 140 608 140 635 q 161 560 140 581 q 221 540 183 540 m 916 540 l 1168 540 q 1227 560 1206 540 q 1249 608 1249 581 q 1227 655 1249 635 q 1168 675 1206 675 l 916 675 q 856 655 878 675 q 834 608 834 635 q 856 560 834 581 q 916 540 878 540 m 395 713 l 994 713 q 1054 734 1032 713 q 1076 781 1076 754 q 1054 829 1076 808 q 994 849 1032 849 l 395 849 q 335 829 357 849 q 313 781 313 808 q 335 734 313 754 q 395 713 357 713 m 221 887 l 473 887 q 533 907 511 887 q 555 955 555 928 q 533 1002 555 982 q 473 1023 511 1023 l 221 1023 q 161 1002 183 1023 q 140 955 140 982 q 161 907 140 928 q 221 887 183 887 m 742 887 l 1168 887 q 1227 907 1206 887 q 1249 955 1249 928 q 1227 1002 1249 982 q 1168 1023 1206 1023 l 742 1023 q 682 1002 704 1023 q 661 955 661 982 q 682 907 661 928 q 742 887 704 887 m 395 1061 l 821 1061 q 880 1081 859 1061 q 902 1128 902 1101 q 880 1176 902 1156 q 821 1196 859 1196 l 395 1196 q 335 1176 357 1196 q 313 1128 313 1156 q 335 1081 313 1101 q 395 1061 357 1061 m 1089 1061 l 1341 1061 q 1401 1081 1379 1061 q 1423 1128 1423 1101 q 1401 1176 1423 1156 q 1341 1196 1379 1196 l 1089 1196 q 1029 1176 1051 1196 q 1008 1128 1008 1156 q 1029 1081 1008 1101 q 1089 1061 1051 1061 z "},"œ":{"ha":1389,"x_min":140,"x_max":1423,"o":"m 395 19 l 1341 19 q 1401 39 1379 19 q 1423 87 1423 60 q 1401 134 1423 114 q 1341 155 1379 155 l 395 155 q 335 134 357 155 q 313 87 313 114 q 335 39 313 60 q 395 19 357 19 m 221 193 l 473 193 q 533 213 511 193 q 555 260 555 233 q 533 308 555 288 q 473 328 511 328 l 221 328 q 161 308 183 328 q 140 260 140 288 q 161 213 140 233 q 221 193 183 193 m 742 193 l 994 193 q 1054 213 1032 193 q 1076 260 1076 233 q 1054 308 1076 288 q 994 328 1032 328 l 742 328 q 682 308 704 328 q 661 260 661 288 q 682 213 661 233 q 742 193 704 193 m 221 366 l 473 366 q 533 387 511 366 q 555 434 555 407 q 533 481 555 461 q 473 502 511 502 l 221 502 q 161 481 183 502 q 140 434 140 461 q 161 387 140 407 q 221 366 183 366 m 742 366 l 1341 366 q 1401 387 1379 366 q 1423 434 1423 407 q 1401 481 1423 461 q 1341 502 1379 502 l 742 502 q 682 481 704 502 q 661 434 661 461 q 682 387 661 407 q 742 366 704 366 m 221 540 l 473 540 q 533 560 511 540 q 555 608 555 581 q 533 655 555 635 q 473 675 511 675 l 221 675 q 161 655 183 675 q 140 608 140 635 q 161 560 140 581 q 221 540 183 540 m 742 540 l 994 540 q 1054 560 1032 540 q 1076 608 1076 581 q 1054 655 1076 635 q 994 675 1032 675 l 742 675 q 682 655 704 675 q 661 608 661 635 q 682 560 661 581 q 742 540 704 540 m 1251 540 l 1354 540 q 1403 560 1383 540 q 1423 608 1423 581 q 1403 655 1423 635 q 1354 675 1383 675 l 1251 675 q 1201 655 1221 675 q 1181 608 1181 635 q 1201 560 1181 581 q 1251 540 1221 540 m 395 713 l 1168 713 q 1227 734 1206 713 q 1249 781 1249 754 q 1227 829 1249 808 q 1168 849 1206 849 l 395 849 q 335 829 357 849 q 313 781 313 808 q 335 734 313 754 q 395 713 357 713 z "},"p":{"ha":1389,"x_min":140,"x_max":1249,"o":"m 221 -155 l 473 -155 q 533 -134 511 -155 q 555 -87 555 -114 q 533 -39 555 -60 q 473 -19 511 -19 l 221 -19 q 161 -39 183 -19 q 140 -87 140 -60 q 161 -134 140 -114 q 221 -155 183 -155 m 221 19 l 473 19 q 533 39 511 19 q 555 87 555 60 q 533 134 555 114 q 473 155 511 155 l 221 155 q 161 134 183 155 q 140 87 140 114 q 161 39 140 60 q 221 19 183 19 m 221 193 l 994 193 q 1054 213 1032 193 q 1076 260 1076 233 q 1054 308 1076 288 q 994 328 1032 328 l 221 328 q 161 308 183 328 q 140 260 140 288 q 161 213 140 233 q 221 193 183 193 m 221 366 l 473 366 q 533 387 511 366 q 555 434 555 407 q 533 481 555 461 q 473 502 511 502 l 221 502 q 161 481 183 502 q 140 434 140 461 q 161 387 140 407 q 221 366 183 366 m 916 366 l 1168 366 q 1227 387 1206 366 q 1249 434 1249 407 q 1227 481 1249 461 q 1168 502 1206 502 l 916 502 q 856 481 878 502 q 834 434 834 461 q 856 387 834 407 q 916 366 878 366 m 221 540 l 473 540 q 533 560 511 540 q 555 608 555 581 q 533 655 555 635 q 473 675 511 675 l 221 675 q 161 655 183 675 q 140 608 140 635 q 161 560 140 581 q 221 540 183 540 m 916 540 l 1168 540 q 1227 560 1206 540 q 1249 608 1249 581 q 1227 655 1249 635 q 1168 675 1206 675 l 916 675 q 856 655 878 675 q 834 608 834 635 q 856 560 834 581 q 916 540 878 540 m 221 713 l 994 713 q 1054 734 1032 713 q 1076 781 1076 754 q 1054 829 1076 808 q 994 849 1032 849 l 221 849 q 161 829 183 849 q 140 781 140 808 q 161 734 140 754 q 221 713 183 713 z "},"þ":{"ha":1389,"x_min":140,"x_max":1249,"o":"m 221 -155 l 473 -155 q 533 -134 511 -155 q 555 -87 555 -114 q 533 -39 555 -60 q 473 -19 511 -19 l 221 -19 q 161 -39 183 -19 q 140 -87 140 -60 q 161 -134 140 -114 q 221 -155 183 -155 m 221 19 l 473 19 q 533 39 511 19 q 555 87 555 60 q 533 134 555 114 q 473 155 511 155 l 221 155 q 161 134 183 155 q 140 87 140 114 q 161 39 140 60 q 221 19 183 19 m 221 193 l 994 193 q 1054 213 1032 193 q 1076 260 1076 233 q 1054 308 1076 288 q 994 328 1032 328 l 221 328 q 161 308 183 328 q 140 260 140 288 q 161 213 140 233 q 221 193 183 193 m 221 366 l 473 366 q 533 387 511 366 q 555 434 555 407 q 533 481 555 461 q 473 502 511 502 l 221 502 q 161 481 183 502 q 140 434 140 461 q 161 387 140 407 q 221 366 183 366 m 916 366 l 1168 366 q 1227 387 1206 366 q 1249 434 1249 407 q 1227 481 1249 461 q 1168 502 1206 502 l 916 502 q 856 481 878 502 q 834 434 834 461 q 856 387 834 407 q 916 366 878 366 m 221 540 l 473 540 q 533 560 511 540 q 555 608 555 581 q 533 655 555 635 q 473 675 511 675 l 221 675 q 161 655 183 675 q 140 608 140 635 q 161 560 140 581 q 221 540 183 540 m 916 540 l 1168 540 q 1227 560 1206 540 q 1249 608 1249 581 q 1227 655 1249 635 q 1168 675 1206 675 l 916 675 q 856 655 878 675 q 834 608 834 635 q 856 560 834 581 q 916 540 878 540 m 221 713 l 994 713 q 1054 734 1032 713 q 1076 781 1076 754 q 1054 829 1076 808 q 994 849 1032 849 l 221 849 q 161 829 183 849 q 140 781 140 808 q 161 734 140 754 q 221 713 183 713 m 221 887 l 473 887 q 533 907 511 887 q 555 955 555 928 q 533 1002 555 982 q 473 1023 511 1023 l 221 1023 q 161 1002 183 1023 q 140 955 140 982 q 161 907 140 928 q 221 887 183 887 z "},"q":{"ha":1389,"x_min":140,"x_max":1249,"o":"m 916 -155 l 1168 -155 q 1227 -134 1206 -155 q 1249 -87 1249 -114 q 1227 -39 1249 -60 q 1168 -19 1206 -19 l 916 -19 q 856 -39 878 -19 q 834 -87 834 -60 q 856 -134 834 -114 q 916 -155 878 -155 m 916 19 l 1168 19 q 1227 39 1206 19 q 1249 87 1249 60 q 1227 134 1249 114 q 1168 155 1206 155 l 916 155 q 856 134 878 155 q 834 87 834 114 q 856 39 834 60 q 916 19 878 19 m 395 193 l 1168 193 q 1227 213 1206 193 q 1249 260 1249 233 q 1227 308 1249 288 q 1168 328 1206 328 l 395 328 q 335 308 357 328 q 313 260 313 288 q 335 213 313 233 q 395 193 357 193 m 221 366 l 473 366 q 533 387 511 366 q 555 434 555 407 q 533 481 555 461 q 473 502 511 502 l 221 502 q 161 481 183 502 q 140 434 140 461 q 161 387 140 407 q 221 366 183 366 m 916 366 l 1168 366 q 1227 387 1206 366 q 1249 434 1249 407 q 1227 481 1249 461 q 1168 502 1206 502 l 916 502 q 856 481 878 502 q 834 434 834 461 q 856 387 834 407 q 916 366 878 366 m 221 540 l 473 540 q 533 560 511 540 q 555 608 555 581 q 533 655 555 635 q 473 675 511 675 l 221 675 q 161 655 183 675 q 140 608 140 635 q 161 560 140 581 q 221 540 183 540 m 916 540 l 1168 540 q 1227 560 1206 540 q 1249 608 1249 581 q 1227 655 1249 635 q 1168 675 1206 675 l 916 675 q 856 655 878 675 q 834 608 834 635 q 856 560 834 581 q 916 540 878 540 m 395 713 l 1168 713 q 1227 734 1206 713 q 1249 781 1249 754 q 1227 829 1249 808 q 1168 849 1206 849 l 395 849 q 335 829 357 849 q 313 781 313 808 q 335 734 313 754 q 395 713 357 713 z "},"r":{"ha":1389,"x_min":140,"x_max":1249,"o":"m 221 19 l 473 19 q 533 39 511 19 q 555 87 555 60 q 533 134 555 114 q 473 155 511 155 l 221 155 q 161 134 183 155 q 140 87 140 114 q 161 39 140 60 q 221 19 183 19 m 221 193 l 473 193 q 533 213 511 193 q 555 260 555 233 q 533 308 555 288 q 473 328 511 328 l 221 328 q 161 308 183 328 q 140 260 140 288 q 161 213 140 233 q 221 193 183 193 m 221 366 l 473 366 q 533 387 511 366 q 555 434 555 407 q 533 481 555 461 q 473 502 511 502 l 221 502 q 161 481 183 502 q 140 434 140 461 q 161 387 140 407 q 221 366 183 366 m 221 540 l 473 540 q 533 560 511 540 q 555 608 555 581 q 533 655 555 635 q 473 675 511 675 l 221 675 q 161 655 183 675 q 140 608 140 635 q 161 560 140 581 q 221 540 183 540 m 916 540 l 1168 540 q 1227 560 1206 540 q 1249 608 1249 581 q 1227 655 1249 635 q 1168 675 1206 675 l 916 675 q 856 655 878 675 q 834 608 834 635 q 856 560 834 581 q 916 540 878 540 m 221 713 l 994 713 q 1054 734 1032 713 q 1076 781 1076 754 q 1054 829 1076 808 q 994 849 1032 849 l 221 849 q 161 829 183 849 q 140 781 140 808 q 161 734 140 754 q 221 713 183 713 z "},"s":{"ha":1389,"x_min":140,"x_max":1249,"o":"m 221 19 l 994 19 q 1054 39 1032 19 q 1076 87 1076 60 q 1054 134 1076 114 q 994 155 1032 155 l 221 155 q 161 134 183 155 q 140 87 140 114 q 161 39 140 60 q 221 19 183 19 m 916 193 l 1168 193 q 1227 213 1206 193 q 1249 260 1249 233 q 1227 308 1249 288 q 1168 328 1206 328 l 916 328 q 856 308 878 328 q 834 260 834 288 q 856 213 834 233 q 916 193 878 193 m 395 366 l 994 366 q 1054 387 1032 366 q 1076 434 1076 407 q 1054 481 1076 461 q 994 502 1032 502 l 395 502 q 335 481 357 502 q 313 434 313 461 q 335 387 313 407 q 395 366 357 366 m 221 540 l 473 540 q 533 560 511 540 q 555 608 555 581 q 533 655 555 635 q 473 675 511 675 l 221 675 q 161 655 183 675 q 140 608 140 635 q 161 560 140 581 q 221 540 183 540 m 395 713 l 1168 713 q 1227 734 1206 713 q 1249 781 1249 754 q 1227 829 1249 808 q 1168 849 1206 849 l 395 849 q 335 829 357 849 q 313 781 313 808 q 335 734 313 754 q 395 713 357 713 z "},"ß":{"ha":1389,"x_min":140,"x_max":1249,"o":"m 221 19 l 473 19 q 533 39 511 19 q 555 87 555 60 q 533 134 555 114 q 473 155 511 155 l 221 155 q 161 134 183 155 q 140 87 140 114 q 161 39 140 60 q 221 19 183 19 m 742 19 l 994 19 q 1054 39 1032 19 q 1076 87 1076 60 q 1054 134 1076 114 q 994 155 1032 155 l 742 155 q 682 134 704 155 q 661 87 661 114 q 682 39 661 60 q 742 19 704 19 m 221 193 l 473 193 q 533 213 511 193 q 555 260 555 233 q 533 308 555 288 q 473 328 511 328 l 221 328 q 161 308 183 328 q 140 260 140 288 q 161 213 140 233 q 221 193 183 193 m 916 193 l 1168 193 q 1227 213 1206 193 q 1249 260 1249 233 q 1227 308 1249 288 q 1168 328 1206 328 l 916 328 q 856 308 878 328 q 834 260 834 288 q 856 213 834 233 q 916 193 878 193 m 221 366 l 473 366 q 533 387 511 366 q 555 434 555 407 q 533 481 555 461 q 473 502 511 502 l 221 502 q 161 481 183 502 q 140 434 140 461 q 161 387 140 407 q 221 366 183 366 m 916 366 l 1168 366 q 1227 387 1206 366 q 1249 434 1249 407 q 1227 481 1249 461 q 1168 502 1206 502 l 916 502 q 856 481 878 502 q 834 434 834 461 q 856 387 834 407 q 916 366 878 366 m 221 540 l 473 540 q 533 560 511 540 q 555 608 555 581 q 533 655 555 635 q 473 675 511 675 l 221 675 q 161 655 183 675 q 140 608 140 635 q 161 560 140 581 q 221 540 183 540 m 742 540 l 994 540 q 1054 560 1032 540 q 1076 608 1076 581 q 1054 655 1076 635 q 994 675 1032 675 l 742 675 q 682 655 704 675 q 661 608 661 635 q 682 560 661 581 q 742 540 704 540 m 221 713 l 473 713 q 533 734 511 713 q 555 781 555 754 q 533 829 555 808 q 473 849 511 849 l 221 849 q 161 829 183 849 q 140 781 140 808 q 161 734 140 754 q 221 713 183 713 m 916 713 l 1168 713 q 1227 734 1206 713 q 1249 781 1249 754 q 1227 829 1249 808 q 1168 849 1206 849 l 916 849 q 856 829 878 849 q 834 781 834 808 q 856 734 834 754 q 916 713 878 713 m 221 887 l 473 887 q 533 907 511 887 q 555 955 555 928 q 533 1002 555 982 q 473 1023 511 1023 l 221 1023 q 161 1002 183 1023 q 140 955 140 982 q 161 907 140 928 q 221 887 183 887 m 916 887 l 1168 887 q 1227 907 1206 887 q 1249 955 1249 928 q 1227 1002 1249 982 q 1168 1023 1206 1023 l 916 1023 q 856 1002 878 1023 q 834 955 834 982 q 856 907 834 928 q 916 887 878 887 m 395 1061 l 994 1061 q 1054 1081 1032 1061 q 1076 1128 1076 1101 q 1054 1176 1076 1156 q 994 1196 1032 1196 l 395 1196 q 335 1176 357 1196 q 313 1128 313 1156 q 335 1081 313 1101 q 395 1061 357 1061 z "},"ſ":{"ha":1389,"x_min":487,"x_max":1249,"o":"m 568 19 l 821 19 q 880 39 859 19 q 902 87 902 60 q 880 134 902 114 q 821 155 859 155 l 568 155 q 509 134 530 155 q 487 87 487 114 q 509 39 487 60 q 568 19 530 19 m 568 193 l 821 193 q 880 213 859 193 q 902 260 902 233 q 880 308 902 288 q 821 328 859 328 l 568 328 q 509 308 530 328 q 487 260 487 288 q 509 213 487 233 q 568 193 530 193 m 568 366 l 821 366 q 880 387 859 366 q 902 434 902 407 q 880 481 902 461 q 821 502 859 502 l 568 502 q 509 481 530 502 q 487 434 487 461 q 509 387 487 407 q 568 366 530 366 m 568 540 l 821 540 q 880 560 859 540 q 902 608 902 581 q 880 655 902 635 q 821 675 859 675 l 568 675 q 509 655 530 675 q 487 608 487 635 q 509 560 487 581 q 568 540 530 540 m 568 713 l 821 713 q 880 734 859 713 q 902 781 902 754 q 880 829 902 808 q 821 849 859 849 l 568 849 q 509 829 530 849 q 487 781 487 808 q 509 734 487 754 q 568 713 530 713 m 742 887 l 1168 887 q 1227 907 1206 887 q 1249 955 1249 928 q 1227 1002 1249 982 q 1168 1023 1206 1023 l 742 1023 q 682 1002 704 1023 q 661 955 661 982 q 682 907 661 928 q 742 887 704 887 z "},"t":{"ha":1389,"x_min":140,"x_max":1249,"o":"m 742 19 l 1168 19 q 1227 39 1206 19 q 1249 87 1249 60 q 1227 134 1249 114 q 1168 155 1206 155 l 742 155 q 682 134 704 155 q 661 87 661 114 q 682 39 661 60 q 742 19 704 19 m 568 193 l 821 193 q 880 213 859 193 q 902 260 902 233 q 880 308 902 288 q 821 328 859 328 l 568 328 q 509 308 530 328 q 487 260 487 288 q 509 213 487 233 q 568 193 530 193 m 568 366 l 821 366 q 880 387 859 366 q 902 434 902 407 q 880 481 902 461 q 821 502 859 502 l 568 502 q 509 481 530 502 q 487 434 487 461 q 509 387 487 407 q 568 366 530 366 m 568 540 l 821 540 q 880 560 859 540 q 902 608 902 581 q 880 655 902 635 q 821 675 859 675 l 568 675 q 509 655 530 675 q 487 608 487 635 q 509 560 487 581 q 568 540 530 540 m 221 713 l 1168 713 q 1227 734 1206 713 q 1249 781 1249 754 q 1227 829 1249 808 q 1168 849 1206 849 l 221 849 q 161 829 183 849 q 140 781 140 808 q 161 734 140 754 q 221 713 183 713 m 568 887 l 821 887 q 880 907 859 887 q 902 955 902 928 q 880 1002 902 982 q 821 1023 859 1023 l 568 1023 q 509 1002 530 1023 q 487 955 487 982 q 509 907 487 928 q 568 887 530 887 z "},"u":{"ha":1389,"x_min":140,"x_max":1249,"o":"m 395 19 l 1168 19 q 1227 39 1206 19 q 1249 87 1249 60 q 1227 134 1249 114 q 1168 155 1206 155 l 395 155 q 335 134 357 155 q 313 87 313 114 q 335 39 313 60 q 395 19 357 19 m 221 193 l 473 193 q 533 213 511 193 q 555 260 555 233 q 533 308 555 288 q 473 328 511 328 l 221 328 q 161 308 183 328 q 140 260 140 288 q 161 213 140 233 q 221 193 183 193 m 916 193 l 1168 193 q 1227 213 1206 193 q 1249 260 1249 233 q 1227 308 1249 288 q 1168 328 1206 328 l 916 328 q 856 308 878 328 q 834 260 834 288 q 856 213 834 233 q 916 193 878 193 m 221 366 l 473 366 q 533 387 511 366 q 555 434 555 407 q 533 481 555 461 q 473 502 511 502 l 221 502 q 161 481 183 502 q 140 434 140 461 q 161 387 140 407 q 221 366 183 366 m 916 366 l 1168 366 q 1227 387 1206 366 q 1249 434 1249 407 q 1227 481 1249 461 q 1168 502 1206 502 l 916 502 q 856 481 878 502 q 834 434 834 461 q 856 387 834 407 q 916 366 878 366 m 221 540 l 473 540 q 533 560 511 540 q 555 608 555 581 q 533 655 555 635 q 473 675 511 675 l 221 675 q 161 655 183 675 q 140 608 140 635 q 161 560 140 581 q 221 540 183 540 m 916 540 l 1168 540 q 1227 560 1206 540 q 1249 608 1249 581 q 1227 655 1249 635 q 1168 675 1206 675 l 916 675 q 856 655 878 675 q 834 608 834 635 q 856 560 834 581 q 916 540 878 540 m 221 713 l 473 713 q 533 734 511 713 q 555 781 555 754 q 533 829 555 808 q 473 849 511 849 l 221 849 q 161 829 183 849 q 140 781 140 808 q 161 734 140 754 q 221 713 183 713 m 916 713 l 1168 713 q 1227 734 1206 713 q 1249 781 1249 754 q 1227 829 1249 808 q 1168 849 1206 849 l 916 849 q 856 829 878 849 q 834 781 834 808 q 856 734 834 754 q 916 713 878 713 z "},"ú":{"ha":1389,"x_min":140,"x_max":1249,"o":"m 395 19 l 1168 19 q 1227 39 1206 19 q 1249 87 1249 60 q 1227 134 1249 114 q 1168 155 1206 155 l 395 155 q 335 134 357 155 q 313 87 313 114 q 335 39 313 60 q 395 19 357 19 m 221 193 l 473 193 q 533 213 511 193 q 555 260 555 233 q 533 308 555 288 q 473 328 511 328 l 221 328 q 161 308 183 328 q 140 260 140 288 q 161 213 140 233 q 221 193 183 193 m 916 193 l 1168 193 q 1227 213 1206 193 q 1249 260 1249 233 q 1227 308 1249 288 q 1168 328 1206 328 l 916 328 q 856 308 878 328 q 834 260 834 288 q 856 213 834 233 q 916 193 878 193 m 221 366 l 473 366 q 533 387 511 366 q 555 434 555 407 q 533 481 555 461 q 473 502 511 502 l 221 502 q 161 481 183 502 q 140 434 140 461 q 161 387 140 407 q 221 366 183 366 m 916 366 l 1168 366 q 1227 387 1206 366 q 1249 434 1249 407 q 1227 481 1249 461 q 1168 502 1206 502 l 916 502 q 856 481 878 502 q 834 434 834 461 q 856 387 834 407 q 916 366 878 366 m 221 540 l 473 540 q 533 560 511 540 q 555 608 555 581 q 533 655 555 635 q 473 675 511 675 l 221 675 q 161 655 183 675 q 140 608 140 635 q 161 560 140 581 q 221 540 183 540 m 916 540 l 1168 540 q 1227 560 1206 540 q 1249 608 1249 581 q 1227 655 1249 635 q 1168 675 1206 675 l 916 675 q 856 655 878 675 q 834 608 834 635 q 856 560 834 581 q 916 540 878 540 m 221 713 l 473 713 q 533 734 511 713 q 555 781 555 754 q 533 829 555 808 q 473 849 511 849 l 221 849 q 161 829 183 849 q 140 781 140 808 q 161 734 140 754 q 221 713 183 713 m 916 713 l 1168 713 q 1227 734 1206 713 q 1249 781 1249 754 q 1227 829 1249 808 q 1168 849 1206 849 l 916 849 q 856 829 878 849 q 834 781 834 808 q 856 734 834 754 q 916 713 878 713 m 568 887 l 821 887 q 880 907 859 887 q 902 955 902 928 q 880 1002 902 982 q 821 1023 859 1023 l 568 1023 q 509 1002 530 1023 q 487 955 487 982 q 509 907 487 928 q 568 887 530 887 m 742 1061 l 994 1061 q 1054 1081 1032 1061 q 1076 1128 1076 1101 q 1054 1176 1076 1156 q 994 1196 1032 1196 l 742 1196 q 682 1176 704 1196 q 661 1128 661 1156 q 682 1081 661 1101 q 742 1061 704 1061 z "}}}
